<svg width="200" height="245" viewBox="0 0 200 245" fill="none" xmlns="http://www.w3.org/2000/svg">
<path d="M65.9198 231.573C66.3287 230.965 66.874 230.424 67.1466 229.748C67.6237 228.532 68.3053 227.788 69.6684 227.518C70.2818 227.382 71.0315 226.774 71.1678 226.166C71.5086 224.949 72.2584 224.408 73.417 224.138C75.4617 223.597 77.5064 223.124 79.483 222.448C81.1187 221.907 82.6182 221.231 84.1858 220.623C88.7523 218.73 92.8417 215.959 97.2037 213.593C100.203 211.971 103.133 210.146 106.064 208.456C108.995 206.834 111.926 205.279 114.788 203.589C119.832 200.683 124.807 197.641 129.783 194.667C132.85 192.842 135.917 190.949 138.984 189.057C142.8 186.623 146.549 184.055 150.366 181.621C154.523 178.985 158.817 176.484 162.907 173.713C165.428 172.023 167.678 169.792 170.131 167.967C174.834 164.385 178.992 160.329 182.331 155.53C185.33 151.137 187.307 146.27 188.056 140.93C188.738 135.928 188.67 131.061 187.307 126.194C186.012 121.666 184.035 117.475 180.559 114.095C177.901 111.459 174.902 109.161 172.244 106.525C168.836 103.212 165.497 99.7651 162.293 96.2503C160.18 93.8845 159.294 90.9779 158.545 87.8686C157.59 84.0157 158.954 81.2444 161.135 78.6758C162.43 77.1888 164.406 76.0397 166.246 75.1609C173.607 71.5109 181.173 68.1312 187.716 62.994C190.442 60.831 192.078 57.9921 193.577 54.8828C195.826 50.2864 196.712 45.352 196.099 40.4853C195.554 36.0241 193.85 31.698 192.214 27.4396C189.897 21.1534 185.603 16.3542 180.423 12.0958C174.221 7.02626 166.996 4.59288 159.226 3.98454C153.569 3.57897 147.776 3.64657 142.323 5.80957C137.484 7.7022 133.054 10.2032 129.033 13.3801C123.035 18.1117 117.719 23.5868 113.152 29.7378C111.448 31.9684 109.949 34.4018 108.586 36.8352C105.996 41.5668 103.338 46.2983 101.089 51.1651C99.1121 55.2883 97.6808 59.6819 95.9769 63.9403C93.0461 71.4433 90.1154 79.0138 87.1165 86.5167C85.14 91.4511 83.0271 96.453 80.7779 101.252C78.3243 106.525 75.8025 111.864 72.8718 116.934C66.9421 127.411 60.3309 137.483 52.1521 146.473C49.903 148.974 47.3812 151.272 44.9957 153.637C44.6549 153.975 44.3823 154.381 44.1778 154.651C51.4706 156.544 57.1276 160.802 62.3756 166.886C62.9209 166.142 63.4662 165.399 64.0114 164.655C67.4874 159.721 70.8271 154.787 74.4394 149.92C78.1198 144.985 82.2092 140.321 85.6852 135.252C88.4796 131.196 91.0014 126.87 93.1824 122.477C95.2953 118.286 96.8629 113.825 98.5668 109.431C99.7255 106.457 100.612 103.415 101.634 100.373C102.793 96.8586 104.224 93.4113 105.178 89.8964C105.928 87.3279 106.132 84.6241 106.677 81.9879C106.814 81.1768 107.291 80.3657 107.7 79.2842C109.472 80.7712 110.835 82.0555 111.176 84.1509C111.312 85.1648 111.789 86.1788 112.13 87.1927C113.289 90.4372 114.584 93.6817 115.674 96.9938C116.083 98.2105 116.219 99.5623 116.56 100.914C117.105 103.28 117.651 105.646 118.128 108.079C119.559 115.717 119.286 123.423 119.15 131.129C119.15 131.534 119.082 132.007 118.878 132.413C118.537 133.157 118.741 133.832 118.809 134.644C118.946 136.266 118.4 137.956 118.06 139.578C117.719 141.133 116.696 142.484 117.514 144.377C117.923 145.323 116.901 146.743 116.56 148.027C116.219 149.379 115.81 150.731 115.606 152.15C115.47 152.894 115.742 153.705 115.674 154.516C115.606 154.989 115.402 155.598 115.061 155.868C113.357 157.085 113.561 158.977 113.493 160.6C113.425 161.073 114.379 162.019 114.924 162.087C118.878 162.425 122.831 162.357 126.647 161.208C128.01 160.802 129.442 160.464 130.669 159.789C131.282 159.451 131.759 158.504 131.895 157.761C132.304 155.125 132.577 152.421 132.85 149.717C133.259 144.715 133.667 139.713 133.804 134.779C134.008 127.276 134.145 119.773 133.872 112.202C133.667 106.119 132.918 100.103 131.214 94.1548C130.26 90.9103 129.851 87.463 129.578 84.0833C128.828 75.0933 128.283 66.1034 127.806 57.1134C127.67 54.4096 127.942 51.5707 128.419 48.8669C128.965 45.7576 129.578 42.6483 130.669 39.6741C132.441 34.875 134.076 29.9406 136.598 25.547C141.301 17.2329 148.662 12.569 158.545 12.231C164.951 12.0282 170.608 13.8532 175.925 17.3681C180.9 20.6802 184.24 25.2766 186.966 30.3462C189.556 35.1453 190.033 40.4177 189.079 45.8252C188.261 50.354 186.216 54.2068 183.081 57.4513C178.992 61.7097 174.698 65.7654 169.177 68.1988C166.86 69.2127 164.406 70.0238 162.225 71.1729C156.909 74.0118 151.388 76.8508 148.321 82.3259C146.549 85.5704 145.595 89.0853 147.571 92.7354C148.594 94.628 149.207 96.791 150.298 98.6836C151.456 100.644 152.82 102.536 154.455 104.159C157.113 106.862 160.112 109.228 162.907 111.864C165.837 114.703 168.427 117.88 168.427 122.139C168.427 125.451 167.337 128.493 164.815 130.994C161.066 134.779 156.159 136.536 151.456 138.699C148.049 140.254 144.641 141.876 141.165 143.431C140.619 143.634 140.142 143.904 139.597 144.039C137.552 144.715 136.871 145.932 136.871 148.095C136.871 150.866 137.007 153.637 135.576 156.274C134.894 157.49 136.053 158.639 137.689 158.707C141.369 158.842 145.118 158.977 148.798 159.248C153.706 159.586 155.546 164.858 152.82 168.035C150.502 170.739 147.776 173.172 145.118 175.538C143.073 177.363 140.756 178.85 138.575 180.54C135.712 182.77 132.509 184.393 129.101 185.609C126.647 186.488 124.33 186.691 121.808 186.623C118.741 186.556 116.151 185.271 113.902 183.514C111.312 181.419 111.244 178.309 111.857 175.268C112.403 172.631 113.221 170.063 113.902 167.427C114.038 167.021 114.107 166.616 114.243 166.075C113.493 165.94 112.812 165.804 112.13 165.737C109.267 165.399 108.245 163.777 109.131 161.073C109.54 159.856 109.881 158.639 110.222 157.49C110.085 157.423 109.949 157.288 109.813 157.22C108.177 157.964 106.541 158.639 104.974 159.383C101.293 161.14 97.6808 162.965 94.0003 164.723C91.4104 165.94 88.7523 167.021 86.0942 168.17C81.4595 170.266 76.893 172.361 72.2584 174.389C70.4181 175.2 68.5097 175.876 66.6014 176.619C64.9656 177.228 63.3298 177.836 61.7622 178.647C61.3533 178.85 61.0125 179.594 61.0807 180.067C61.3533 182.297 62.5801 183.987 64.7611 184.731C68.4416 185.947 70.4181 188.921 72.4628 191.828C73.826 193.788 73.0762 196.627 71.3723 198.385C69.5321 200.345 67.3511 201.291 64.693 201.494C61.4215 201.764 58.2181 202.508 55.0147 202.711C48.8806 203.184 43.837 200.615 39.2024 196.898C36.9532 195.073 34.9085 193.045 33.8862 190.138C31.7052 190.949 29.7286 191.693 27.7521 192.504C23.5945 194.194 19.437 196.019 15.2794 197.641C11.1219 199.263 6.9643 200.886 2.80674 202.373C1.64808 202.711 0.284947 203.251 0.0123206 202.035C-0.123993 201.359 0.898357 200.21 1.71624 199.601C2.67043 198.925 3.82909 198.52 4.9196 198.114C9.89503 196.019 14.8705 193.856 19.9141 191.76C23.6627 190.206 27.4113 188.651 31.1599 187.096C32.2504 186.623 31.9096 186.015 31.637 185.204C30.6828 181.959 29.7286 178.782 29.047 175.47C28.5018 172.969 29.1834 170.739 31.2962 168.981C32.5912 167.9 33.4772 166.413 34.5677 165.128C35.1811 164.385 35.7946 163.506 36.6124 163.101C38.4527 162.222 38.7934 160.938 38.2482 159.18C37.4303 156.679 38.4527 154.989 40.4974 153.435C42.065 152.286 43.1555 150.528 44.3823 149.041C48.4035 144.31 52.5611 139.646 56.3097 134.711C59.4449 130.588 62.1712 126.059 65.0338 121.733C66.465 119.57 67.8963 117.407 69.1232 115.177C70.35 113.014 71.3723 110.851 72.531 108.62C72.8718 108.012 73.1444 107.403 73.5533 106.862C73.826 106.457 74.1667 106.187 74.3712 105.781C75.6662 102.739 76.9612 99.6299 78.2561 96.5882C79.2103 94.29 80.2327 91.9242 81.255 89.626C82.9589 85.5704 84.7992 81.5148 86.4349 77.3915C88.0025 73.5387 89.4338 69.5506 90.9333 65.6978C91.7512 63.6024 92.7054 61.4394 93.5232 59.344C95.0227 55.6939 96.3858 52.0438 98.0216 48.4613C99.1802 45.8252 100.612 43.2566 101.907 40.7556C103.338 38.0519 104.701 35.2805 106.405 32.712C108.586 29.3999 110.835 26.1553 113.289 23.1136C115.606 20.2747 118.196 17.6385 120.718 15.0023C124.126 11.3523 128.215 8.44574 132.577 6.01236C140.142 1.75394 148.253 -0.409067 157.045 0.0640906C163.384 0.40206 169.45 1.61875 175.175 4.18732C179.332 6.07995 182.945 8.8513 186.216 12.1634C189.488 15.4755 192.282 19.058 194.463 23.1136C195.622 25.3442 196.781 27.6424 197.394 30.0082C198.484 33.9962 199.575 38.0519 199.916 42.1075C200.257 46.5011 199.575 50.8947 197.667 55.0179C196.303 58.0597 195.145 61.3042 192.623 63.6024C190.646 65.3598 188.534 67.0497 186.421 68.6719C183.967 70.497 181.445 72.1868 178.855 73.7415C177.015 74.823 174.97 75.5665 173.062 76.5128C170.949 77.5267 168.836 78.6082 166.792 79.7573C161.407 82.7315 161.407 86.0436 163.725 90.7751C164.747 92.9381 166.587 94.6956 168.291 96.453C170.881 99.2244 173.539 101.861 176.265 104.429C178.174 106.254 180.287 107.944 182.263 109.769C187.716 114.636 190.851 120.719 192.078 127.952C193.1 133.968 193.032 139.916 191.192 145.729C190.238 148.771 188.602 151.677 187.307 154.584C185.603 158.301 183.013 161.343 180.287 164.317C177.288 167.562 174.016 170.604 170.54 173.375C167.337 175.943 163.725 178.106 160.317 180.405C157.045 182.568 153.842 184.798 150.502 186.961C145.459 190.206 140.347 193.45 135.235 196.627C132.781 198.182 130.191 199.669 127.738 201.156C122.013 204.603 116.288 207.983 110.562 211.43C107.291 213.391 103.951 215.351 100.68 217.176C96.045 219.744 91.4104 222.313 86.7757 224.881C81.5958 227.72 76.3477 230.559 71.1678 233.398C68.4416 234.885 65.4427 236.034 63.1254 237.995C59.922 240.698 56.1052 242.321 52.6292 244.416C52.3566 244.619 52.0158 244.889 51.7432 244.889C51.0616 244.957 49.9711 245.16 49.6304 244.754C48.8806 244.011 49.494 243.267 50.2438 242.659C50.5845 242.388 50.789 241.848 51.0616 241.442C51.198 241.172 51.2661 240.698 51.4706 240.563C54.7421 238.468 56.7868 234.615 61.4214 234.345C62.9891 234.142 64.4203 232.452 65.9198 231.573ZM137.484 140.592C138.575 140.119 139.324 139.713 140.074 139.375C141.983 138.496 143.891 137.685 145.799 136.807C150.161 134.779 154.728 132.954 158.885 130.52C163.452 127.817 165.906 123.22 162.157 117.88C161.544 117.002 160.93 116.123 160.18 115.379C158.613 113.757 157.113 111.932 155.205 110.58C150.843 107.403 147.912 103.212 145.527 98.4809C144.777 96.9938 144.845 95.1012 143.959 93.7493C142.596 91.6539 142.596 89.4233 142.596 87.1927C142.664 83.813 144.027 80.9064 146.004 78.2027C149.752 73.0655 155.205 70.0238 160.794 67.5904C167.882 64.4811 174.425 60.7634 179.605 54.9504C181.718 52.5846 183.763 50.1512 184.512 47.0419C184.989 45.014 185.33 42.9186 185.739 40.8232C185.739 40.7556 185.807 40.688 185.807 40.688C185.126 38.3223 184.785 35.8213 183.694 33.7259C181.991 30.4138 179.81 27.3044 177.833 24.1275C177.765 23.9923 177.628 23.8572 177.492 23.722C173.062 19.5987 167.95 16.895 161.816 16.0839C153.228 14.9348 146.413 18.0441 141.233 24.6007C137.416 29.3999 135.44 35.1453 133.599 40.9584C132.304 44.9465 131.418 48.9345 131.418 53.1253C131.418 57.3161 131.418 61.5746 131.691 65.6978C132.032 70.5646 132.577 75.3637 133.19 80.2305C133.804 85.3676 134.554 90.5724 135.371 95.7095C135.78 98.0753 136.598 100.373 136.939 102.739C137.416 106.254 137.893 109.769 137.893 113.284C137.893 120.922 137.552 128.628 137.416 136.266C137.416 137.55 137.484 138.902 137.484 140.592ZM109.267 90.5048C109.063 90.5048 108.858 90.5048 108.722 90.5724C108.586 90.9103 108.45 91.2483 108.381 91.6539C106.677 96.791 104.974 101.996 103.201 107.133C102.452 109.363 101.361 111.459 100.543 113.689C99.7255 115.92 99.3166 118.218 98.3624 120.381C93.864 130.385 87.7299 139.375 80.8461 147.892C77.0293 152.691 72.7355 157.22 69.7366 162.627C69.6684 162.695 69.6002 162.83 69.5321 162.898C67.9645 165.196 66.5332 167.494 64.8974 169.725C64.3522 170.468 63.398 171.28 62.4438 171.482C60.9444 171.82 59.7175 173.172 59.8538 174.997C60.3991 174.794 60.9444 174.659 61.4214 174.456C64.6248 173.105 67.8963 171.753 71.0997 170.333C77.9835 167.359 84.8673 164.453 91.683 161.411C97.2037 158.91 102.52 156.138 108.109 153.705C110.767 152.556 112.334 151.137 112.13 148.162C112.062 147.486 112.471 146.743 112.607 145.999C113.493 140.592 114.788 135.117 114.993 129.709C115.333 120.314 115.674 110.783 112.675 101.658C111.38 97.9401 110.358 94.2224 109.267 90.5048ZM147.163 163.641C147.094 163.506 146.958 163.303 146.89 163.168C145.05 163.101 143.209 163.033 141.369 162.898C140.347 162.83 139.324 162.56 138.302 162.492C137.552 162.425 136.735 162.56 135.985 162.56C135.031 162.627 134.076 162.492 133.122 162.763C130.669 163.439 128.215 164.385 125.761 164.926C123.58 165.399 121.331 165.466 119.15 165.737C118.264 165.872 117.31 166.007 117.242 167.224C116.969 169.59 116.696 171.888 116.356 174.254C116.219 175.335 116.56 175.808 117.651 175.943C120.241 176.349 122.762 176.957 125.352 177.093C126.988 177.16 128.692 176.755 130.192 176.146C131.691 175.538 132.918 174.389 134.281 173.442C137.075 171.415 139.938 169.319 142.664 167.224C144.164 166.142 145.663 164.858 147.163 163.641ZM55.4237 199.399C54.9466 198.587 54.6739 198.047 54.3332 197.641C53.7879 196.965 53.0382 196.357 52.4929 195.681C49.2896 191.963 47.722 187.434 45.6091 183.176C43.7689 179.594 42.3376 175.606 38.589 173.375C37.4985 172.699 36.2035 172.091 34.9767 171.82C33.2728 171.482 32.0459 173.172 32.3867 175.268C32.8638 177.904 33.5454 180.54 34.2951 183.108C34.8404 184.933 35.8627 186.556 36.4761 188.381C37.0214 190.206 37.9074 191.76 39.5432 192.842C40.7018 193.585 41.8605 194.397 42.8147 195.343C46.2907 198.52 50.3119 199.804 55.4237 199.399ZM39.9521 164.723C42.3376 166.616 44.7231 168.238 46.7678 170.266C50.1756 173.578 52.2203 177.836 54.4695 181.892C55.7645 184.19 56.9913 186.488 58.4907 188.651C60.6717 191.76 63.9432 193.112 67.6237 193.518C68.1008 193.585 68.5779 193.383 69.3958 193.315C68.7142 192.504 68.3734 191.828 67.8282 191.422C66.1243 190.206 64.4203 188.989 62.5801 187.975C59.7175 186.353 58.4907 183.649 57.5365 180.81C56.5142 177.769 56.0371 174.524 54.8103 171.55C53.379 167.967 50.5845 165.331 46.7678 164.317C44.4504 163.641 42.065 163.844 39.9521 164.723ZM63.6025 197.303C61.3533 195.613 58.7633 194.194 56.855 192.098C54.8103 189.8 53.379 186.961 51.8795 184.325C49.7667 180.675 48.1309 176.755 45.6773 173.375C43.9734 171.009 41.3834 169.387 39.1342 167.427C38.8616 167.224 38.7934 166.818 38.589 166.48C37.7029 166.953 36.8169 167.359 35.6582 167.967C36.6124 168.508 37.294 168.981 37.9756 169.319C40.9745 170.739 43.4963 172.699 45.132 175.605C46.6315 178.242 48.0627 180.878 49.494 183.582C51.4706 187.502 53.379 191.49 56.6505 194.532C58.6952 196.289 61.2851 196.83 63.6025 197.303ZM115.81 178.918C115.606 180.337 116.424 181.148 118.946 181.959C125.012 183.92 130.328 182.162 135.167 178.647C138.234 176.417 140.96 173.848 143.823 171.415C144.981 170.468 146.14 169.454 147.299 168.508C146.89 168.238 146.754 168.238 146.617 168.305C142.119 171.415 137.621 174.524 133.19 177.701C130.6 179.526 127.738 180.472 124.603 180.202C121.672 179.999 118.741 179.391 115.81 178.918ZM47.3812 160.262C47.3812 160.464 47.3812 160.6 47.3812 160.802C52.5611 161.952 55.6281 165.534 58.0818 169.86C59.3767 168.914 59.7857 167.967 58.4226 166.954C55.2874 164.588 52.084 162.29 48.8806 160.059C48.5398 159.789 47.8583 160.126 47.3812 160.262Z" fill="#F6F6F1"/>
</svg>
