<svg width="264" height="324" viewBox="0 0 264 324" fill="none" xmlns="http://www.w3.org/2000/svg">
<path d="M87.0141 306.244C87.5539 305.439 88.2737 304.724 88.6335 303.83C89.2633 302.221 90.163 301.238 91.9623 300.88C92.772 300.702 93.7616 299.897 93.9416 299.093C94.3914 297.484 95.381 296.769 96.9105 296.411C99.6095 295.696 102.308 295.07 104.918 294.176C107.077 293.461 109.056 292.567 111.125 291.763C117.153 289.26 122.551 285.595 128.309 282.466C132.267 280.321 136.136 277.907 140.005 275.673C143.873 273.527 147.742 271.471 151.52 269.237C158.178 265.393 164.745 261.37 171.313 257.437C175.361 255.024 179.41 252.521 183.459 250.018C188.497 246.8 193.445 243.403 198.483 240.185C203.971 236.699 209.639 233.391 215.037 229.726C218.366 227.492 221.335 224.542 224.573 222.128C230.781 217.391 236.269 212.027 240.677 205.681C244.636 199.87 247.245 193.434 248.235 186.373C249.134 179.758 249.044 173.322 247.245 166.886C245.536 160.896 242.927 155.354 238.338 150.885C234.83 147.399 230.871 144.359 227.362 140.873C222.864 136.493 218.456 131.934 214.227 127.286C211.438 124.157 210.269 120.314 209.279 116.202C208.019 111.107 209.819 107.442 212.698 104.045C214.407 102.078 217.016 100.559 219.445 99.3965C229.162 94.5695 239.148 90.1 247.785 83.3064C251.383 80.4459 253.543 76.6916 255.522 72.5797C258.491 66.5012 259.66 59.9757 258.851 53.5397C258.131 47.64 255.882 41.9191 253.723 36.2875C250.664 27.9743 244.996 21.6276 238.158 15.9961C229.971 9.29188 220.435 6.07385 210.179 5.26935C202.711 4.73301 195.064 4.8224 187.867 7.68287C181.479 10.1858 175.631 13.4932 170.323 17.6945C162.406 23.9518 155.389 31.1923 149.361 39.3268C147.112 42.2766 145.133 45.4946 143.333 48.7127C139.915 54.9699 136.406 61.2272 133.437 67.6632C130.828 73.116 128.939 78.9263 126.689 84.5578C122.821 94.4801 118.952 104.492 114.994 114.414C112.385 120.939 109.596 127.554 106.627 133.901C103.388 140.873 100.059 147.935 96.1907 154.639C88.3636 168.495 79.6368 181.814 68.8408 193.702C65.8719 197.01 62.5432 200.049 59.3943 203.178C58.9445 203.625 58.5846 204.161 58.3147 204.519C67.9412 207.021 75.4084 212.653 82.3359 220.698C83.0556 219.715 83.7753 218.732 84.4951 217.748C89.0834 211.223 93.4917 204.697 98.26 198.261C103.118 191.736 108.516 185.568 113.104 178.864C116.793 173.5 120.122 167.779 123.001 161.969C125.79 156.427 127.859 150.527 130.108 144.717C131.638 140.784 132.807 136.761 134.157 132.739C135.686 128.091 137.575 123.532 138.835 118.883C139.825 115.487 140.095 111.911 140.814 108.425C140.994 107.352 141.624 106.28 142.164 104.849C144.503 106.816 146.302 108.514 146.752 111.285C146.932 112.626 147.562 113.967 148.012 115.308C149.541 119.599 151.25 123.889 152.69 128.269C153.23 129.878 153.41 131.666 153.859 133.454C154.579 136.583 155.299 139.711 155.929 142.929C157.818 153.03 157.458 163.221 157.278 173.411C157.278 173.947 157.188 174.573 156.918 175.109C156.468 176.093 156.738 176.987 156.828 178.059C157.008 180.205 156.289 182.439 155.839 184.585C155.389 186.641 154.039 188.428 155.119 190.931C155.659 192.183 154.309 194.06 153.859 195.758C153.41 197.546 152.87 199.334 152.6 201.211C152.42 202.194 152.78 203.267 152.69 204.34C152.6 204.966 152.33 205.77 151.88 206.128C149.631 207.737 149.901 210.24 149.811 212.385C149.721 213.011 150.981 214.262 151.7 214.351C156.918 214.798 162.136 214.709 167.175 213.189C168.974 212.653 170.863 212.206 172.483 211.312C173.292 210.865 173.922 209.614 174.102 208.63C174.642 205.144 175.002 201.569 175.361 197.993C175.901 191.378 176.441 184.764 176.621 178.238C176.891 168.316 177.071 158.394 176.711 148.382C176.441 140.337 175.451 132.381 173.202 124.515C171.943 120.224 171.403 115.665 171.043 111.196C170.053 99.3071 169.334 87.4183 168.704 75.5295C168.524 71.9539 168.884 68.1996 169.514 64.624C170.233 60.5121 171.043 56.4002 172.483 52.467C174.822 46.1204 176.981 39.5949 180.31 33.7846C186.517 22.7897 196.234 16.6218 209.279 16.1749C217.736 15.9067 225.203 18.3202 232.22 22.9685C238.788 27.3486 243.196 33.427 246.795 40.1313C250.214 46.4779 250.844 53.4503 249.584 60.6015C248.504 66.5906 245.805 71.6858 241.667 75.9764C236.269 81.608 230.601 86.9714 223.314 90.1894C220.255 91.5302 217.016 92.6029 214.137 94.1225C207.12 97.8769 199.832 101.631 195.784 108.872C193.445 113.162 192.185 117.811 194.794 122.638C196.144 125.141 196.954 128.001 198.393 130.504C199.922 133.096 201.722 135.599 203.881 137.745C207.39 141.32 211.348 144.449 215.037 147.935C218.905 151.689 222.324 155.891 222.324 161.522C222.324 165.902 220.885 169.925 217.556 173.232C212.608 178.238 206.13 180.562 199.922 183.423C195.424 185.479 190.926 187.624 186.337 189.68C185.618 189.948 184.988 190.306 184.268 190.484C181.569 191.378 180.67 192.987 180.67 195.848C180.67 199.513 180.849 203.178 178.96 206.664C178.061 208.273 179.59 209.793 181.749 209.882C186.607 210.061 191.556 210.24 196.414 210.597C202.891 211.044 205.32 218.016 201.722 222.218C198.663 225.793 195.064 229.011 191.556 232.14C188.857 234.553 185.798 236.52 182.919 238.755C179.14 241.705 174.912 243.85 170.413 245.459C167.175 246.621 164.116 246.889 160.787 246.8C156.738 246.71 153.32 245.012 150.351 242.688C146.932 239.917 146.842 235.805 147.652 231.782C148.371 228.296 149.451 224.899 150.351 221.413C150.531 220.877 150.621 220.341 150.801 219.625C149.811 219.447 148.911 219.268 148.012 219.178C144.233 218.732 142.883 216.586 144.053 213.011C144.593 211.402 145.043 209.793 145.493 208.273C145.313 208.184 145.133 208.005 144.953 207.915C142.794 208.899 140.634 209.793 138.565 210.776C133.707 213.1 128.939 215.513 124.08 217.838C120.662 219.447 117.153 220.877 113.644 222.396C107.527 225.168 101.499 227.939 95.381 230.62C92.9519 231.693 90.4329 232.587 87.9138 233.57C85.7546 234.375 83.5954 235.179 81.5262 236.252C80.9864 236.52 80.5365 237.503 80.6265 238.129C80.9864 241.079 82.6058 243.314 85.4847 244.297C90.3429 245.906 92.9519 249.839 95.6509 253.683C97.4503 256.275 96.4606 260.029 94.2115 262.354C91.7824 264.946 88.9034 266.197 85.3947 266.465C81.0763 266.823 76.8479 267.806 72.6194 268.075C64.5224 268.7 57.8649 265.303 51.7472 260.387C48.7783 257.973 46.0793 255.292 44.7298 251.448C41.8508 252.521 39.2418 253.504 36.6327 254.577C31.1448 256.811 25.6568 259.225 20.1688 261.37C14.6808 263.516 9.19287 265.661 3.7049 267.628C2.17547 268.075 0.37613 268.79 0.0162632 267.181C-0.16367 266.287 1.18583 264.767 2.26543 263.963C3.52497 263.069 5.0544 262.532 6.49387 261.996C13.0614 259.225 19.629 256.364 26.2866 253.593C31.2347 251.537 36.1829 249.481 41.1311 247.426C42.5705 246.8 42.1207 245.995 41.7608 244.923C40.5013 240.632 39.2418 236.431 38.3421 232.051C37.6224 228.743 38.522 225.793 41.311 223.469C43.0204 222.039 44.1899 220.072 45.6294 218.374C46.4391 217.391 47.2488 216.229 48.3284 215.692C50.7575 214.53 51.2074 212.832 50.4876 210.508C49.408 207.2 50.7575 204.966 53.4565 202.91C55.5258 201.39 56.9652 199.066 58.5846 197.099C63.8927 190.842 69.3806 184.674 74.3288 178.149C78.4673 172.696 82.066 166.707 85.8446 160.986C87.7339 158.125 89.6232 155.265 91.2426 152.315C92.862 149.455 94.2115 146.594 95.7409 143.644C96.1907 142.84 96.5506 142.035 97.0904 141.32C97.4503 140.784 97.9001 140.426 98.17 139.89C99.8794 135.867 101.589 131.756 103.298 127.733C104.558 124.694 105.907 121.565 107.257 118.526C109.506 113.162 111.935 107.799 114.094 102.346C116.163 97.2512 118.053 91.9772 120.032 86.882C121.112 84.1109 122.371 81.2504 123.451 78.4794C125.43 73.6523 127.229 68.8253 129.388 64.0876C130.918 60.6015 132.807 57.2047 134.517 53.8973C136.406 50.3217 138.205 46.6567 140.454 43.2599C143.333 38.8798 146.302 34.5891 149.541 30.5666C152.6 26.8122 156.019 23.326 159.347 19.8398C163.846 15.0128 169.244 11.1691 175.002 7.95103C184.988 2.31949 195.694 -0.54097 207.3 0.0847566C215.667 0.531704 223.674 2.14072 231.231 5.53752C236.719 8.04042 241.487 11.7054 245.805 16.0855C250.124 20.4656 253.812 25.2032 256.691 30.5666C258.221 33.5164 259.75 36.5557 260.56 39.6843C261.999 44.9583 263.439 50.3217 263.889 55.685C264.339 61.4954 263.439 67.3057 260.92 72.7584C259.121 76.781 257.591 81.0717 254.262 84.1109C251.653 86.435 248.864 88.6698 246.075 90.8151C242.837 93.2286 239.508 95.4634 236.089 97.5193C233.66 98.9496 230.961 99.9328 228.442 101.184C225.653 102.525 222.864 103.955 220.165 105.475C213.058 109.408 213.058 113.788 216.116 120.045C217.466 122.906 219.895 125.23 222.144 127.554C225.563 131.219 229.072 134.705 232.67 138.102C235.189 140.516 237.978 142.75 240.587 145.164C247.785 151.6 251.923 159.645 253.543 169.21C254.892 177.165 254.802 185.032 252.373 192.719C251.114 196.742 248.954 200.585 247.245 204.429C244.996 209.346 241.577 213.368 237.978 217.301C234.02 221.592 229.701 225.615 225.113 229.279C220.885 232.676 216.116 235.537 211.618 238.576C207.3 241.436 203.071 244.386 198.663 247.247C192.005 251.537 185.258 255.828 178.51 260.029C175.272 262.085 171.853 264.052 168.614 266.019C161.057 270.577 153.5 275.047 145.942 279.606C141.624 282.198 137.216 284.79 132.897 287.204C126.779 290.601 120.662 293.997 114.544 297.394C107.706 301.149 100.779 304.903 93.9416 308.657C90.3429 310.624 86.3844 312.144 83.3255 314.736C79.097 318.311 74.0589 320.457 69.4706 323.228C69.1107 323.496 68.6609 323.854 68.301 323.854C67.4014 323.943 65.9619 324.211 65.5121 323.675C64.5224 322.692 65.3321 321.708 66.3218 320.904C66.7716 320.546 67.0415 319.831 67.4014 319.295C67.5813 318.937 67.6713 318.311 67.9412 318.133C72.2596 315.362 74.9586 310.266 81.0763 309.909C83.1456 309.641 85.0349 307.406 87.0141 306.244ZM181.479 185.926C182.919 185.3 183.908 184.763 184.898 184.317C187.417 183.154 189.936 182.082 192.455 180.92C198.213 178.238 204.241 175.825 209.729 172.607C215.757 169.031 218.995 162.952 214.047 155.891C213.238 154.729 212.428 153.567 211.438 152.583C209.369 150.438 207.39 148.024 204.871 146.237C199.113 142.035 195.244 136.493 192.095 130.236C191.106 128.269 191.196 125.766 190.026 123.979C188.227 121.208 188.227 118.258 188.227 115.308C188.317 110.838 190.116 106.995 192.725 103.419C197.673 96.6254 204.871 92.6029 212.248 89.3849C221.604 85.273 230.241 80.3565 237.079 72.669C239.868 69.5404 242.567 66.3224 243.556 62.2105C244.186 59.5288 244.636 56.7577 245.176 53.9866C245.176 53.8972 245.266 53.8079 245.266 53.8079C244.366 50.6792 243.916 47.3718 242.477 44.6007C240.228 40.2206 237.349 36.1087 234.74 31.9074C234.65 31.7286 234.47 31.5499 234.29 31.3711C228.442 25.9183 221.694 22.3427 213.597 21.2701C202.262 19.7505 193.265 23.8624 186.427 32.5331C181.389 38.8798 178.78 46.4779 176.351 54.1654C174.642 59.4394 173.472 64.7134 173.472 70.2555C173.472 75.7977 173.472 81.4292 173.832 86.882C174.282 93.318 175.002 99.6647 175.811 106.101C176.621 112.894 177.611 119.777 178.69 126.571C179.23 129.7 180.31 132.739 180.76 135.867C181.389 140.516 182.019 145.164 182.019 149.812C182.019 159.913 181.569 170.104 181.389 180.205C181.389 181.903 181.479 183.691 181.479 185.926ZM144.233 119.688C143.963 119.688 143.693 119.688 143.513 119.777C143.333 120.224 143.153 120.671 143.063 121.208C140.814 128.001 138.565 134.884 136.226 141.678C135.236 144.628 133.797 147.399 132.717 150.349C131.638 153.298 131.098 156.338 129.838 159.198C123.901 172.428 115.803 184.317 106.717 195.58C101.679 201.926 96.0108 207.915 92.0523 215.067C91.9623 215.156 91.8723 215.335 91.7824 215.424C89.7131 218.463 87.8238 221.503 85.6646 224.452C84.9449 225.436 83.6854 226.508 82.4258 226.777C80.4466 227.224 78.8271 229.011 79.0071 231.425C79.7268 231.157 80.4465 230.978 81.0763 230.71C85.3047 228.922 89.6232 227.134 93.8516 225.257C102.938 221.324 112.025 217.48 121.022 213.458C128.309 210.15 135.326 206.485 142.704 203.267C146.212 201.748 148.282 199.87 148.012 195.937C147.922 195.043 148.461 194.06 148.641 193.077C149.811 185.926 151.52 178.685 151.79 171.534C152.24 159.109 152.69 146.505 148.731 134.437C147.022 129.521 145.672 124.604 144.233 119.688ZM194.255 216.407C194.165 216.229 193.985 215.96 193.895 215.782C191.466 215.692 189.036 215.603 186.607 215.424C185.258 215.335 183.908 214.977 182.559 214.888C181.569 214.798 180.49 214.977 179.5 214.977C178.24 215.067 176.981 214.888 175.721 215.245C172.483 216.139 169.244 217.391 166.005 218.106C163.126 218.732 160.157 218.821 157.278 219.178C156.109 219.357 154.849 219.536 154.759 221.145C154.399 224.274 154.039 227.313 153.59 230.442C153.41 231.872 153.859 232.497 155.299 232.676C158.718 233.213 162.046 234.017 165.465 234.196C167.624 234.285 169.874 233.749 171.853 232.944C173.832 232.14 175.451 230.62 177.251 229.369C180.939 226.687 184.718 223.916 188.317 221.145C190.296 219.715 192.275 218.016 194.255 216.407ZM73.1592 263.694C72.5295 262.622 72.1696 261.907 71.7198 261.37C71 260.476 70.0104 259.672 69.2907 258.778C65.0622 253.862 62.993 247.872 60.204 242.241C57.7749 237.503 55.8856 232.229 50.9375 229.279C49.498 228.386 47.7886 227.581 46.1692 227.224C43.92 226.777 42.3006 229.011 42.7505 231.782C43.3802 235.269 44.2799 238.755 45.2696 242.152C45.9893 244.565 47.3388 246.71 48.1485 249.124C48.8682 251.537 50.0378 253.593 52.197 255.024C53.7264 256.007 55.2559 257.08 56.5154 258.331C61.1037 262.532 66.4117 264.231 73.1592 263.694ZM52.7368 217.838C55.8856 220.341 59.0345 222.486 61.7335 225.168C66.2318 229.548 68.9308 235.179 71.8997 240.543C73.6091 243.582 75.2285 246.621 77.2077 249.482C80.0867 253.593 84.4051 255.381 89.2633 255.918C89.8931 256.007 90.5228 255.739 91.6024 255.649C90.7028 254.577 90.2529 253.683 89.5332 253.146C87.284 251.537 85.0349 249.928 82.6058 248.588C78.8272 246.442 77.2077 242.867 75.9482 239.112C74.5987 235.09 73.9689 230.799 72.3495 226.866C70.4602 222.128 66.7716 218.642 61.7335 217.301C58.6746 216.407 55.5258 216.676 52.7368 217.838ZM83.9553 260.923C80.9864 258.689 77.5676 256.811 75.0485 254.04C72.3495 251.001 70.4602 247.247 68.481 243.761C65.692 238.934 63.5328 233.749 60.294 229.279C58.0448 226.151 54.6261 224.006 51.6572 221.413C51.2973 221.145 51.2074 220.609 50.9375 220.162C49.7679 220.787 48.5983 221.324 47.0689 222.128C48.3284 222.843 49.2281 223.469 50.1278 223.916C54.0863 225.793 57.4151 228.386 59.5743 232.229C61.5535 235.715 63.4428 239.202 65.3321 242.777C67.9412 247.962 70.4602 253.236 74.7786 257.258C77.4776 259.582 80.8964 260.298 83.9553 260.923ZM152.87 236.609C152.6 238.487 153.68 239.559 157.008 240.632C165.015 243.224 172.033 240.9 178.42 236.252C182.469 233.302 186.068 229.905 189.846 226.687C191.376 225.436 192.905 224.095 194.434 222.843C193.895 222.486 193.715 222.486 193.535 222.575C187.597 226.687 181.659 230.799 175.811 235C172.393 237.414 168.614 238.665 164.476 238.308C160.607 238.04 156.738 237.235 152.87 236.609ZM62.5432 211.938C62.5432 212.206 62.5432 212.385 62.5432 212.653C69.3806 214.173 73.4291 218.91 76.6679 224.631C78.3773 223.38 78.9171 222.128 77.1178 220.787C72.9793 217.659 68.7509 214.62 64.5224 211.67C64.0726 211.312 63.1729 211.759 62.5432 211.938Z" fill="#F6F6F1"/>
</svg>
