<svg width="312" height="316" viewBox="0 0 312 316" fill="none" xmlns="http://www.w3.org/2000/svg">
<path d="M0.00684101 159.06C-0.746162 77.8423 60.749 7.42866 142.45 0.565232C233.94 -7.0608 308.361 63.48 311.875 151.688C315.264 239.006 249.125 311.199 164.161 315.775C76.4366 320.477 0.885344 251.08 0.00684101 159.06ZM259.165 159.949C269.707 165.16 275.229 174.312 279.371 184.225C284.893 197.571 287.905 211.806 288.407 226.423C288.407 227.313 288.909 228.202 289.285 229.727C318.527 175.71 314.511 96.6532 256.153 43.3981C207.334 -0.959979 129.649 -9.85701 69.4086 32.7217C12.1804 73.1396 -7.02118 145.206 11.9294 202.274C12.3059 202.02 12.9334 202.02 13.0589 201.638C14.0629 199.478 14.9414 197.19 15.9454 194.902C22.5969 179.777 30.6289 165.542 43.681 154.992C46.3165 152.832 49.203 150.29 50.709 147.239C55.8545 137.452 66.0201 134.275 74.8051 140.757C77.9426 143.045 80.5781 143.172 83.9666 141.774C84.2176 138.723 84.4686 135.927 84.7196 133.385C84.2176 132.877 84.0921 132.75 83.8411 132.623C82.8371 132.114 81.9586 131.479 80.9546 130.97C69.0321 123.98 63.6356 113.303 64.6396 99.7036C65.6436 85.2142 73.4246 75.3003 87.2296 70.7247C107.561 63.9884 130.025 78.2236 130.653 101.102C130.904 111.27 127.39 119.786 119.86 126.522C117.099 129.064 115.342 131.352 118.479 135.292C125.005 134.275 131.657 133.004 138.434 132.368C145.211 131.733 151.988 131.606 158.765 131.479C165.542 131.352 172.444 131.733 179.221 131.352C185.747 130.97 192.399 132.368 199.176 130.335C190.391 124.615 185.747 116.354 184.241 106.567C182.735 96.5261 185.496 87.502 192.022 79.876C200.933 69.4537 221.766 61.5735 239.964 77.9694C244.231 81.7825 247.243 86.4852 248.498 91.9505C249.627 97.0345 250.506 102.627 249.502 107.711C248.498 112.922 245.862 118.26 242.599 122.582C239.462 126.776 234.693 129.699 230.049 133.767C234.065 134.275 237.203 134.783 240.466 135.165C244.105 135.546 247.996 135.419 251.51 136.436C263.558 139.613 266.946 149.4 259.165 159.949ZM260.922 267.222C263.181 265.443 264.436 264.68 265.315 263.536C269.456 258.579 272.97 253.114 277.488 248.665C282.006 244.09 282.634 238.879 283.136 232.905C284.014 222.737 282.257 212.823 280.124 203.163C277.614 191.597 273.849 180.412 265.691 171.388C260.42 165.542 254.271 162.237 246.113 162.237C230.551 162.237 214.989 161.474 199.427 161.22C193.026 161.093 186.626 161.093 180.351 161.729C164.412 163.381 148.599 165.542 132.661 167.194C120.236 168.592 108.063 168.084 96.5167 162.618C90.9947 160.076 85.4726 157.28 79.9506 154.611C74.3031 151.942 70.5381 153.213 66.5221 159.695C68.7811 161.856 70.9146 164.271 73.4246 166.304C77.5661 169.609 81.7076 172.786 86.1001 175.837C101.16 186.259 117.35 194.012 136.049 194.266C148.599 194.394 161.024 195.283 173.448 193.122C175.958 192.741 178.468 193.122 180.853 193.122C181.606 196.936 179.723 197.571 177.213 197.825C172.444 198.461 167.801 199.223 162.655 199.986C160.145 213.84 158.263 227.313 157.259 241.421C168.052 242.31 177.088 239.26 186.124 235.955C195.035 232.651 203.318 227.821 210.471 221.466C217.625 215.111 224.025 207.866 231.304 200.494C231.681 202.02 232.434 203.291 232.183 204.307C231.681 205.96 230.551 207.485 229.547 208.883C212.354 231.38 189.889 244.217 161.777 246.505C160.522 246.632 159.267 247.013 157.51 247.394C158.137 259.977 158.639 272.306 159.267 284.889C160.773 284.508 162.53 284.381 164.036 283.745C174.452 279.551 184.869 275.357 195.16 271.162C196.917 270.4 199.051 267.603 200.557 270.781C201.812 273.323 199.176 274.594 197.168 275.611C196.792 275.865 196.29 275.865 195.913 276.119C189.512 279.042 183.112 281.966 176.711 284.889C175.707 285.397 174.954 286.16 173.197 287.304C176.586 287.304 178.719 287.558 180.978 287.304C202.188 284.889 223.272 282.347 244.482 279.805C249.627 279.17 255.024 274.213 255.275 269.764C256.153 251.08 256.906 232.524 257.659 213.84C257.785 209.391 257.659 204.943 258.036 200.494C258.036 199.605 259.542 198.842 260.295 197.952C261.048 198.715 262.177 199.223 262.303 200.113C262.679 201.765 262.554 203.672 262.554 205.451C262.554 214.857 262.805 224.135 266.946 232.778C267.574 233.922 267.95 235.32 268.201 236.591C268.703 238.752 267.699 240.023 265.44 240.023C264.436 240.023 263.432 239.641 262.303 239.387C261.926 248.411 261.424 257.054 260.922 267.222ZM55.729 238.879C54.725 241.166 54.0975 242.183 53.972 243.073C53.3445 250.191 52.717 257.181 52.3405 264.299C52.0895 270.018 52.5915 270.908 57.737 272.687C70.6636 277.263 83.7156 280.949 97.5207 280.949C108.69 280.949 119.985 281.203 131.155 281.076C138.685 280.949 146.34 280.186 154.372 279.678C153.619 268.493 152.866 258.198 152.239 247.267C121.993 246.505 97.3952 235.32 80.8291 209.773C75.9346 210.789 74.4286 216.89 68.9066 216.763C74.0521 207.866 82.8371 199.478 87.4806 199.096C89.6141 202.274 85.2216 203.545 85.3471 207.485C88.3591 211.171 91.4967 216.382 95.7637 220.449C110.071 234.176 127.39 240.912 146.968 241.929C151.235 242.183 152.364 241.294 151.737 237.099C150.231 224.771 148.348 212.569 146.591 199.605C143.956 199.605 141.822 199.605 139.689 199.605C129.9 199.605 120.362 198.207 111.2 194.902C96.7677 189.691 83.9666 181.556 72.0441 171.897C69.7851 170.117 67.6516 168.084 65.6436 166.177C61.3765 162.11 57.1095 158.043 52.466 153.721C48.45 157.28 44.5595 160.331 41.171 163.762C29.6249 175.583 22.8479 190.199 16.6984 205.324C14.6904 210.281 14.6904 214.73 17.2004 219.305C19.8359 224.008 20.9654 229.473 25.2324 233.795C30.6289 223.245 35.7745 213.077 40.92 203.163C42.426 200.24 44.183 197.317 46.3165 194.775C48.5755 191.979 51.0855 192.868 51.8385 196.427C52.0895 197.444 52.0895 198.588 52.0895 199.732C53.219 213.967 55.1015 228.075 61.8786 240.912C63.3846 243.836 64.7651 246.886 65.8946 250.064C66.2711 251.207 66.2711 253.368 65.5181 254.004C63.7611 255.529 62.2551 254.131 61.3766 252.478C60.4981 250.699 59.8705 248.793 58.992 247.013C58.3645 244.725 57.235 242.438 55.729 238.879ZM81.5821 148.002C95.7637 161.093 122.997 167.321 138.81 159.949C135.673 158.678 132.912 157.407 130.025 156.263C129.774 152.832 131.029 151.815 134.292 152.705C140.818 154.738 147.344 156.645 153.87 158.297C156.38 158.932 159.016 158.932 161.526 158.551C173.323 156.899 184.994 155.501 197.043 156.263C211.099 157.026 225.155 157.407 239.211 157.661C243.729 157.661 248.372 156.645 252.89 155.882C255.651 155.501 257.91 153.976 258.287 150.925C258.789 148.002 257.785 145.333 255.275 144.062C252.639 142.664 249.627 141.266 246.741 141.011C226.159 138.978 205.702 136.309 184.994 136.69C170.687 136.944 156.38 136.181 142.199 137.834C122.244 140.122 102.415 144.443 81.5821 148.002ZM151.862 285.397C148.976 285.397 147.093 285.397 145.085 285.397C134.292 285.779 123.625 286.414 112.832 286.287C101.411 286.287 89.9906 287.05 78.6956 283.999C76.0601 283.237 73.2991 282.855 70.6636 282.347C71.2911 284.254 72.2951 285.525 73.5501 286.287C93.6302 298.997 115.216 307.259 138.81 309.928C143.579 310.436 148.725 311.961 154.121 309.674C153.368 301.539 152.615 293.659 151.862 285.397ZM157.761 292.769C158.137 297.853 158.263 302.048 158.765 306.242C159.267 310.563 160.145 311.199 164.287 310.818C189.136 308.911 212.605 302.175 233.94 289.083C235.069 288.321 235.948 287.177 237.077 286.16C223.649 286.796 210.597 288.448 197.67 290.354C184.743 292.388 171.691 293.278 157.761 292.769ZM46.693 263.663C48.5755 243.2 54.3485 224.262 46.693 204.943C45.8145 206.087 44.936 206.976 44.434 208.12C41.171 214.221 37.908 220.195 34.896 226.423C27.9934 240.277 27.9934 240.404 37.5315 252.733C40.0415 256.164 42.928 259.342 46.693 263.663ZM73.5501 147.239C67.6516 140.63 61.6276 141.138 55.6035 148.764C57.486 150.925 59.3685 153.213 61.1255 155.374C65.5181 152.45 69.2831 150.035 73.5501 147.239ZM111.326 133.639C103.796 134.529 97.0187 135.292 89.7396 136.181C89.8651 137.834 89.8652 139.486 90.1161 142.155C97.2697 140.503 103.796 139.232 110.322 137.58C112.455 136.944 112.706 135.292 111.326 133.639ZM153.996 215.238C154.372 215.238 154.749 215.238 155.125 215.238C155.878 210.408 156.631 205.451 157.384 200.367C152.364 200.749 152.239 200.876 152.49 204.053C152.741 207.866 153.494 211.552 153.996 215.238Z" fill="#BDFC4C"/>
</svg>
