<svg width="187" height="39" viewBox="0 0 187 39" fill="none" xmlns="http://www.w3.org/2000/svg">
<path d="M8.66213 11.2109H0V14.7777H8.66213V11.2109Z" fill="#BDFC4C"/>
<path d="M22.4198 11.209H13.7577V14.7757H22.4198V11.209Z" fill="#BDFC4C"/>
<path d="M13.2479 14.7764H9.17163V33.6292H13.2479V14.7764Z" fill="#BDFC4C"/>
<path d="M42.5386 34V23.3104C42.5386 18.1422 39.5532 16.6655 35.4122 16.6655C31.9453 16.6655 30.1798 17.9817 29.3452 19.8756H29.1847V11.5294H25.172V34H29.1847V24.8192C29.1847 21.1597 31.0786 20.1003 34.1603 20.1003C36.6962 20.1003 38.5581 20.7102 38.5581 24.1129V34H42.5386ZM63.7758 29.0886H59.7311C58.9928 30.6936 57.5162 31.143 54.6913 31.143C51.417 31.143 49.4909 30.4368 49.3625 26.3921H63.9363V24.9476C63.9363 18.72 60.6299 16.6655 54.916 16.6655H54.4024C48.6884 16.6655 45.3499 18.8163 45.3499 25.0439V25.9427C45.3499 32.1703 48.6884 34.321 54.4024 34.321H54.9802C60.3089 34.321 62.877 32.4913 63.7758 29.0886ZM54.6592 19.5867C57.8051 19.5867 59.9558 20.4855 59.9558 23.5672V23.6956H49.3946C49.6835 20.1966 51.6096 19.5867 54.6592 19.5867ZM96.6589 34.321C104.877 34.321 108.504 31.1751 108.504 24.1129V21.1918H94.9254V24.8834H104.138C104.042 28.8318 102.212 30.5331 96.3379 30.5331H95.1501C88.6337 30.5331 87.2533 28.2218 87.2533 23.4067V22.1227C87.2533 17.2755 88.6337 14.9642 95.1501 14.9642H96.2737C100.671 14.9642 102.726 15.863 103.528 17.9496H108.247C107.092 13.295 103.464 11.2084 96.6589 11.2084H94.7649C86.3224 11.2084 82.8234 14.3222 82.8234 21.6733V23.8561C82.8234 31.2072 86.3224 34.321 94.7649 34.321H96.6589ZM123.467 16.9866H122.247C118.876 16.9866 116.95 17.8533 116.18 19.8435H116.051V16.9866H112.039V34H116.051V25.0118C116.051 21.3523 118.074 20.4855 121.444 20.4855H123.467V16.9866ZM143.37 29.0886H139.325C138.587 30.6936 137.11 31.143 134.285 31.143C131.011 31.143 129.085 30.4368 128.956 26.3921H143.53V24.9476C143.53 18.72 140.224 16.6655 134.51 16.6655H133.996C128.282 16.6655 124.944 18.8163 124.944 25.0439V25.9427C124.944 32.1703 128.282 34.321 133.996 34.321H134.574C139.903 34.321 142.471 32.4913 143.37 29.0886ZM134.253 19.5867C137.399 19.5867 139.55 20.4855 139.55 23.5672V23.6956H128.988C129.277 20.1966 131.203 19.5867 134.253 19.5867ZM164.53 29.0886H160.485C159.747 30.6936 158.27 31.143 155.445 31.143C152.171 31.143 150.245 30.4368 150.117 26.3921H164.69V24.9476C164.69 18.72 161.384 16.6655 155.67 16.6655H155.156C149.442 16.6655 146.104 18.8163 146.104 25.0439V25.9427C146.104 32.1703 149.442 34.321 155.156 34.321H155.734C161.063 34.321 163.631 32.4913 164.53 29.0886ZM155.413 19.5867C158.559 19.5867 160.71 20.4855 160.71 23.5672V23.6956H150.149C150.438 20.1966 152.364 19.5867 155.413 19.5867ZM185.08 34V23.3104C185.08 18.1422 182.095 16.6655 177.954 16.6655C174.487 16.6655 172.721 17.9817 171.887 19.8756H171.726V16.9866H167.714V34H171.726V24.8192C171.726 21.1597 173.62 20.1003 176.702 20.1003C179.238 20.1003 181.1 20.7102 181.1 24.1129V34H185.08Z" fill="#BDFC4C"/>
</svg>
