<?xml version="1.0" encoding="UTF-8"?>
<svg viewBox="0 0 84 19" version="1.1" xmlns="http://www.w3.org/2000/svg" xmlns:xlink="http://www.w3.org/1999/xlink">
    <g id="Redesign---Set-#4" stroke="none" stroke-width="1" fill="none" fill-rule="evenodd">
        <g id="1-1-1-Log-In-First-Seen" transform="translate(-16.000000, -67.000000)">
            <g id="logo-/-1" transform="translate(16.000000, 67.000000)">
                <path d="M0,0 L84,0 L84,19 L0,19 L0,0 Z" id="logo-/-1-(Background)"></path>
                <path d="M67.3539382,0 L67.3539382,15.9057143 L70.8439201,15.9057143 C74.5812236,15.9057143 77.3017607,13.2185714 77.3017607,9.5 C77.3017607,5.78142857 74.5812236,3.06714286 70.8439201,3.06714286 L70.8439201,3.06714286 L69.9095942,3.06714286 L69.9095942,0 L70.8439201,0 C76.5048357,0 80.6268616,3.99 80.6268616,9.52714286 C80.6268616,15.01 76.5048357,19 70.8439201,19 L70.8439201,19 L63.973877,19 L63.973877,0 L67.3539382,0 Z M45.3424598,0 L59.082531,16.8828571 L59.082531,19 L56.389477,19 L45.3424598,5.66742865 L45.3424598,19 L41.9624023,19 L41.9624023,0 L45.3424598,0 Z M26.353816,0 L26.353816,7.84428571 L35.3673124,7.84428571 L35.3673124,10.8842857 L26.353816,10.8842857 L26.353816,15.9328571 L37.6481667,15.9328571 L37.6481667,19 L22.9737549,19 L22.9737549,0 L26.353816,0 Z M11.5966167,3.25708008 L11.5966167,18.9727955 L8.21655273,18.9727955 L8.21655273,3.25708008 L11.5966167,3.25708008 Z M59.1099396,0 L59.0824594,12.4314289 L55.7023926,12.4314289 L55.7023926,0 L59.1099396,0 Z M7.99672937,0 L7.99672937,3.0671432 L0,3.0671432 L0,0 L7.99672937,0 Z M19.7584457,0 L19.7584457,3.0671432 L11.7617188,3.0671432 L11.7617188,0 L19.7584457,0 Z M37.4280396,0 L37.4280396,3.0671432 L28.6618652,3.0671432 L28.6618652,0 L37.4280396,0 Z" id="r4" fill="#FFFFFF"></path>
            </g>
        </g>
    </g>
</svg>
