<svg height='100px' width='100px'  fill="#f6f6f1" xmlns="http://www.w3.org/2000/svg" xmlns:xlink="http://www.w3.org/1999/xlink" viewBox="0 0 49 33" version="1.1" x="0px" y="0px"><title>svg/146-MEX--Mexico</title><desc>Created with Sketch.</desc><g stroke="none" stroke-width="1" fill="none" fill-rule="evenodd"><g transform="translate(-527.000000, -926.000000)"><g transform="translate(526.500000, 925.500000)" fill="#f6f6f1" fill-rule="nonzero"><path d="M49.5,0.5 L49.5,33.5 L0.5,33.5 L0.5,0.5 L49.5,0.5 Z M1.5,1.5 L1.5,32.5 L16.5,32.5 L16.5,1.5 L1.5,1.5 Z M17.5,1.5 L17.5,32.5 L32.5,32.5 L32.5,1.5 L17.5,1.5 Z M33.5,1.5 L33.5,32.5 L48.5,32.5 L48.5,1.5 L33.5,1.5 Z"></path><g transform="translate(18.000000, 10.000000)"><path d="M0,6 C0,9.86599325 3.13400675,13 7,13 C10.8659932,13 14,9.86599325 14,6 C14,5.72385763 13.7761424,5.5 13.5,5.5 C13.2238576,5.5 13,5.72385763 13,6 C13,9.3137085 10.3137085,12 7,12 C3.6862915,12 1,9.3137085 1,6 C1,5.72385763 0.776142375,5.5 0.5,5.5 C0.223857625,5.5 0,5.72385763 0,6 Z"></path><path d="M7,7.40249818 C6.73825333,7.20982033 6.60968462,8.04960323 5.69766053,7.65149334 C5.52846983,7.57763949 5.43587887,7.50418597 5.39304288,7.42781597 C5.229715,7.39495837 5.03873776,7.35934679 4.84040605,7.35934679 C4.75268986,7.35934679 4.6801035,7.34715018 4.62005366,7.32552486 C4.27260764,7.54813152 3.86119437,7.66604435 3.56521021,7.56109426 C3.31321462,7.47174165 3.20457388,7.32055771 3.10912724,7.03487193 C2.95746733,6.58093159 2.86737067,6.43179046 2.47950084,6.17208949 C2.16990306,5.96479613 2.1400015,5.74675994 2.2206179,5.32611489 C2.23802906,5.23526586 2.24484991,5.19244241 2.24799517,5.1468961 C2.26005976,4.97218907 2.1900398,4.86989688 1.87334426,4.7422466 C1.74528437,4.69062957 1.68331518,4.54497266 1.7349322,4.41691277 C1.78654923,4.28885287 1.93220614,4.22688369 2.06026603,4.27850071 C2.57067464,4.48423079 2.77439491,4.78184583 2.74680722,5.18134215 C2.74184053,5.25326472 2.73279371,5.31006353 2.71168096,5.42022687 C2.66557046,5.66082502 2.67072289,5.69839551 2.75768174,5.75661941 C3.25724869,6.09110797 3.39985226,6.3271662 3.58336019,6.87643233 C3.63488187,7.03064426 3.65865468,7.06372639 3.73230688,7.08984199 C3.87482546,7.14037624 4.12188562,7.04697167 4.34247765,6.90802754 C4.33069836,6.79912752 4.33562842,6.68865087 4.33562842,6.59969391 C4.33562842,6.49665812 4.34343329,6.36871415 4.38190848,6.24879468 C4.37224475,6.24698619 4.36050413,6.24477754 4.34416608,6.24170402 C3.91082235,6.15818895 3.6593272,6.02106302 3.53728714,5.67588664 C3.34564397,5.1338458 3.53704015,4.76191096 4.03977627,4.29545398 C4.05893824,4.27767481 4.17858934,4.16810676 4.2107412,4.13793762 C4.26883176,4.08342936 4.31167137,4.04046097 4.34660155,4.0010364 C4.42871216,3.90836081 4.45370193,3.85198624 4.44731601,3.81322646 C4.43083316,3.7131826 4.270339,3.65371812 3.88450877,3.64116929 C3.82668849,3.63928873 3.77992017,3.63852977 3.67401639,3.63737518 C3.10009405,3.63107533 2.97393473,3.61290661 2.86625464,3.37367707 C2.61706338,2.82005652 2.77132384,2.33039248 3.29594678,1.98688349 C3.41145911,1.91124913 3.56641411,1.94357661 3.64204847,2.05908893 C3.71768283,2.17460125 3.68535535,2.32955625 3.56984303,2.40519061 C3.24738294,2.6163288 3.17586377,2.84334983 3.32219627,3.16845226 C3.29797292,3.11463599 3.43764282,3.13475042 3.67950447,3.1374053 C3.76726338,3.13835391 3.81737841,3.13907945 3.86685672,3.14041988 C3.91138241,3.01721003 4.00866118,2.87614912 4.1744951,2.72349186 C4.24431138,2.3518628 5.13156054,0.563531064 7.15734608,2.46486076 C7.54939444,1.54177185 5.75098144,1.80889513 6.22060843,1.05572429 C6.8772019,0.193363828 10.3639056,1.56201848 10.9779627,2.54735721 C11.2440726,2.97436701 12.8613944,5.48048511 11.9445697,8.11213355 C10.9779627,6.00059201 8.38696361,5.01009891 8.40344539,5.0456601 C8.60838268,5.48783393 8.76835672,5.86630513 8.79228101,6.32346602 C8.8159701,6.77613262 11.3255109,7.68659637 11.21917,8.11213355 C11.1428782,8.41742497 9.61556185,8.59882009 8.79228101,8.18230652 C8.780858,8.22180935 8.75259488,8.25813837 8.71356872,8.29110939 C9.05027536,8.43817131 9.33888297,8.69045964 9.50061838,8.93216455 C10.389634,8.80145709 10.5570756,8.50346528 10.850948,8.97557888 C11.2442993,9.60750802 10.4607769,10.2651745 8.44884869,9.85933769 C8.36930593,9.85801264 8.21397408,9.89847689 8.06215957,10.003826 C8.30896884,10.0344309 8.5,10.2449066 8.5,10.5 L8.5,11 C8.5,11.2761424 8.27614237,11.5 8,11.5 L6,11.5 C5.72385763,11.5 5.5,11.2761424 5.5,11 L5.5,10.5 C5.5,10.2238576 5.72385763,10 6,10 L6.95643354,10 C6.9680645,9.93273227 6.98255714,9.86206493 7,9.78902322 C4.12820247,10.1907134 1.99491404,8.16372763 1.99491404,7.88758526 C1.99491404,7.61144288 2.16080128,6.96310172 2.76816902,7.39350524 C3.10952869,7.63540549 4.37621607,8.4643639 6.91392582,8.72410493 C7.04538281,8.52189162 7.30588683,8.3050685 7.70632688,8.21111209 C7.4373832,7.91500973 7.12768303,7.49648865 7,7.40249818 Z M4.94066496,3.73194415 C4.97653776,3.9496767 4.89284444,4.13848098 4.7208425,4.33261402 C4.67400133,4.38548213 4.62120981,4.43843235 4.55287331,4.50255471 C4.51802872,4.53525052 4.39693003,4.64614417 4.37985716,4.661985 C4.00854298,5.00650389 3.90327652,5.21106526 4.0086909,5.50921781 C4.05426471,5.63811813 4.16351954,5.69768855 4.43878614,5.7507386 C4.4915779,5.76067052 4.4915779,5.76067052 4.54644185,5.77057255 C4.70702,5.79967098 4.83395228,5.82898712 4.93506207,5.86854008 C5.22391672,5.8685003 5.46259811,6.18059356 5.62992178,6.52435395 C5.63728447,6.36385189 5.59007414,6.1821409 5.43416376,5.97253332 C4.57538043,4.8179759 5.68967403,3.55291182 5.54913953,2.9976503 C5.52777304,2.91322984 5.13365107,3.38912276 4.6699835,3.30569321 C4.81687204,3.39655823 4.90780599,3.53250418 4.94066496,3.73194415 Z M6.40205706,6.72695488 C6.49007337,6.67378898 6.59189007,6.62669884 6.70109718,6.59993299 C6.9743721,6.53295534 7.25142588,6.59419973 7.47425908,6.75823246 C7.58481322,6.83961395 7.67294212,6.93278226 7.80952007,7.09320475 C7.86947261,7.16362414 8.09364923,7.43528611 8.09544415,7.43744109 C8.12665929,7.4748335 8.13055213,7.47949671 8.1545276,7.5078824 L8.28987975,7.03980993 C8.10644157,6.85351511 8.00835936,6.65162037 7.99337423,6.36527466 C7.97943031,6.09882501 7.90322932,5.86885464 7.67761411,5.38206602 C7.55190942,4.94593816 7.55190942,4.94593816 7.89872057,4.42439965 C8.22581859,4.24931494 8.22581859,4.24931494 8.36118665,4.24592203 C8.51616421,4.24978399 8.51616421,4.24978399 8.56730604,4.26107187 C8.63651714,4.27733203 8.63651714,4.27733203 8.67211983,4.28859683 C8.73630986,4.31014982 8.73630986,4.31014982 8.80238193,4.33547049 C8.90223787,4.37448853 9.02391929,4.42728382 9.15571736,4.4895772 C9.50199477,4.65324267 9.87567861,4.86102812 10.2467628,5.10653465 C10.6703807,5.38679703 11.0611978,5.69480121 11.4094552,6.03162146 C11.3536234,5.35661978 11.1581202,4.67212507 10.8528102,3.99314521 C10.671187,3.58923282 10.5357677,3.35037883 10.2990135,2.97047419 C10.1269234,2.69433211 9.27407932,2.18402218 8.35301002,1.86445588 C8.19694263,1.81030808 8.04667288,1.76510497 7.90582033,1.72698242 C8.05346504,2.04422043 8.04886406,2.4122252 7.89368672,2.7775946 L7.44561635,3.83258894 L6.60986289,3.04818071 C6.51495723,2.95910565 6.42570154,2.88065585 6.34170535,2.81197377 C6.51495723,3.83258894 5.91099585,3.99314521 5.91099585,5.10653465 C5.91099585,5.60822089 6.49467533,5.60822089 6.40205706,6.72695488 Z"></path></g></g></g></g></svg>