<svg height='100px' width='100px'  fill="#f6f6f1" xmlns="http://www.w3.org/2000/svg" xmlns:xlink="http://www.w3.org/1999/xlink" viewBox="0 0 49 33" version="1.1" x="0px" y="0px"><title>svg/241-USA--United States of America</title><desc>Created with Sketch.</desc><g stroke="none" stroke-width="1" fill="none" fill-rule="evenodd"><g transform="translate(-47.000000, -1566.000000)"><g transform="translate(46.500000, 1565.500000)" fill="#f6f6f1" fill-rule="nonzero"><path d="M0.5,0.5 L49.5,0.5 L49.5,33.5 L0.5,33.5 L0.5,0.5 Z M1.5,1.5 L1.5,32.5 L48.5,32.5 L48.5,1.5 L1.5,1.5 Z"></path><path d="M25.5,2 L48.5,2 L48.5,1.5 L25.5,1.5 L25.5,2 Z M24.5,0.5 L49.5,0.5 L49.5,3 L24.5,3 L24.5,0.5 Z"></path><path d="M25.5,12.1666667 L48.5,12.1666667 L48.5,11.6666667 L25.5,11.6666667 L25.5,12.1666667 Z M24.5,10.6666667 L49.5,10.6666667 L49.5,13.1666667 L24.5,13.1666667 L24.5,10.6666667 Z"></path><path d="M1.5,22.3333333 L48.5,22.3333333 L48.5,21.8333333 L1.5,21.8333333 L1.5,22.3333333 Z M0.5,20.8333333 L49.5,20.8333333 L49.5,23.3333333 L0.5,23.3333333 L0.5,20.8333333 Z"></path><path d="M25.5,7.08333333 L48.5,7.08333333 L48.5,6.58333333 L25.5,6.58333333 L25.5,7.08333333 Z M24.5,5.58333333 L49.5,5.58333333 L49.5,8.08333333 L24.5,8.08333333 L24.5,5.58333333 Z"></path><path d="M25.5,17.25 L48.5,17.25 L48.5,16.75 L25.5,16.75 L25.5,17.25 Z M24.5,15.75 L49.5,15.75 L49.5,18.25 L24.5,18.25 L24.5,15.75 Z"></path><path d="M1.5,27.4166667 L48.5,27.4166667 L48.5,26.9166667 L1.5,26.9166667 L1.5,27.4166667 Z M0.5,25.9166667 L49.5,25.9166667 L49.5,28.4166667 L0.5,28.4166667 L0.5,25.9166667 Z"></path><path d="M1.5,32 L1.5,32.5 L48.5,32.5 L48.5,32 L1.5,32 Z M0.5,31 L49.5,31 L49.5,33.5 L0.5,33.5 L0.5,31 Z"></path><path d="M0.5,0.5 L25.5,0.5 L25.5,18.25 L0.5,18.25 L0.5,0.5 Z M1.5,1.5 L1.5,17.25 L24.5,17.25 L24.5,1.5 L1.5,1.5 Z"></path><g transform="translate(2.000000, 2.500000)"><polygon points="1 1.5 0.412214748 1.80901699 0.524471742 1.1545085 0.0489434837 0.690983006 0.706107374 0.595491503 1 0 1.29389263 0.595491503 1.95105652 0.690983006 1.47552826 1.1545085 1.58778525 1.80901699"></polygon><polygon points="5 1.5 4.41221475 1.80901699 4.52447174 1.1545085 4.04894348 0.690983006 4.70610737 0.595491503 5 0 5.29389263 0.595491503 5.95105652 0.690983006 5.47552826 1.1545085 5.58778525 1.80901699"></polygon><polygon points="9 1.5 8.41221475 1.80901699 8.52447174 1.1545085 8.04894348 0.690983006 8.70610737 0.595491503 9 0 9.29389263 0.595491503 9.95105652 0.690983006 9.47552826 1.1545085 9.58778525 1.80901699"></polygon><polygon points="13 1.5 12.4122147 1.80901699 12.5244717 1.1545085 12.0489435 0.690983006 12.7061074 0.595491503 13 0 13.2938926 0.595491503 13.9510565 0.690983006 13.4755283 1.1545085 13.5877853 1.80901699"></polygon><polygon points="17 1.5 16.4122147 1.80901699 16.5244717 1.1545085 16.0489435 0.690983006 16.7061074 0.595491503 17 0 17.2938926 0.595491503 17.9510565 0.690983006 17.4755283 1.1545085 17.5877853 1.80901699"></polygon><polygon points="19 4.5 18.4122147 4.80901699 18.5244717 4.1545085 18.0489435 3.69098301 18.7061074 3.5954915 19 3 19.2938926 3.5954915 19.9510565 3.69098301 19.4755283 4.1545085 19.5877853 4.80901699"></polygon><polygon points="3 4.5 2.41221475 4.80901699 2.52447174 4.1545085 2.04894348 3.69098301 2.70610737 3.5954915 3 3 3.29389263 3.5954915 3.95105652 3.69098301 3.47552826 4.1545085 3.58778525 4.80901699"></polygon><polygon points="7 4.5 6.41221475 4.80901699 6.52447174 4.1545085 6.04894348 3.69098301 6.70610737 3.5954915 7 3 7.29389263 3.5954915 7.95105652 3.69098301 7.47552826 4.1545085 7.58778525 4.80901699"></polygon><polygon points="11 4.5 10.4122147 4.80901699 10.5244717 4.1545085 10.0489435 3.69098301 10.7061074 3.5954915 11 3 11.2938926 3.5954915 11.9510565 3.69098301 11.4755283 4.1545085 11.5877853 4.80901699"></polygon><polygon points="15 4.5 14.4122147 4.80901699 14.5244717 4.1545085 14.0489435 3.69098301 14.7061074 3.5954915 15 3 15.2938926 3.5954915 15.9510565 3.69098301 15.4755283 4.1545085 15.5877853 4.80901699"></polygon><polygon points="21 1.5 20.4122147 1.80901699 20.5244717 1.1545085 20.0489435 0.690983006 20.7061074 0.595491503 21 0 21.2938926 0.595491503 21.9510565 0.690983006 21.4755283 1.1545085 21.5877853 1.80901699"></polygon><polygon points="1 7.5 0.412214748 7.80901699 0.524471742 7.1545085 0.0489434837 6.69098301 0.706107374 6.5954915 1 6 1.29389263 6.5954915 1.95105652 6.69098301 1.47552826 7.1545085 1.58778525 7.80901699"></polygon><polygon points="5 7.5 4.41221475 7.80901699 4.52447174 7.1545085 4.04894348 6.69098301 4.70610737 6.5954915 5 6 5.29389263 6.5954915 5.95105652 6.69098301 5.47552826 7.1545085 5.58778525 7.80901699"></polygon><polygon points="9 7.5 8.41221475 7.80901699 8.52447174 7.1545085 8.04894348 6.69098301 8.70610737 6.5954915 9 6 9.29389263 6.5954915 9.95105652 6.69098301 9.47552826 7.1545085 9.58778525 7.80901699"></polygon><polygon points="13 7.5 12.4122147 7.80901699 12.5244717 7.1545085 12.0489435 6.69098301 12.7061074 6.5954915 13 6 13.2938926 6.5954915 13.9510565 6.69098301 13.4755283 7.1545085 13.5877853 7.80901699"></polygon><polygon points="17 7.5 16.4122147 7.80901699 16.5244717 7.1545085 16.0489435 6.69098301 16.7061074 6.5954915 17 6 17.2938926 6.5954915 17.9510565 6.69098301 17.4755283 7.1545085 17.5877853 7.80901699"></polygon><polygon points="19 10.5 18.4122147 10.809017 18.5244717 10.1545085 18.0489435 9.69098301 18.7061074 9.5954915 19 9 19.2938926 9.5954915 19.9510565 9.69098301 19.4755283 10.1545085 19.5877853 10.809017"></polygon><polygon points="3 10.5 2.41221475 10.809017 2.52447174 10.1545085 2.04894348 9.69098301 2.70610737 9.5954915 3 9 3.29389263 9.5954915 3.95105652 9.69098301 3.47552826 10.1545085 3.58778525 10.809017"></polygon><polygon points="7 10.5 6.41221475 10.809017 6.52447174 10.1545085 6.04894348 9.69098301 6.70610737 9.5954915 7 9 7.29389263 9.5954915 7.95105652 9.69098301 7.47552826 10.1545085 7.58778525 10.809017"></polygon><polygon points="11 10.5 10.4122147 10.809017 10.5244717 10.1545085 10.0489435 9.69098301 10.7061074 9.5954915 11 9 11.2938926 9.5954915 11.9510565 9.69098301 11.4755283 10.1545085 11.5877853 10.809017"></polygon><polygon points="15 10.5 14.4122147 10.809017 14.5244717 10.1545085 14.0489435 9.69098301 14.7061074 9.5954915 15 9 15.2938926 9.5954915 15.9510565 9.69098301 15.4755283 10.1545085 15.5877853 10.809017"></polygon><polygon points="21 7.5 20.4122147 7.80901699 20.5244717 7.1545085 20.0489435 6.69098301 20.7061074 6.5954915 21 6 21.2938926 6.5954915 21.9510565 6.69098301 21.4755283 7.1545085 21.5877853 7.80901699"></polygon><polygon points="1 13.5 0.412214748 13.809017 0.524471742 13.1545085 0.0489434837 12.690983 0.706107374 12.5954915 1 12 1.29389263 12.5954915 1.95105652 12.690983 1.47552826 13.1545085 1.58778525 13.809017"></polygon><polygon points="5 13.5 4.41221475 13.809017 4.52447174 13.1545085 4.04894348 12.690983 4.70610737 12.5954915 5 12 5.29389263 12.5954915 5.95105652 12.690983 5.47552826 13.1545085 5.58778525 13.809017"></polygon><polygon points="9 13.5 8.41221475 13.809017 8.52447174 13.1545085 8.04894348 12.690983 8.70610737 12.5954915 9 12 9.29389263 12.5954915 9.95105652 12.690983 9.47552826 13.1545085 9.58778525 13.809017"></polygon><polygon points="13 13.5 12.4122147 13.809017 12.5244717 13.1545085 12.0489435 12.690983 12.7061074 12.5954915 13 12 13.2938926 12.5954915 13.9510565 12.690983 13.4755283 13.1545085 13.5877853 13.809017"></polygon><polygon points="17 13.5 16.4122147 13.809017 16.5244717 13.1545085 16.0489435 12.690983 16.7061074 12.5954915 17 12 17.2938926 12.5954915 17.9510565 12.690983 17.4755283 13.1545085 17.5877853 13.809017"></polygon><polygon points="21 13.5 20.4122147 13.809017 20.5244717 13.1545085 20.0489435 12.690983 20.7061074 12.5954915 21 12 21.2938926 12.5954915 21.9510565 12.690983 21.4755283 13.1545085 21.5877853 13.809017"></polygon></g></g></g></g></svg>