<?xml version="1.0" encoding="UTF-8"?>
<svg width="24px" height="24px" viewBox="0 0 24 24" version="1.1" xmlns="http://www.w3.org/2000/svg" xmlns:xlink="http://www.w3.org/1999/xlink">
    <!-- Generator: Sketch 57.1 (83088) - https://sketch.com -->
    <title>Icon-Auto</title>
    <desc>Created with Sketch.</desc>
    <g id="Design" stroke="none" stroke-width="1" fill="none" fill-rule="evenodd">
        <g id="Icons-/-Money-/-24x24-Note">
            <rect id="Rectangle" x="0" y="0" width="24" height="24"></rect>
            <path d="M3.10557281,10.4472136 L5.40371521,9.2981424 C5.79077001,9.10461499 6.10461499,8.79077001 6.2981424,8.40371521 L7.4472136,6.10557281 C7.78599762,5.42800475 8.47852386,5 9.23606798,5 L15.4384472,5 C16.3561825,5 17.1561487,5.62459475 17.3787322,6.51492875 L17.7768988,8.10759517 C17.9185032,8.67401265 18.3005455,9.15027274 18.8227566,9.4113783 L20.8944272,10.4472136 C21.5719952,10.7859976 22,11.4785239 22,12.236068 L22,14 C22,15.1045695 21.1045695,16 20,16 L4,16 C2.8954305,16 2,15.1045695 2,14 L2,12.236068 C2,11.4785239 2.42800475,10.7859976 3.10557281,10.4472136 Z" id="Rectangle" stroke="#FFC73D" stroke-width="2" stroke-linejoin="round"></path>
            <circle id="Oval" stroke="#FFC73D" stroke-width="2" fill="#EAECF7" cx="7" cy="16" r="2"></circle>
            <circle id="Oval" stroke="#FFC73D" stroke-width="2" fill="#EAECF7" cx="17" cy="16" r="2"></circle>
        </g>
    </g>
</svg>