<?xml version="1.0" encoding="UTF-8"?>
<svg width="22px" height="16px" viewBox="0 0 22 16" version="1.1" xmlns="http://www.w3.org/2000/svg" xmlns:xlink="http://www.w3.org/1999/xlink">
    <!-- Generator: sketchtool 57.1 (101010) - https://sketch.com -->
    <title>9A2A27B2-D06F-469B-97EA-347482E58224</title>
    <desc>Created with sketchtool.</desc>
    <g id="Design" stroke="none" stroke-width="1" fill="none" fill-rule="evenodd">
        <g id="3-7-11B-Move-Between-Meed-Accounts-(Confirmation)" transform="translate(-29.000000, -273.000000)">
            <g id="Components-/-List-View-/-List-Item-(Contact)-Copy-2" transform="translate(0.000000, 246.000000)">
                <g id="Icons-/-Checking-Account-/-24x24-Checking-Account-Copy-Icons-/-24x24px-/-Checking" transform="translate(28.000000, 23.000000)">
                    <rect id="Container" fill-rule="nonzero" x="0" y="0" width="24" height="24"></rect>
                    <circle id="Oval" stroke="#0CDA91" stroke-width="2" cx="13.5" cy="13.5" r="2.5"></circle>
                    <rect id="Rectangle" stroke="#0CDA91" stroke-width="2" stroke-linecap="round" stroke-linejoin="round" x="5" y="8" width="17" height="11" rx="1"></rect>
                    <path d="M18,5 C18.5522847,5 19,5.44771525 19,6 L19,8 L6,8 C5.48716416,8 5.06449284,8.38604019 5.00672773,8.88337887 L5,9 L5,16 L3,16 C2.44771525,16 2,15.5522847 2,15 L2,6 C2,5.44771525 2.44771525,5 3,5 L18,5 Z" id="Combined-Shape" stroke="#0CDA91" stroke-width="2" stroke-linecap="round" stroke-linejoin="round"></path>
                </g>
            </g>
        </g>
    </g>
</svg>