<?xml version="1.0" encoding="UTF-8"?>
<svg width="265px" height="265px" viewBox="0 0 265 265" version="1.1" xmlns="http://www.w3.org/2000/svg" xmlns:xlink="http://www.w3.org/1999/xlink">
    <!-- Generator: sketchtool 56.3 (101010) - https://sketch.com -->
    <title>B5F97CF6-7482-46C8-911B-D16AE1AECCC1</title>
    <desc>Created with sketchtool.</desc>
    <defs>
        <linearGradient x1="100%" y1="29.4848873%" x2="0%" y2="70.5151127%" id="linearGradient-1">
            <stop stop-color="#000000" stop-opacity="0.8" offset="0%"></stop>
            <stop stop-color="#000000" stop-opacity="0" offset="100%"></stop>
        </linearGradient>
        <linearGradient x1="100%" y1="29.3688196%" x2="0%" y2="70.6311804%" id="linearGradient-2">
            <stop stop-color="#000000" stop-opacity="0.8" offset="0%"></stop>
            <stop stop-color="#000000" stop-opacity="0" offset="100%"></stop>
        </linearGradient>
        <linearGradient x1="100%" y1="29.0252341%" x2="0%" y2="70.9747659%" id="linearGradient-3">
            <stop stop-color="#000000" stop-opacity="0.8" offset="0%"></stop>
            <stop stop-color="#000000" stop-opacity="0" offset="100%"></stop>
        </linearGradient>
        <linearGradient x1="100%" y1="29.4848873%" x2="0%" y2="70.5151127%" id="linearGradient-4">
            <stop stop-color="#000000" stop-opacity="0.8" offset="0%"></stop>
            <stop stop-color="#000000" stop-opacity="0" offset="100%"></stop>
        </linearGradient>
    </defs>
    <g id="02-Design" stroke="none" stroke-width="1" fill="none" fill-rule="evenodd">
        <g id="3-2-1-Direct-Deposit-(First-Seen---Step-2)-v2-" transform="translate(-55.000000, -100.000000)">
            <g id="Illustration-/-260x260px-Direct-Deposit" transform="translate(55.000000, 100.000000)">
                <g id="Group-2" transform="translate(32.000000, 55.000000)">
                    <path d="M185.970738,50.8789428 C197.83891,82.3236764 186.691306,126.126233 160.53894,143.81654 C134.344188,161.506848 93.1870616,153.084907 62.5841313,130.739255 C32.0235874,108.393604 12.059626,72.1242406 20.7912099,44.9116381 C29.5651802,17.7413569 67.0770823,-0.456806544 103.190235,0.00872786942 C139.345775,0.431940972 174.144952,19.4765306 185.970738,50.8789428 Z" id="blob3-copy" fill="#E6FFF6" transform="translate(104.718919, 76.672956) scale(-1, -1) translate(-104.718919, -76.672956) "></path>
                    <g id="Group" transform="translate(133.717534, 57.167396) rotate(-20.000000) translate(-133.717534, -57.167396) translate(78.717534, 21.667396)">
                        <path d="M3,15.1763665 C42.0524259,15.1763665 77.0073808,11.1175777 107.864865,3 C107.864865,3 107.864865,55.9431303 107.864865,55.9431303 C76.9969508,64.060708 42.0419958,68.1194969 3,68.1194969 L3,15.1763665 Z" id="Path-8" stroke="#0CDA91" stroke-width="4.03846154" fill="#3EF0B0"></path>
                        <ellipse id="Oval" fill="#0CDA91" cx="53.8594595" cy="38.1855346" rx="14.1567568" ry="18.3805031"></ellipse>
                        <path d="M3,25.8422023 L3,15.1763665 C6.38774575,15.1763665 9.74465667,15.1458228 13.0707328,15.0847353 C13.3405529,15.9090977 13.4864865,16.7896807 13.4864865,17.7044025 C13.4864865,22.3449838 9.73051855,26.1069182 5.0972973,26.1069182 C4.37310144,26.1069182 3.670338,26.0150094 3,25.8422023 Z" id="Combined-Shape" fill="#0CDA91"></path>
                        <path d="M3,56.8307537 C3.670338,56.6579466 4.37310144,56.5660377 5.0972973,56.5660377 C9.73051855,56.5660377 13.4864865,60.3279722 13.4864865,64.9685535 C13.4864865,66.0490376 13.2828695,67.0818889 12.9119716,68.0307137 C9.63778146,68.0899025 6.33379091,68.1194969 3,68.1194969 L3,56.8307537 Z" id="Oval-Copy-2" fill="#0CDA91"></path>
                        <path d="M95.2810811,5.7110153 C95.2810811,13.4157395 99.4756757,16.6199917 107.864865,15.323772 C107.864865,15.323772 107.864865,11.215848 107.864865,3 L95.2810811,5.7110153 Z" id="Path-12" fill="#0CDA91"></path>
                        <path d="M95.2784973,48.7680657 C95.2815522,56.4719713 99.4778637,59.677549 107.867432,58.3847986 C107.867432,58.3847986 107.865803,54.2773111 107.862545,46.0623359 L95.2784973,48.7680657 Z" id="Path-12-Copy" fill="#0CDA91" transform="translate(101.572964, 52.362886) scale(1, -1) rotate(-345.000000) translate(-101.572964, -52.362886) "></path>
                        <path d="M0.980769231,13.1571358 L3,13.1571358 C41.886894,13.1571358 76.6706712,9.11822319 107.351151,1.04720953 L109.884096,0.380875958 L109.884096,57.5000033 L108.378417,57.8959635 C77.3335804,66.0600678 42.2074935,70.1387276 3,70.1387276 L0.980769231,70.1387276 L0.980769231,13.1571358 Z" id="Path-8-Copy-3" fill="url(#linearGradient-1)" fill-rule="nonzero" style="mix-blend-mode: soft-light;"></path>
                    </g>
                    <g id="Group-Copy-6" transform="translate(134.094002, 146.567798) rotate(-20.000000) translate(-134.094002, -146.567798) translate(112.094002, 131.567798)">
                        <path d="M1,6.90982521 C16.6975437,6.90982521 30.7480648,5.27321681 43.1515633,2 C43.1515633,2 43.1515633,23.3480364 43.1515633,23.3480364 C30.7438724,26.6212532 16.6933513,28.2578616 1,28.2578616 L1,6.90982521 Z" id="Path-8" stroke="#0CDA91" stroke-width="1.61538462" fill="#3EF0B0"></path>
                        <ellipse id="Oval" fill="#0CDA91" cx="21.4435082" cy="16.1877156" rx="5.69046105" ry="7.4114932"></ellipse>
                        <path d="M1,11.2105654 L1,6.90982521 C2.36174094,6.90982521 3.71108748,6.89750919 5.04803964,6.87287716 C5.15649677,7.20528132 5.21515633,7.56035513 5.21515633,7.92919456 C5.21515633,9.8003967 3.70540452,11.3173057 1.84303127,11.3173057 C1.55193293,11.3173057 1.26944959,11.2802457 1,11.2105654 Z" id="Combined-Shape" fill="#0CDA91"></path>
                        <path d="M1,23.7059491 C1.26944959,23.6362688 1.55193293,23.5992088 1.84303127,23.5992088 C3.70540452,23.5992088 5.21515633,25.1161178 5.21515633,26.9873199 C5.21515633,27.422999 5.13331031,27.8394713 4.98422389,28.222062 C3.66812784,28.2459284 2.34005321,28.2578616 1,28.2578616 L1,23.7059491 Z" id="Oval-Copy-2" fill="#0CDA91"></path>
                        <path d="M38.0933757,3.09315133 C38.0933757,6.19989495 39.7794383,7.49193214 43.1515633,6.96926292 C43.1515633,6.96926292 43.1515633,5.31284195 43.1515633,2 L38.0933757,3.09315133 Z" id="Path-12" fill="#0CDA91"></path>
                        <path d="M38.0902759,20.4502093 C38.0939405,23.555971 39.7820625,24.8495981 43.1546419,24.3310906 C43.1546419,24.3310906 43.1526881,22.6751931 43.1487803,19.3633983 L38.0902759,20.4502093 Z" id="Path-12-Copy" fill="#0CDA91" transform="translate(40.622459, 21.902880) scale(1, -1) rotate(-345.000000) translate(-40.622459, -21.902880) "></path>
                        <path d="M0.192307692,6.10213291 L1,6.10213291 C16.6311287,6.10213291 30.6129718,4.47352414 42.945473,1.21904313 L43.9592556,0.951511318 L43.9592556,23.9702874 L43.3575886,24.1290105 C30.8789333,27.420948 16.7597526,29.0655539 1,29.0655539 L0.192307692,29.0655539 L0.192307692,6.10213291 Z" id="Path-8-Copy-6" fill="url(#linearGradient-2)" fill-rule="nonzero" style="mix-blend-mode: soft-light;"></path>
                    </g>
                    <g id="Group-Copy-5" transform="translate(34.368355, 124.074007) rotate(-20.000000) translate(-34.368355, -124.074007) translate(19.868355, 114.574007)">
                        <path d="M1,4.14228814 C10.9545399,4.14228814 19.8646265,3.09485876 27.7302597,1 C27.7302597,1 27.7302597,14.6627433 27.7302597,14.6627433 C19.8619679,16.7576021 10.9518813,17.8050314 1,17.8050314 L1,4.14228814 Z" id="Path-8" stroke="#0CDA91" stroke-width="1.00961538" fill="#3EF0B0"></path>
                        <ellipse id="Oval" fill="#0CDA91" cx="13.9641759" cy="10.080138" rx="3.60858506" ry="4.74335565"></ellipse>
                        <path d="M1,6.89476187 L1,4.14228814 C1.86354303,4.14228814 2.71922621,4.13440588 3.56704953,4.11864138 C3.63582722,4.33138004 3.67302597,4.55862728 3.67302597,4.79468452 C3.67302597,5.99225389 2.71562238,6.96307567 1.53460519,6.96307567 C1.35000625,6.96307567 1.17087047,6.93935727 1,6.89476187 Z" id="Combined-Shape" fill="#0CDA91"></path>
                        <path d="M1,14.8918074 C1.17087047,14.847212 1.35000625,14.8234936 1.53460519,14.8234936 C2.71562238,14.8234936 3.67302597,15.7943154 3.67302597,16.9918848 C3.67302597,17.2707194 3.62112361,17.5372617 3.526581,17.7821197 C2.69198351,17.7973942 1.84978984,17.8050314 1,17.8050314 L1,14.8918074 Z" id="Oval-Copy-2" fill="#0CDA91"></path>
                        <path d="M24.5226285,1.69961685 C24.5226285,3.68793277 25.5918389,4.51483657 27.7302597,4.18032827 C27.7302597,4.18032827 27.7302597,3.12021885 27.7302597,1 L24.5226285,1.69961685 Z" id="Path-12" fill="#0CDA91"></path>
                        <path d="M24.5168147,12.7994586 C24.5236851,14.7859336 25.5967565,15.6158181 27.7360291,15.2891121 C27.7360291,15.2891121 27.732366,14.2299842 27.7250399,12.1117284 L24.5168147,12.7994586 Z" id="Path-12-Copy" fill="#0CDA91" transform="translate(26.126422, 13.735027) scale(1, -1) rotate(-345.000000) translate(-26.126422, -13.735027) "></path>
                        <path d="M0.495192308,3.63748044 L1,3.63748044 C10.9126587,3.63748044 19.7794413,2.59514169 27.6003426,0.51219638 L28.2350674,0.343149768 L28.2350674,15.0507358 L27.8601357,15.1505578 C19.9471328,17.2573205 10.9937539,18.3098391 1,18.3098391 L0.495192308,18.3098391 L0.495192308,3.63748044 Z" id="Path-8-Copy-5" fill="url(#linearGradient-3)" fill-rule="nonzero" style="mix-blend-mode: soft-light;"></path>
                    </g>
                    <g id="Group-Copy-4" transform="translate(33.143532, 44.628649) rotate(-20.000000) translate(-33.143532, -44.628649) translate(5.143532, 26.628649)">
                        <path d="M2,8.08818327 C21.5262129,8.08818327 39.0036904,6.05878884 54.4324324,2 C54.4324324,2 54.4324324,28.4715652 54.4324324,28.4715652 C38.9984754,32.530354 21.5209979,34.5597484 2,34.5597484 L2,8.08818327 Z" id="Path-8" stroke="#0CDA91" stroke-width="2.01923077" fill="#3EF0B0"></path>
                        <ellipse id="Oval" fill="#0CDA91" cx="27.4297297" cy="19.5927673" rx="7.07837838" ry="9.19025157"></ellipse>
                        <path d="M2,13.4211011 L2,8.08818327 C3.69387287,8.08818327 5.37232833,8.0729114 7.03536638,8.04236767 C7.17027647,8.45454883 7.24324324,8.89484036 7.24324324,9.35220126 C7.24324324,11.6724919 5.36525927,13.5534591 3.04864865,13.5534591 C2.68655072,13.5534591 2.335169,13.5075047 2,13.4211011 Z" id="Combined-Shape" fill="#0CDA91"></path>
                        <path d="M2,28.9153769 C2.335169,28.8289733 2.68655072,28.7830189 3.04864865,28.7830189 C5.36525927,28.7830189 7.24324324,30.6639861 7.24324324,32.9842767 C7.24324324,33.5245188 7.14143477,34.0409445 6.95598581,34.5153569 C5.31889073,34.5449512 3.66689546,34.5597484 2,34.5597484 L2,28.9153769 Z" id="Oval-Copy-2" fill="#0CDA91"></path>
                        <path d="M48.1405405,3.35550765 C48.1405405,7.20786974 50.2378378,8.80999586 54.4324324,8.16188602 C54.4324324,8.16188602 54.4324324,6.10792401 54.4324324,2 L48.1405405,3.35550765 Z" id="Path-12" fill="#0CDA91"></path>
                        <path d="M48.1392486,24.8840329 C48.1407761,28.7359857 50.2389318,30.3387745 54.4337158,29.6923993 C54.4337158,29.6923993 54.4329014,27.6386555 54.4312726,23.531168 L48.1392486,24.8840329 Z" id="Path-12-Copy" fill="#0CDA91" transform="translate(51.286482, 26.681443) scale(1, -1) rotate(-345.000000) translate(-51.286482, -26.681443) "></path>
                        <path d="M0.990384615,7.07856788 L2,7.07856788 C21.443447,7.07856788 38.8353356,5.0591116 54.1755753,1.02360477 L55.4420478,0.690437979 L55.4420478,29.2500016 L54.6892084,29.4479817 C39.1667902,33.5300339 21.6037467,35.5693638 2,35.5693638 L0.990384615,35.5693638 L0.990384615,7.07856788 Z" id="Path-8-Copy-4" fill="url(#linearGradient-4)" fill-rule="nonzero" style="mix-blend-mode: soft-light;"></path>
                    </g>
                </g>
            </g>
        </g>
    </g>
</svg>