<svg id="Layer_1" data-name="Layer 1" xmlns="http://www.w3.org/2000/svg" width="24" height="24" viewBox="0 0 24 24"><defs><style>.cls-1,.cls-2,.cls-3{fill:none;}.cls-2,.cls-3{stroke:#FFC73D;stroke-linecap:round;stroke-width:2px;}.cls-3{stroke-linejoin:round;}.cls-4{fill:#FFC73D;fill-rule:evenodd;}</style></defs><title>Food v4</title><g id="Playground"><g id="Icons-_-Rewards-_-Food" data-name="Icons-/-Rewards-/-Food"><rect id="Rectangle" class="cls-1" width="24" height="24"/><g id="Group-15"><path id="Path" class="cls-2" d="M19.05,4a14.14,14.14,0,0,0-8-2.6,13.89,13.89,0,0,0-8,2.6" transform="translate(0.95 0.97)"/><polyline id="Path-13" class="cls-3" points="4 5 12 21 20 5"/><circle id="Oval" class="cls-2" cx="9" cy="10" r="2"/><path id="Path-2" data-name="Path" class="cls-2" d="M11.15,2.93a1.27,1.27,0,0,0-.1.6A2.48,2.48,0,0,0,13.55,6h0a2.48,2.48,0,0,0,2.5-2.5" transform="translate(0.95 0.97)"/></g><path id="Rectangle-2" data-name="Rectangle" class="cls-4" d="M14.05,8h2a.94.94,0,0,1,1,1h0a.94.94,0,0,1-1,1h-2a.94.94,0,0,1-1-1h0A.94.94,0,0,1,14.05,8Z" transform="translate(0.95 0.97)"/><path id="Rectangle-3" data-name="Rectangle" class="cls-4" d="M8.05,13h3a.94.94,0,0,1,1,1h0a.94.94,0,0,1-1,1h-3a.94.94,0,0,1-1-1h0A.94.94,0,0,1,8.05,13Z" transform="translate(0.95 0.97)"/></g></g></svg>