<?xml version="1.0" encoding="UTF-8"?>
<svg width="18px" height="18px" viewBox="0 0 18 18" version="1.1" xmlns="http://www.w3.org/2000/svg" xmlns:xlink="http://www.w3.org/1999/xlink">
    <!-- Generator: sketchtool 57.1 (101010) - https://sketch.com -->
    <title>60BEE508-C306-4845-B072-65C9176088C1</title>
    <desc>Created with sketchtool.</desc>
    <g id="02-Design" stroke="none" stroke-width="1" fill="none" fill-rule="evenodd">
        <g id="10-4-1-Card" transform="translate(-31.000000, -475.000000)">
            <g id="Icons-/-Freeze-/-24x24-Freeze" transform="translate(28.000000, 472.000000)">
                <rect id="Container" fill-rule="nonzero" x="0" y="0" width="24" height="24"></rect>
                <g id="Group" transform="translate(9.000000, 4.000000)" stroke="#435CDC" stroke-linecap="round" stroke-width="2">
                    <path d="M0,5 L3,2" id="Path-16-Copy" transform="translate(1.500000, 3.500000) scale(-1, 1) translate(-1.500000, -3.500000) "></path>
                    <path d="M3,5 L6,2" id="Path-16-Copy-2"></path>
                    <path d="M0,14 L3,11" id="Path-16-Copy-4" transform="translate(1.500000, 12.500000) scale(-1, -1) translate(-1.500000, -12.500000) "></path>
                    <path d="M3,14 L6,11" id="Path-16-Copy-3" transform="translate(4.500000, 12.500000) scale(1, -1) translate(-4.500000, -12.500000) "></path>
                    <path d="M3,0 L3,16" id="Path-15"></path>
                </g>
                <g id="Group-Copy" transform="translate(12.000000, 12.000000) rotate(-270.000000) translate(-12.000000, -12.000000) translate(9.000000, 4.000000)" stroke="#435CDC" stroke-linecap="round" stroke-width="2">
                    <path d="M0,5 L3,2" id="Path-16-Copy" transform="translate(1.500000, 3.500000) scale(-1, 1) translate(-1.500000, -3.500000) "></path>
                    <path d="M3,5 L6,2" id="Path-16-Copy-2"></path>
                    <path d="M0,14 L3,11" id="Path-16-Copy-4" transform="translate(1.500000, 12.500000) scale(-1, -1) translate(-1.500000, -12.500000) "></path>
                    <path d="M3,14 L6,11" id="Path-16-Copy-3" transform="translate(4.500000, 12.500000) scale(1, -1) translate(-4.500000, -12.500000) "></path>
                    <path d="M3,0 L3,16" id="Path-15"></path>
                </g>
            </g>
        </g>
    </g>
</svg>