<?xml version="1.0" encoding="UTF-8"?>
<svg width="20px" height="21px" viewBox="0 0 20 21" version="1.1" xmlns="http://www.w3.org/2000/svg" xmlns:xlink="http://www.w3.org/1999/xlink">
    <!-- Generator: Sketch 57.1 (83088) - https://sketch.com -->
    <title>Icons / Rewards / Home</title>
    <desc>Created with Sketch.</desc>
    <g id="Playground" stroke="none" stroke-width="1" fill="none" fill-rule="evenodd">
        <g id="Icons-/-Rewards-/-Home" transform="translate(-2.000000, -1.753333)">
            <rect id="Rectangle" x="0" y="0" width="24" height="24"></rect>
            <path d="M9.99827527,21 L8,21 C6.8954305,21 6,20.1045695 6,19 L6,12 L18,12 L18,19 C18,20.1045695 17.1045695,21 16,21 L13.9982973,21 L13.9982973,15.9856572 L9.99827527,15.9856572 L9.99827527,21 Z" id="Path" stroke="#FFC73D" stroke-width="2" stroke-linecap="round" stroke-linejoin="round"></path>
            <path d="M12,3 L20.0630065,10.2567059 C20.4735165,10.6261649 20.5067949,11.2584547 20.1373359,11.6689647 C19.9476934,11.8796786 19.6775283,12 19.3940418,12 L4.60595823,12 C4.05367348,12 3.60595823,11.5522847 3.60595823,11 C3.60595823,10.7165135 3.72627964,10.4463483 3.9369935,10.2567059 L12,3 L12,3 Z" id="Rectangle" stroke="#FFC73D" stroke-width="2" stroke-linecap="round" stroke-linejoin="round"></path>
        </g>
    </g>
</svg>