<svg
  width="25px"
  height="25px"
  viewBox="0 0 25 25"
  version="1.1"
  xmlns="http://www.w3.org/2000/svg"
  xmlns:xlink="http://www.w3.org/1999/xlink"
>
  <title>Icon-Earn-Activated</title>
  <g id="Symbols" stroke="none" stroke-width="1" fill="none" fill-rule="evenodd">
    <g id="Tend/Navigation/Bar/Earn" transform="translate(-176.000000, -11.000000)">
      <path d="M0,0 L375,0 L375,72 L0,72 L0,0 Z" id="Navigation-(Background)" fill="#002923"></path>
      <g id="Earn" transform="translate(167.000000, 11.000000)" fill-rule="nonzero">
        <g id="Icon-Earn" transform="translate(9.112830, 0.307256)">
          <polygon
            id="Line-60"
            fill="#F79234"
            transform="translate(12.052613, 19.318232) scale(-1, -1) rotate(269.999997) translate(-12.052613, -19.318232) "
            points="16.552613 17.9182325 16.552613 20.7182324 7.55261305 20.7182324 7.55261305 17.9182325"
          ></polygon>
          <polygon
            id="Line-60"
            fill="#FFC73D"
            transform="translate(12.087168, 4.500000) scale(-1, -1) rotate(89.999997) translate(-12.087168, -4.500000) "
            points="16.5871679 3.10000002 16.5871679 5.89999998 7.58716791 5.89999998 7.58716791 3.10000002"
          ></polygon>
          <polygon
            id="Line-60"
            fill="#FA5CAE"
            transform="translate(4.500000, 11.742744) rotate(180.000000) translate(-4.500000, -11.742744) "
            points="9 10.3427442 9 13.1427441 0 13.1427441 0 10.3427442"
          ></polygon>
          <polygon
            id="Line-60"
            fill="#FF5554"
            points="23.9143396 10.3427442 23.9143396 13.1427441 14.9143396 13.1427441 14.9143396 10.3427442"
          ></polygon>
        </g>
      </g>
    </g>
  </g>
</svg>
