<?xml version="1.0" encoding="UTF-8"?>
<svg width="40px" height="40px" viewBox="0 0 40 40" version="1.1" xmlns="http://www.w3.org/2000/svg" xmlns:xlink="http://www.w3.org/1999/xlink">
    <!-- Generator: sketchtool 58 (101010) - https://sketch.com -->
    <title>E444703C-6D06-4D5A-92EE-F7F535F30625</title>
    <desc>Created with sketchtool.</desc>
    <g id="Design" stroke="none" stroke-width="1" fill="none" fill-rule="evenodd">
        <g id="2-1-1-Dashboard" transform="translate(-20.000000, -575.000000)">
            <g id="Component-/-Dashboard-/-Account-/-Savings-Component-/-Dashboard-/-Account-/-V3" transform="translate(0.000000, 545.000000)">
                <g id="Element-/-Icon-/-Dashboard-/-Account-/-Checking-Element-/-Icon-/-Dashboard-/-Account-/-Savings" transform="translate(20.000000, 30.000000)">
                    <circle id="Base" fill="#FFF6DE" cx="20" cy="20" r="20"></circle>
                    <g id="Icons-/-Savings-Account-/-24x24-Savings-Account-Icons-/-24x24px-/-Savings-/-V1" transform="translate(8.000000, 8.000000)">
                        <rect id="Container" x="0" y="0" width="24" height="24"></rect>
                        <path d="M13,2 C14.6568542,2 16,3.34314575 16,5 C16,5.37173012 15.9323901,5.72766911 15.8087964,6.05619098 C18.7400298,6.44902711 21,8.96059139 21,12 C21,14.6121813 19.3307123,16.8344797 17.0006859,17.6583461 L17,20 L14,20 L14,18 L10,18 L10,20 L7,20 L7.00019991,17.6586592 C5.29550737,17.0562052 3.94436724,15.7052559 3.34165389,14.0006859 L1.5,14 L1.5,10 L3.34129768,10.0003218 C3.60821219,9.24501342 4.02206748,8.55910993 4.5485172,7.97695771 L5.07782337,4.04261784 L9,6 C8.99866231,6.00000011 8.99933114,6 9,6 L10.1710242,6.00090072 C10.0602698,5.6878673 10,5.35097203 10,5 C10,3.34314575 11.3431458,2 13,2 Z" id="Combined-Shape" stroke="#FFD159" stroke-width="2" stroke-linejoin="round"></path>
                        <circle id="Oval" fill="#FFD038" cx="7" cy="10" r="1"></circle>
                        <path d="M21,12.5 L23.0061031,12.5" id="Path-7" stroke="#FFD038" stroke-width="2" stroke-linecap="round"></path>
                        <path d="M13,2 C14.6568542,2 16,3.34314575 16,5 C16,6.65685425 14.6568542,8 13,8 C11.3431458,8 10,6.65685425 10,5 C10,3.34314575 11.3431458,2 13,2 Z" id="Combined-Shape" stroke="#FFD159" stroke-width="2" stroke-linejoin="round"></path>
                        <rect id="Rectangle" fill="#FFD038" x="10" y="8" width="6" height="2" rx="1"></rect>
                    </g>
                </g>
            </g>
        </g>
    </g>
</svg>