<?xml version="1.0" encoding="UTF-8"?>
<svg width="40px" height="40px" viewBox="0 0 40 40" version="1.1" xmlns="http://www.w3.org/2000/svg" xmlns:xlink="http://www.w3.org/1999/xlink">
    <!-- Generator: sketchtool 58 (101010) - https://sketch.com -->
    <title>E7D0C9B7-3D28-4F2A-BD04-BA5EB6DF1099</title>
    <desc>Created with sketchtool.</desc>
    <g id="Design" stroke="none" stroke-width="1" fill="none" fill-rule="evenodd">
        <g id="2-1-1-Dashboard" transform="translate(-20.000000, -375.000000)">
            <g id="Component-/-Dashboard-/-Account-/-Checking-Component-/-Dashboard-/-Account-/-V3" transform="translate(0.000000, 345.000000)">
                <g id="Element-/-Icon-/-Dashboard-/-Account-/-Checking" transform="translate(20.000000, 30.000000)">
                    <circle id="Base" fill="#E6FBF4" cx="20" cy="20" r="20"></circle>
                    <g id="Icons-/-Checking-Account-/-24x24-Checking-Account-Icons-/-24x24px-/-Checking" transform="translate(8.000000, 8.000000)">
                        <rect id="Container" fill-rule="nonzero" x="0" y="0" width="24" height="24"></rect>
                        <circle id="Oval" stroke="#0CDA91" stroke-width="2" cx="10.5" cy="13.5" r="2.5"></circle>
                        <rect id="Rectangle" stroke="#0CDA91" stroke-width="2" stroke-linecap="round" stroke-linejoin="round" x="2" y="8" width="17" height="11" rx="1"></rect>
                        <path d="M21,5 C21.5522847,5 22,5.44771525 22,6 L22,8 L9,8 C8.48716416,8 8.06449284,8.38604019 8.00672773,8.88337887 L8,9 L8,16 L6,16 C5.44771525,16 5,15.5522847 5,15 L5,6 C5,5.44771525 5.44771525,5 6,5 L21,5 Z" id="Combined-Shape" stroke="#0CDA91" stroke-width="2" stroke-linecap="round" stroke-linejoin="round" transform="translate(13.500000, 10.500000) scale(-1, 1) translate(-13.500000, -10.500000) "></path>
                    </g>
                </g>
            </g>
        </g>
    </g>
</svg>