<?xml version="1.0" encoding="UTF-8"?>
<svg width="32" height="19" viewBox="0 0 32 19" fill="none" xmlns="http://www.w3.org/2000/svg">
  <rect x="14.6667" y="0.0408936" width="2.66667" height="18.6667" fill="#FFC73D"/>
  <rect y="2.97424" width="2.66667" height="11.7333" fill="#FFC73D"/>
  <rect x="29.3333" y="0.0408936" width="2.66667" height="18.6667" fill="#FFC73D"/>
  <rect x="3.73334" y="2.70764" width="2.66667" height="25.8667" transform="rotate(-90 3.73334 2.70764)" fill="#FFC73D"/>
  <rect x="5.33334" y="18.7076" width="2.66667" height="24.2667" transform="rotate(-90 5.33334 18.7076)" fill="#FFC73D"/>
  <rect x="6.66666" y="6.70764" width="2.66667" height="6.66667" transform="rotate(-90 6.66666 6.70764)" fill="#FFC73D"/>
  <rect x="4" y="10.7076" width="2.66667" height="9.33333" transform="rotate(-90 4 10.7076)" fill="#FFC73D"/>
  <rect x="18.9333" y="6.70764" width="2.66667" height="6.66667" transform="rotate(-90 18.9333 6.70764)" fill="#FFC73D"/>
  <rect x="18.9333" y="10.7076" width="2.66667" height="9.06667" transform="rotate(-90 18.9333 10.7076)" fill="#FFC73D"/>
  <rect x="18.9333" y="14.7076" width="2.66667" height="9.06667" transform="rotate(-90 18.9333 14.7076)" fill="#FFC73D"/>
  <rect y="3.02673" width="4.75388" height="2.66667" transform="rotate(-39.5454 0 3.02673)" fill="#FFC73D"/>
</svg>
