<?xml version="1.0" encoding="UTF-8"?>
<svg width="22px" height="20px" viewBox="0 0 22 20" version="1.1" xmlns="http://www.w3.org/2000/svg" xmlns:xlink="http://www.w3.org/1999/xlink">
    <!-- Generator: Sketch 57.1 (83088) - https://sketch.com -->
    <title>Icons / Rewards / Pets</title>
    <desc>Created with Sketch.</desc>
    <g id="Playground" stroke="none" stroke-width="1" fill="none" fill-rule="evenodd">
        <g id="Icons-/-Rewards-/-Pets" transform="translate(-1.000000, -1.753333)">
            <rect id="Rectangle" x="0" y="0" width="24" height="24"></rect>
            <g id="pawprint" transform="translate(2.000000, 3.000000)" stroke="#FFC73D" stroke-linecap="round" stroke-linejoin="round" stroke-width="2">
                <path d="M13.3482578,9.33144491 C12.4500487,7.93022051 10.9202912,7.0935368 9.25606117,7.0935368 C7.59183115,7.0935368 6.06207361,7.93022051 5.1640168,9.33144491 L2.99966495,12.7078765 C2.64056409,13.2680007 2.47487209,13.9152351 2.52040694,14.5790692 C2.56594175,15.2430556 2.81859162,15.8613548 3.25094421,16.3675682 C3.68360136,16.8733248 4.25529973,17.2190241 4.90420932,17.367355 C5.55311891,17.5156859 6.21832359,17.4523331 6.82778994,17.1844542 L6.86860382,17.1663316 C8.40216862,16.5056957 10.1545748,16.5117873 11.6841801,17.1844542 C12.0787646,17.357913 12.4968019,17.4456323 12.9186464,17.4456323 C13.1479959,17.4456323 13.3787159,17.4195906 13.6073039,17.3675073 C14.2562135,17.2193287 14.8279118,16.8736294 15.2607212,16.3677205 C15.6932261,15.8619639 15.9460283,15.2435124 15.9917154,14.5793738 C16.0374025,13.9152351 15.8717105,13.268153 15.5126097,12.7077242 L13.3482578,9.33144491 Z" id="Path"></path>
                <path d="M3.58263279,9.3270285 C4.2265168,9.07970881 4.71567372,8.56085528 4.9599476,7.86595396 C5.19249513,7.20470881 5.17345883,6.45818105 4.90618908,5.76373661 C4.63876706,5.06974901 4.15235135,4.50322854 3.53648881,4.16834187 C2.88955899,3.81670324 2.17881945,3.75944203 1.53600148,4.00721856 C0.242750955,4.50444686 -0.350724912,6.10258285 0.213206628,7.57051049 C0.663681793,8.73888281 1.71433357,9.47642542 2.77655945,9.47642542 C3.04778873,9.47642542 3.31977949,9.42830168 3.58263279,9.3270285 Z" id="Path"></path>
                <path d="M7.78219419,6.68174343 C9.39890959,6.68174343 10.7142422,5.18320542 10.7142422,3.34125244 C10.7142422,1.49884257 9.39890959,0 7.78219419,0 C6.16563111,0 4.85045076,1.49884257 4.85045076,3.34125244 C4.85045076,5.18320542 6.16563111,6.68174343 7.78219419,6.68174343 Z" id="Path"></path>
                <path d="M12.8458516,7.50243665 L12.8460039,7.50243665 C13.0946942,7.58497809 13.3484101,7.62442129 13.60106,7.62442129 C14.7800926,7.62442129 15.929124,6.76626464 16.3675682,5.44742932 C16.6200658,4.68826144 16.6034661,3.88553848 16.320815,3.18728678 C16.025067,2.45629263 15.4769737,1.92571271 14.7773513,1.69316522 C14.0775768,1.4606177 13.3208455,1.55762671 12.6463511,1.96606971 C12.0020102,2.35623782 11.5082846,2.9893092 11.2560916,3.74847712 C10.7238365,5.34996343 11.4370127,7.03399123 12.8458516,7.50243665 L12.8458516,7.50243665 Z" id="Path"></path>
                <path d="M19.0204678,7.1125731 L19.020011,7.11211622 C17.9050926,6.28852947 16.2376645,6.64549828 15.3027534,7.90829068 C14.3687561,9.17169224 14.5148027,10.8701876 15.6280458,11.6943835 C16.0340522,11.9951572 16.5137671,12.1389193 17.0047515,12.1389193 C17.8604715,12.1389193 18.7507614,11.7021503 19.3459125,10.8989705 C20.2797575,9.63556897 20.1338633,7.93707361 19.0204678,7.1125731 Z" id="Path"></path>
            </g>
        </g>
    </g>
</svg>