<?xml version="1.0" encoding="utf-8"?>
<!-- Generator: Adobe Illustrator 25.0.0, SVG Export Plug-In . SVG Version: 6.00 Build 0)  -->
<svg version="1.1" id="layer" xmlns="http://www.w3.org/2000/svg" xmlns:xlink="http://www.w3.org/1999/xlink" x="0px" y="400px"
	 viewBox="0 0 652 652" style="enable-background:new 0 0 652 652;" xml:space="preserve">
<style type="text/css">
	.st0{fill:#FFFFFF;}
</style>
<g>
	<path class="st0" d="M467.8,293.1H449c-0.8,0-1.4,0.6-1.4,1.4v58.1c0,0.8,0.6,1.4,1.4,1.4h18.7c0.8,0,1.4-0.6,1.4-1.4v-58.1
		C469.1,293.9,468.5,293.1,467.8,293.1 M551.4,275.4h-18.7c-0.8,0-1.4,0.6-1.4,1.4v75.9c0,0.8,0.6,1.4,1.4,1.4h18.7
		c0.8,0,1.4-0.6,1.4-1.4v-75.9C552.8,275.9,552.1,275.4,551.4,275.4 M458.4,263.5c-6.6,0-11.9,5.3-11.9,11.8s5.3,11.8,11.9,11.8
		s11.9-5.3,11.9-11.8C470.2,268.9,464.9,263.5,458.4,263.5 M626,300.9v-6.2c0-0.8-0.6-1.4-1.4-1.4h-18.7c-0.8,0-1.4,0.6-1.4,1.4
		v31.7c0,6.6-3.6,10.1-8.7,10.1c-5.1,0-8.4-3.5-8.4-10.1v-31.7c0-0.8-0.6-1.4-1.4-1.4h-18.7c-0.8,0-1.4,0.6-1.4,1.4v31.7
		c0,12.5,1.8,18.4,3.9,21.2c3.7,4.9,9.2,7.9,16.4,7.9c6.5,0,11-3,15-6.1c1.3-1,3.2-1.6,3.2,1.1v5.4c-0.1,3.6-2.5,6.7-5.5,8.3
		c-0.1,0-0.1,0.1-0.2,0.1c-1.4,0.7-3.1,1.2-4.8,1.1c0,0-4.2,0-6.4-0.4c-0.8-0.1-1.6,0.4-1.6,1.2l-1.4,16.1c-0.1,0.7,0.4,1.4,1.2,1.5
		c7,1.1,14.4,0.9,22.3-1.8c12.4-4.2,18-13.3,18-26.5L626,300.9L626,300.9 M517.9,293.1h-8.4c-0.8,0-1.4-0.6-1.4-1.4v-15.1
		c0-0.8-0.6-1.4-1.4-1.4H488c-0.8,0-1.4,0.6-1.4,1.4v15.1c0,0.8-0.6,1.4-1.4,1.4h-5.8c-0.8,0-1.4,0.6-1.4,1.4v16
		c0,0.8,0.6,1.4,1.4,1.4h5.8c0.8,0,1.4,0.6,1.4,1.4v26.3c0,8.7,6,15.7,15.8,15.7c7.2,0,13.3-1.1,15.9-2.3c0.6-0.3,1-0.7,1-1.3v-12.9
		c0-0.8-0.8-1.5-1.6-1.4c-3.1,0.5-9.6,1.9-9.6-6.3v-17.8c0-0.8,0.6-1.4,1.4-1.4h8.4c0.8,0,1.4-0.6,1.4-1.4v-16
		C519.3,293.9,518.7,293.1,517.9,293.1 M225.7,312.9c7.4,0,11.7-3.6,11.7-9.3v-0.2c0-6.2-4.5-9.3-11.8-9.3h-12.9
		c-0.8,0-1.4,0.6-1.4,1.4v16.1c0,0.8,0.6,1.4,1.4,1.4h13V312.9z M189.4,276.6c0-0.8,0.6-1.4,1.4-1.4h35.9c12.1,0,20.4,3.1,25.7,8.5
		c4.6,4.5,7,10.5,7,18.3v0.2c0,11.4-5.8,19.1-14.8,23.4c-0.8,0.4-1,1.3-0.6,2l16.4,23.9c0.4,0.6,0.3,1.5-0.4,1.9
		c-0.2,0.2-0.5,0.2-0.8,0.2h-21.6c-0.6,0-1.2-0.3-1.5-0.8L221.5,331c-0.4-0.7-1.2-1.1-2-1h-6.9c-0.8,0-1.4,0.6-1.4,1.4v21
		c0,0.8-0.6,1.4-1.4,1.4h-19.1c-0.8,0-1.4-0.6-1.4-1.4l0,0L189.4,276.6L189.4,276.6z M307.4,317c0,0.8-0.6,1.4-1.3,1.4H287
		c-0.7,0-1.3-0.6-1.3-1.4c0-5.9,4.7-10.6,10.8-10.6C303,306.4,307.4,311,307.4,317L307.4,317L307.4,317z M295.5,291.9
		c-19,0-30.9,14.8-30.9,32.4c0,17.5,13,31,30.9,31c16,0,25.5-6.9,29.9-17.3c0.4-0.9-0.3-1.9-1.3-1.9h-16.4c-0.7,0-1.3,0.3-1.7,0.8
		c-2.1,2.2-4.8,3.6-8.5,3.6l0,0l0,0c-7,0-12.5-3.6-12.5-9.6c0-0.8,0.6-1.4,1.4-1.4l0,0l0,0h39.2c0.8,0,1.4-0.6,1.4-1.4v-3.9
		C326.9,306.9,316,291.9,295.5,291.9L295.5,291.9z M413.4,291.9c-8.4,0-14.4,3.4-19.5,8.8c-0.4,0.4-1.1,0.5-1.5,0.1
		c-0.1-0.1-0.1-0.1-0.2-0.2c-3.4-5.5-9.3-8.6-16.9-8.6c-0.3,0-0.5,0-0.8,0c-6.3,0.2-11.8,3.2-15.5,7.7c-0.6,0.8-1.9,0.3-1.9-0.7
		v-4.3c0-0.7-0.6-1.3-1.3-1.3l0,0H337c-0.8,0-1.4,0.6-1.4,1.4v58c0,0.8,0.6,1.4,1.4,1.4h18.7c0.8,0,1.4-0.6,1.4-1.4V321
		c0-6.6,3.6-10.1,8.7-10.1s8.4,3.5,8.4,10.1v31.6c0,0.8,0.6,1.4,1.4,1.4h18.7c0.8,0,1.4-0.6,1.4-1.4v-31.7c0-6.6,3.7-10.1,8.8-10.1
		c5.1,0,8.4,3.5,8.4,10.1v31.7c0,0.8,0.6,1.4,1.4,1.4H433c0.8,0,1.4-0.6,1.4-1.4v-38.5C434.3,299.9,426.4,291.9,413.4,291.9
		 M137.6,333.9l-46.7-34c-2.4-1.7-5.5-1.7-7.9,0L62.2,315c-1.2,0.9-2.7,1.2-4.2,1s-2.8-1-3.7-2.2s-1.2-2.7-1-4.2s1-2.8,2.2-3.7
		l14.8-10.7l0,0l12.9-9.3c7.2-5.2,17.1-4.6,23.5,1.5c1.4,1.4,3.6,1.4,5.2,0.3l25.7-18.7V333.9L137.6,333.9z M137,347.1l-0.1,0.4
		c-0.2,1-0.8,2.4-1.5,3.1c-1.9,1.8-4.7,1.9-6.7,0.5L106,334.5l-0.2-0.1c-1.4-1-3.6-1-4.9,0.2c-1.6,1.4-1.7,3.8-0.3,5.4
		c0.2,0.2,0.4,0.4,0.6,0.5l0.3,0.2l20.9,15.2c1.2,0.8,2,2.1,2.2,3.5c0.3,2-0.5,3.8-2.1,5l-0.5,0.3c-1.8,1.3-4.3,1.3-6.1,0L90,345.9
		c-1.4-1-3.6-1-4.9,0.2c-1.6,1.4-1.7,3.8-0.3,5.4c0.2,0.2,0.4,0.4,0.6,0.5l21.2,15.4c1.2,0.8,2,2.1,2.2,3.5c0.3,2-0.5,3.8-2.1,5
		l-0.5,0.3c-1.8,1.3-4.3,1.3-6.1,0l-4.7-3.4l-21.2-15.4c-1.4-1-3.6-1-4.9,0.2c-1.6,1.4-1.7,3.8-0.3,5.4c0.2,0.2,0.4,0.4,0.6,0.5
		l21.2,15.4c1.2,0.8,2,2.1,2.2,3.5c0.3,2-0.5,3.8-2.1,5l-0.5,0.3c-1.6,1.2-3.7,1.3-5.5,0.4l-50.7-36.9V269l22,16l6.9,5l-12.6,9.2
		c-3,2.2-5,5.4-5.6,9.1c-0.6,3.6,0.3,7.4,2.5,10.4s5.4,5,9.1,5.6c0.7,0.1,1.5,0.2,2.2,0.2c2.9,0,5.7-0.9,8.2-2.7L84.5,309
		c1.4-1,3.2-1,4.6,0l46.2,33.6C136.7,343.8,137.3,345.4,137,347.1L137,347.1z M131.7,263l-20.9,15.2c-0.6,0.5-1.5,0.5-2.2,0.1
		c-8.6-5.6-19.7-5.8-28.4-0.4c-0.3,0.1-0.5,0.3-0.8,0.4l-9,6.6l-30.1-21.9L131.7,263L131.7,263z M144.7,256
		c-0.8-0.8-1.8-1.2-2.9-1.2H30.1c-2.3,0-4.1,1.9-4.1,4.1l0,0v94.3c0,1.3,0.6,2.6,1.7,3.4l53.7,39l0,0c2.7,2,6.4,2,9.1,0l53.7-39
		c1.1-0.8,1.7-2,1.7-3.4v-94.4C145.9,257.9,145.5,256.8,144.7,256L144.7,256z"/>
</g>
</svg>