<?xml version="1.0" encoding="UTF-8"?>
<svg width="67px" height="80px" viewBox="0 0 67 80" version="1.1" xmlns="http://www.w3.org/2000/svg" xmlns:xlink="http://www.w3.org/1999/xlink">
  <g id="Bank-Onboarding-w/US" stroke="none" stroke-width="1" fill="none" fill-rule="evenodd">
    <g id="2.1.3.1-Secure-Login-Animation" transform="translate(-155.000000, -340.000000)">
      <g id="Group" transform="translate(155.000000, 340.000000)" fill="#F6F6F1">
        <path d="M33.5,11.1428571 C28.8844893,11.1428571 25.1428571,14.8844893 25.1428571,19.5 L25.1428571,21.5892857 L14,21.5892857 L14,19.5 C14,8.73042857 22.7304286,0 33.5,0 C44.2695714,0 53,8.73042857 53,19.5 L53,39 L41.8571429,39 L41.8571429,19.5 C41.8571429,14.8844893 38.1155107,11.1428571 33.5,11.1428571 Z" id="Path"></path>
        <path d="M11.8031088,38.9473684 C11.4196466,38.9473684 11.1088083,39.2536895 11.1088083,39.6315789 L11.1088083,68.3684211 C11.1088083,68.7463105 11.4196466,69.0526316 11.8031088,69.0526316 L55.1968912,69.0526316 C55.5803534,69.0526316 55.8911917,68.7463105 55.8911917,68.3684211 L55.8911917,39.6315789 C55.8911917,39.2536895 55.5803534,38.9473684 55.1968912,38.9473684 L11.8031088,38.9473684 Z M0,39.6315789 C0,33.2076632 5.28443233,28 11.8031088,28 L55.1968912,28 C61.7155399,28 67,33.2076632 67,39.6315789 L67,68.3684211 C67,74.7924737 61.7155399,80 55.1968912,80 L11.8031088,80 C5.28443233,80 0,74.7924737 0,68.3684211 L0,39.6315789 Z" id="Shape"></path>
        <path d="M42,54 C42,58.9705615 37.9705615,63 33,63 C28.0294385,63 24,58.9705615 24,54 C24,49.0294385 28.0294385,45 33,45 C37.9705615,45 42,49.0294385 42,54 Z" id="Path" fill-rule="nonzero"></path>
      </g>
    </g>
  </g>
</svg>
