<?xml version="1.0" encoding="UTF-8"?>
<svg width="17px" height="16px" viewBox="0 0 17 16" version="1.1" xmlns="http://www.w3.org/2000/svg" xmlns:xlink="http://www.w3.org/1999/xlink">
    <title>Tend/Icons/Smile/Multi</title>
    <g id="Core-App" stroke="none" stroke-width="1" fill="none" fill-rule="evenodd">
        <g id="6.6.1-Savings-Overview-Targets" transform="translate(-180.000000, -453.000000)">
            <rect fill="#002923" x="0" y="0" width="375" height="812"></rect>
            <g id="Group" transform="translate(179.000000, 451.000000)" fill-rule="nonzero">
                <g id="Path" transform="translate(1.000000, 2.000000)">
                    <polygon fill="#FA5CAE" points="6 0 0 0 0 3 6 3"></polygon>
                    <polygon fill="#FFC73D" points="10 8 10 4 7 4 7 8"></polygon>
                    <polygon fill="#F79234" points="17 0 11 0 11 3 17 3"></polygon>
                    <path d="M8.99997715,16 C4.58901249,16 1,12.4109919 1,8 L4.0631705,8 C4.0631705,10.7211149 6.27885979,12.9368421 8.99997715,12.9368421 C11.7210587,12.9368421 13.936748,10.7211149 13.936748,8 L17,8 C17,12.4109919 13.4109866,16 8.99997715,16 Z" fill="#FF5554"></path>
                </g>
            </g>
        </g>
    </g>
</svg>