<?xml version="1.0" encoding="UTF-8"?>
<svg width="22px" height="21px" viewBox="0 0 22 21" version="1.1" xmlns="http://www.w3.org/2000/svg" xmlns:xlink="http://www.w3.org/1999/xlink">
    <!-- Generator: sketchtool 57.1 (101010) - https://sketch.com -->
    <title>F25EA0F1-B5FE-417A-A27A-40D899D54006</title>
    <desc>Created with sketchtool.</desc>
    <g id="02-Design" stroke="none" stroke-width="1" fill="none" fill-rule="evenodd">
        <g id="10-5-1-Statements" transform="translate(-27.000000, -223.000000)">
            <g id="Icons-/-Statement-/-32x32-Statement" transform="translate(20.000000, 218.000000)">
                <g id="Icons-/-Transfer-From-Bank-/-32x32-Transfer-From-Bank" fill-rule="nonzero">
                    <rect id="Container" x="0" y="0" width="32" height="32"></rect>
                </g>
                <path d="M24,25 L8,25 L8,8 L8.00548574,7.85073766 C8.08183488,6.81587779 8.9456382,6 10,6 L26,6 C24.8954305,6 24,6.8954305 24,8 L24,25 Z" id="Combined-Shape" stroke="#435CDC" stroke-width="2" stroke-linecap="round" stroke-linejoin="round" transform="translate(17.000000, 15.500000) scale(1, -1) translate(-17.000000, -15.500000) "></path>
                <path d="M26,18 C27.1045695,18 28,18.8954305 28,20 L28,20 L28,25 L24,25 L24,20 L24.0054857,19.8507377 C24.0818349,18.8158778 24.9456382,18 26,18 Z" id="Combined-Shape" stroke="#435CDC" stroke-width="2" stroke-linecap="round" stroke-linejoin="round" transform="translate(26.000000, 21.500000) scale(1, -1) translate(-26.000000, -21.500000) "></path>
                <path d="M12,11.5 L20,11.5" id="Path-2-Copy" stroke="#435CDC" stroke-width="2" stroke-linecap="round" stroke-linejoin="round"></path>
                <path d="M12,15.5 L20,15.5" id="Path-2-Copy-3" stroke="#435CDC" stroke-width="2" stroke-linecap="round" stroke-linejoin="round"></path>
                <path d="M12,19.5 L20,19.5" id="Path-2-Copy-5" stroke="#435CDC" stroke-width="2" stroke-linecap="round" stroke-linejoin="round"></path>
            </g>
        </g>
    </g>
</svg>