<svg id="SvgjsSvg1001" width="288" height="288" xmlns="http://www.w3.org/2000/svg" version="1.1" xmlns:xlink="http://www.w3.org/1999/xlink" xmlns:svgjs="http://svgjs.com/svgjs"><defs id="SvgjsDefs1002"></defs><g id="SvgjsG1008" transform="matrix(0.9167,0,0,0.9167,11.997227114282964,11.995162841439253)"><svg xmlns="http://www.w3.org/2000/svg" viewBox="0 0 630.55 630.08" width="288" height="288"><g data-name="Layer 2" fill="#bdfc4c" class="color000 svgShape"><g data-name="Layer 1" fill="#bdfc4c" class="color000 svgShape"><path fill="#ffffffs" d="M483.38,569c-.15.06-.25.25-.37.39.15.08.31.24.43.22s.27-.23.49-.43C483.67,569.07,483.49,568.93,483.38,569Z"></path><path d="M629,294.38a.85.85,0,0,1,0-.61,10.31,10.31,0,0,0,.1-6,3.67,3.67,0,0,1,.08-1.43,11.1,11.1,0,0,0-.76-6.44c-1.71-3.9-1.72-8-1.48-12.11a6,6,0,0,0-.91-4.11,5.44,5.44,0,0,1-.91-4.48,10.2,10.2,0,0,0-.62-5.84,28.07,28.07,0,0,1-.89-3.56,12.45,12.45,0,0,0-.7-2.55c-1.61-3.17-1.6-6.74-2.58-10.07-.76-2.59-1-5.33-1.54-8a5.13,5.13,0,0,0-.68-1.49,13.71,13.71,0,0,1-1.61-4.83,20.63,20.63,0,0,0-1.44-5.11,82.79,82.79,0,0,1-5.1-13.63,27.45,27.45,0,0,0-3.35-8.35,8,8,0,0,1-1.12-2.84c-.86-4.13-3-7.7-4.88-11.39-.73-1.45-1.87-2.67-2.21-4.35a3.15,3.15,0,0,0-.93-1.56,8.44,8.44,0,0,1-2-4,19.76,19.76,0,0,0-4.23-7.9,15.13,15.13,0,0,1-2-3.05c-1-1.78-1.91-3.63-2.85-5.44-.57-1.09-1.13-2.19-1.73-3.27-1.41-2.57-2.73-5.19-4.29-7.66s-3.47-4.9-5.22-7.34c-.75-1-1.52-2.1-2.26-3.16-1-1.4-1.88-2.85-2.93-4.2-1.54-2-3.19-3.9-4.78-5.86a4.49,4.49,0,0,1-.44-.69,29.5,29.5,0,0,0-6.06-7.47,10.48,10.48,0,0,1-2.16-2.69,16.19,16.19,0,0,0-3.18-4.25,49.32,49.32,0,0,1-7.48-8.7,17.37,17.37,0,0,0-3-3.1c-1-.93-2.07-1.76-3.11-2.64a24.47,24.47,0,0,1-5.08-5,4,4,0,0,0-.94-.79c-2.81-2.18-5.76-4.19-8-7a7.26,7.26,0,0,0-1.63-1.55,32.18,32.18,0,0,1-6-5.89,25.37,25.37,0,0,0-8.32-6.58,14.86,14.86,0,0,1-5.6-4.36,9.19,9.19,0,0,0-4.56-3.32,10.28,10.28,0,0,1-4-2.41,24.8,24.8,0,0,0-3.25-2.82c-2.86-1.87-5.82-3.57-8.71-5.39-3.06-1.94-6.08-4-9.14-5.9a5.05,5.05,0,0,0-1.87-.79,6.82,6.82,0,0,1-4-2.35A8.62,8.62,0,0,0,466,38.1c-2.06-.92-4.24-1.56-6.29-2.49a43.12,43.12,0,0,1-4.43-2.52c-2.52-1.51-4.94-3.15-7.91-3.78a8.76,8.76,0,0,1-3.67-1.66,11.36,11.36,0,0,0-4.52-2.27,24.29,24.29,0,0,1-7.25-2.8,11.32,11.32,0,0,0-4-1.56,20.52,20.52,0,0,1-6.44-2.58,15.22,15.22,0,0,0-6.61-2.12c-3.25-.16-6-1.68-9-2.69-1.23-.42-2.41-1-3.65-1.32-2.78-.75-5.57-1.41-8.36-2.1s-5.3-1.35-8-2c-2.32-.53-4.67-1-7-1.46-.67-.13-1.36-.16-2-.23a6.27,6.27,0,0,1-2-.23A11.67,11.67,0,0,0,367.32,5a23.86,23.86,0,0,0-8-1.57,2.54,2.54,0,0,1-.78-.25,12,12,0,0,0-5-.87A22.73,22.73,0,0,1,349.66,2c-3.5-.63-7-1.4-10.58-.91a13.66,13.66,0,0,1-2.85-.11c-3-.21-5.93-1.08-9-.25a9.16,9.16,0,0,1-2.64-.13C322.78.46,320.94.37,319.1.3c-1.36,0-2.72-.07-4.08-.11C312.9.13,310.79.05,308.67,0c-1.35,0-2.71,0-4.07,0a7.67,7.67,0,0,0-3,.39c-2.68,1.38-5.44,1.13-8.24.84a15.58,15.58,0,0,0-2.24-.22c-2.25.13-4.5.38-6.75.51a76.44,76.44,0,0,0-10.75,1.53c-1.94.39-3.93.55-5.84,1.05a9.83,9.83,0,0,1-4.44.4,6,6,0,0,0-2.24,0c-2.93.65-5.84,1.4-8.78,2.05a32,32,0,0,1-4.85.79,17.33,17.33,0,0,0-6.69,1.82,21.21,21.21,0,0,1-4,1.53c-5,1.28-10,2.44-14.92,3.69-1.12.29-2.18.78-3.27,1.18a5.25,5.25,0,0,1-1.55.49,9.82,9.82,0,0,0-4.49,1.3,15,15,0,0,1-2.15.69c-1.29.44-2.57.88-3.86,1.34-.71.25-1.4.55-2.11.79C199,22,193.73,24,188.94,27.15a2.79,2.79,0,0,1-1.11.51,14.76,14.76,0,0,0-6.18,2.65A15.05,15.05,0,0,1,180,31c-1.35.65-2.68,1.34-4,2a17.5,17.5,0,0,1-3.3,1.58,10.78,10.78,0,0,0-4.53,2.3A5.7,5.7,0,0,1,166,38c-2.85.79-5.17,2.51-7.48,4.21a14.64,14.64,0,0,1-3.77,2,9.66,9.66,0,0,0-3.13,1.83,13.54,13.54,0,0,1-3.93,2.52,16.42,16.42,0,0,0-6.83,4.76,8.76,8.76,0,0,1-2.48,1.76c-.64.39-1.45.52-2.05.95-2.09,1.5-4.12,3.09-6.17,4.65a8.11,8.11,0,0,1-1.47,1.11,27,27,0,0,0-8,5.72c-2.29,2.22-4.42,4.56-7.24,6.27-2.4,1.47-4.11,4-6.8,5.22a.75.75,0,0,0-.3.26A16.06,16.06,0,0,1,101.27,84a1.59,1.59,0,0,0-.29.29c-1.75,1.81-3.12,4-5.31,5.39a1.77,1.77,0,0,0-.53.62c-1.39,2.46-3.65,4-5.72,5.84a15.32,15.32,0,0,0-2.79,3.22,18.63,18.63,0,0,1-5.28,5.37,22.28,22.28,0,0,0-7.78,8.8,11,11,0,0,1-2.35,3,30.14,30.14,0,0,0-4.21,5,42.22,42.22,0,0,0-3.69,6.11A6.41,6.41,0,0,1,62,129.46a38.86,38.86,0,0,0-5.39,6.63c-1.52,2.28-3.64,4.18-5,6.66s-2.86,4.78-4.29,7.17a1.12,1.12,0,0,0-.13.39c-.68,3.29-2.82,5.77-4.88,8.2a27.34,27.34,0,0,0-4.08,6.36c-1.52,3.36-3.37,6.57-4.24,10.2a9.53,9.53,0,0,1-1,2c-.39.72-.89,1.39-1.21,2.14-1.31,3.08-2.51,6.22-4.72,8.83a6.87,6.87,0,0,0-.79,1.66,20.44,20.44,0,0,1-1.14,2.41A8.13,8.13,0,0,0,23.94,196a15.25,15.25,0,0,1-2.66,7.68,10.29,10.29,0,0,0-1.83,4.3,4.26,4.26,0,0,1-.79,1.87,10,10,0,0,0-1.74,4.76,9.54,9.54,0,0,1-1.1,3.47,8.88,8.88,0,0,0-1.28,4.67,6.78,6.78,0,0,1-.83,3.31,28.1,28.1,0,0,0-4.17,13.18,12.48,12.48,0,0,1-.32,1.81c-.52,2.46-.7,5-2,7.27a3.88,3.88,0,0,0-.24,1c-.37,1.46-.84,2.9-1.1,4.38a68,68,0,0,0-1.25,8.7A29.87,29.87,0,0,1,4,268.29a24.43,24.43,0,0,0-.48,3.84c-.13,1.56-.1,3.13-.31,4.68-.31,2.3-.94,4.57-1.12,6.88a16.22,16.22,0,0,1-.92,5.2A6.55,6.55,0,0,0,1,291.52a30.91,30.91,0,0,1-.55,8,8.27,8.27,0,0,0,0,3.25A10,10,0,0,1,.26,308a6.72,6.72,0,0,0,0,3.64,18.41,18.41,0,0,1,.22,3.64,20,20,0,0,0-.1,3.27c.64,3.57.17,7.19.65,10.77A4.49,4.49,0,0,1,.89,331a13,13,0,0,0,0,5.09c.41,2.82,1,5.74.67,8.52-.39,3.25.86,6.06,1.45,9a17.76,17.76,0,0,1,.62,6.05,10.19,10.19,0,0,0,.48,4.45,11.56,11.56,0,0,1,.61,3.62c-.12,4.14,1.4,7.91,2.44,11.8.36,1.3.66,2.62,1,3.93l-.5.13c.31,1.24.61,2.48.93,3.72.49,1.92,1,3.83,1.49,5.75s.48,4.08,1.4,5.74c1.87,3.36,1.68,7.36,3.64,10.64a2.65,2.65,0,0,1,.23,1.2c.19,4.06,1.9,7.69,3.15,11.45.43,1.29.91,2.57,1.21,3.89A10.11,10.11,0,0,0,22,430.49,13.91,13.91,0,0,1,24.06,434c.51,1.18.65,2.52,1.14,3.72.66,1.64,1.52,3.19,2.26,4.8a26.78,26.78,0,0,1,1.7,3.9,26.42,26.42,0,0,0,4.59,9.55c1.76,2.2,3.28,4.52,3.61,7.49a5.74,5.74,0,0,0,1.51,2.82,27.39,27.39,0,0,1,4.5,7.29,28.08,28.08,0,0,0,3.9,6.94c2.29,2.69,3.64,5.92,5.72,8.71,1.47,1.95,2.41,4.29,4.26,6a6.91,6.91,0,0,1,.9,1.37c.61.9,1.23,1.8,1.83,2.72s1.08,1.73,1.66,2.57c.73,1.06,1.5,2.09,2.27,3.13a14.35,14.35,0,0,1,1.92,2.61,19.64,19.64,0,0,0,4.09,5.86c1.79,1.88,3.43,3.9,5.17,5.83a11.67,11.67,0,0,0,2.07,2,10.34,10.34,0,0,1,3.27,3.59,12.42,12.42,0,0,0,3,3.6c3,2.27,5,5.45,7.59,8,1.07,1,2,2.23,3.08,3.27a6.61,6.61,0,0,1,2.27,3.34,4.38,4.38,0,0,0,3.88,3.7,6.33,6.33,0,0,1,3.31,1.93c1.06,1.06,2.26,2,3.41,2.91.74.61,1.49,1.2,2.25,1.79a40.19,40.19,0,0,0,3.59,2.71,22,22,0,0,1,4.95,4,18.9,18.9,0,0,0,3.12,2.3,12,12,0,0,1,2.78,2.06c3.1,4.18,8.23,5.83,11.69,9.54a5.34,5.34,0,0,0,.87.54c2.83,1.91,5.62,3.9,8.5,5.73s5.8,3.5,8.72,5.23c.71.41,1.48.72,2.18,1.14,2.1,1.28,4.16,2.61,6.27,3.87a13.65,13.65,0,0,0,1.88.81c.7.29,1.39.58,2.09.85,4.44,1.67,8.35,4.36,12.43,6.67,3.38,1.91,7.09,2.87,10.51,4.57a23.81,23.81,0,0,1,3.24,1.71,17,17,0,0,0,4.8,2.27c4.23,1.33,8.58,2.33,12.56,4.42a12.51,12.51,0,0,0,6.27,1.76,5.75,5.75,0,0,1,2.13.65c1.27.5,2.51,1.07,3.78,1.56,1.92.74,3.9,1.32,5.76,2.18a18.92,18.92,0,0,0,8.54,1.9,7.29,7.29,0,0,1,3.91,1,5.51,5.51,0,0,0,2.32.67,34.46,34.46,0,0,1,10.17,2.25,21.88,21.88,0,0,0,7.22,1.34,34.13,34.13,0,0,1,7.46,1.18,12.88,12.88,0,0,0,5.83.7,9.06,9.06,0,0,1,5.24.58,6.86,6.86,0,0,0,4,.37,5.46,5.46,0,0,1,3,.38,8.31,8.31,0,0,0,4.38.76,12.41,12.41,0,0,1,2.64.24,6.69,6.69,0,0,0,2,.3,23.53,23.53,0,0,1,8.93-.1c1.21.19,2.43.3,3.65.37,1.42.07,2.84.1,4.26.07,1.15,0,2.31-.22,3.46-.19,3.26.07,6.48.65,9.78-.16a16.22,16.22,0,0,1,5.51.08c4.67.53,9.16-1.4,13.82-.9a2.73,2.73,0,0,0,.4-.05c3.14-.25,6.28-.69,9.42-.68S359,627,362,626.8a2.22,2.22,0,0,0,.93-.42,5.34,5.34,0,0,1,3.76-.58,9.21,9.21,0,0,0,2.62,0c1.76-.24,3.5-.59,5.25-.88a23.22,23.22,0,0,0,2.63-.42c3.93-1.17,7.77-2.66,11.92-3a10.34,10.34,0,0,0,1.56-.48c1.05-.27,2.1-.54,3.17-.75a27.6,27.6,0,0,0,3.43-.59c2.34-.75,4.61-1.72,6.94-2.51a21.42,21.42,0,0,1,3.94-1,16.41,16.41,0,0,0,5.48-1.61,19.36,19.36,0,0,1,3.59-1.4c2.29-.65,4.75-.82,6.54-2.72a2.78,2.78,0,0,1,1.28-.61c2.32-.61,4.65-1.12,7-1.77a12.62,12.62,0,0,0,3.21-1.29,47.31,47.31,0,0,1,13.17-5.61A11,11,0,0,0,452.5,599a16.24,16.24,0,0,1,2.81-1.61c1.72-.85,3.46-1.65,5.19-2.46a18.93,18.93,0,0,1,3-1.31,5.49,5.49,0,0,0,3-2,6.28,6.28,0,0,1,1.75-1.7,29.18,29.18,0,0,1,5.63-2.45,10.55,10.55,0,0,0,5.15-3.17,15.81,15.81,0,0,1,2.68-2.19c1.23-.85,2.53-1.63,3.82-2.4a60.57,60.57,0,0,1,6.54-3.82,16,16,0,0,0,6.5-4.84,6.16,6.16,0,0,1,1.3-1.3c3.68-2.58,7.4-5.13,11.09-7.72a4.7,4.7,0,0,0,1.3-1.29,9.75,9.75,0,0,1,4-3.45c2.28-1.26,4.68-2.51,6.16-4.7,1.69-2.5,4.07-4.23,6.17-6.27,1.08-1,2.31-1.91,3.49-2.83a35.83,35.83,0,0,0,3.1-2.33c1.48-1.42,2.65-3.2,4.26-4.43,2.87-2.19,5-5,7.46-7.59,2.92-3,4.94-6.88,8.49-9.36a3.08,3.08,0,0,0,.94-1.32,15.49,15.49,0,0,1,4.29-5.44,39.33,39.33,0,0,0,7.22-9.89,21.24,21.24,0,0,1,4.13-5.81,18.1,18.1,0,0,0,5-7.16,10.61,10.61,0,0,1,2.26-3.61c2.48-2.39,3.93-5.39,5.56-8.31.76-1.36,1.64-2.66,2.41-4,.44-.76.75-1.6,1.14-2.39.6-1.21,1.16-2.45,1.85-3.61,1-1.65,2.41-3.11,3-4.87,1.24-3.72,3.83-6.64,5.41-10.12,1.49-3.28,3.12-6.52,4.36-9.89.64-1.75,1-3.53,2.44-4.87a2.88,2.88,0,0,0,.6-1.07c1.42-3.91,2.81-7.83,4.23-11.74a3.79,3.79,0,0,1,.68-1.25c2.13-2.4,2.75-5.31,2.8-8.39a7.36,7.36,0,0,1,.95-3.51,20.94,20.94,0,0,0,1.2-3.21c.18-.52.27-1.06.47-1.57.81-2.11,1.68-4.19,2.46-6.31a6.24,6.24,0,0,0,.4-2,28.82,28.82,0,0,1,1.89-9.23c1.47-3.79,1.93-7.82,2.82-11.74.76-3.33,1.1-6.75,1.71-10.12.57-3.08,1.62-6.08,1.43-9.29a3.33,3.33,0,0,1,.4-1.78c1.45-2.55,1.42-5.23.89-8a7.62,7.62,0,0,1,.62-4.59,16.44,16.44,0,0,0,.91-4.15c.23-1.76.33-3.53.41-5.3a10.33,10.33,0,0,0-.14-2.84,11.58,11.58,0,0,1-.14-4.27,40.12,40.12,0,0,0,.48-7.56,83.4,83.4,0,0,1,.15-16.19,8,8,0,0,0-.27-2.83C629.62,299.23,630.07,296.67,629,294.38ZM103.2,453.86c-.44,4.42-.94,8.85-1.38,13.28a18.52,18.52,0,0,0,0,3.07,12.31,12.31,0,0,1-.83,5.64,8.69,8.69,0,0,0-.58,4.62,6.83,6.83,0,0,1-.1,2.85A38.21,38.21,0,0,0,99,491c-.22,2.65-.75,5.27-1.1,7.9-.16,1.15-.2,2.32-.32,3.47-.1,1-.2,1.91-.37,2.85-.1.6-.36,1.18-.47,1.79-.5,2.93-.5,5.91-1.12,8.86-.39,1.84.36,3.91.59,5.88a5,5,0,0,1,.08,1.63c-.14.61-.4,1.48-.84,1.65s-1.25-.23-1.81-.54c-.39-.21-.64-.7-1-1a31,31,0,0,0-3-2.74,9.87,9.87,0,0,1-3-3.54,11.35,11.35,0,0,0-2.33-3c-2.11-2-4.26-3.78-5.68-6.4-.79-1.47-2.19-2.6-3.27-3.93a22,22,0,0,1-2.56-3.41A25.23,25.23,0,0,0,67.07,493c-2.13-1.83-3.15-4.44-4.62-6.74-.8-1.26-1.44-2.66-2.35-3.83a5.17,5.17,0,0,1-.38-6.31A15.48,15.48,0,0,0,62,470.18a9.76,9.76,0,0,1,.67-1.71c.33-1,.6-1.93.94-2.89a10.8,10.8,0,0,1,1.16-2.79,26,26,0,0,0,4.44-9.17,12.93,12.93,0,0,1,1.54-3.09c.7-1.26,1.47-2.47,2.19-3.71,1.11-1.88,2.19-3.77,3.29-5.66,0-.06.08-.11.11-.17q2.1-4.2,4.19-8.41c1-2.08,2-4.18,3.08-6.23,1-1.81,2-3.55,3-5.35.56-1,1-2.1,1.55-3.13.68-1.33,1.41-2.64,2.1-4,.32-.61.52-1.27.87-1.86,1.12-1.86,2.26-3.71,3.44-5.55.16-.24.55-.35,1.08-.66A20.65,20.65,0,0,1,96.68,408,33.27,33.27,0,0,1,98,418.38a28.63,28.63,0,0,0,1.1,6.63c.74,2.95,1.87,5.82,2,9,0,1.94.81,3.87,1.16,5.82s.64,3.9.84,5.86c.17,1.7.21,3.42.25,5.13A24.24,24.24,0,0,1,103.2,453.86Zm207.1,165.3a2.84,2.84,0,0,1-1.84,1.11,27.91,27.91,0,0,1-4.29,0c-2.18-.1-4.36-.25-6.54-.4a30.21,30.21,0,0,1-4.87-.46,23.58,23.58,0,0,0-9.16-.49,5.7,5.7,0,0,1-1.84,0c-2.36-.42-4.69-1-7-1.37-2.77-.48-5.54-.87-8.31-1.33s-5.23-.95-7.86-1.38a69.28,69.28,0,0,1-7.09-1.11c-3.26-.92-6.82-.69-9.84-2.62a4.34,4.34,0,0,0-2.56-.48,6.65,6.65,0,0,1-4.12-.94,2.36,2.36,0,0,0-.92-.44c-4.09-.33-7.41-3.23-11.53-3.44a5,5,0,0,1-1.57-.46c-2.21-.92-4.41-1.87-6.62-2.79a5.76,5.76,0,0,0-1.75-.56c-3.48-.19-6.36-2-9.39-3.36a5.33,5.33,0,0,0-1.73-.63c-2.28-.13-4.09-1.38-6.09-2.23a79.26,79.26,0,0,1-10.77-5.43,21.76,21.76,0,0,0-2.28-.93c-1-.49-2-1.08-3.08-1.57a8.35,8.35,0,0,0-3-1.2c-3-.07-5.19-1.63-7.27-3.43a18.07,18.07,0,0,0-3.4-2.22c-2.34-1.27-4.5-2.87-6.8-4.22-2.47-1.45-5-2.74-7.53-4.15-2.08-1.18-4.11-2.42-6.15-3.66a3.1,3.1,0,0,1-.91-.82,10.55,10.55,0,0,0-4.22-3.49,2.83,2.83,0,0,1-1.82-2.75c2.61.52,5.08,0,7.42,1.06a7.09,7.09,0,0,0,2.56.59,9,9,0,0,1,3.74.92,19.68,19.68,0,0,0,9,1.94,17.44,17.44,0,0,1,3.82.55c1.4.27,2.79.66,4.19,1,1.86.43,3.73.84,5.6,1.26.73.16,1.47.32,2.21.43,1.48.21,3,.38,4.46.57a7.58,7.58,0,0,0,.81.13c2.32.06,4.63.12,7,.16,2.67,0,5.33.09,8,.09,2.94,0,5.89,0,8.83,0,1.29,0,2.59.09,3.88.1,2.39,0,4.79.12,7.17,0a17.44,17.44,0,0,1,4.89.23,14.28,14.28,0,0,0,3.86.28,57.38,57.38,0,0,1,12.9.23,23.4,23.4,0,0,0,6.73-.16,36.66,36.66,0,0,1,8.77-.4c2,.22,4.08-.27,6.12-.42,1.43-.1,2.87-.16,4.3-.23h.2c5.68.12,11.36.31,17,.33a65.48,65.48,0,0,0,6.55-.55,3.49,3.49,0,0,0,1.19-.31c2.29-1.18,4.7-.9,7-.39a9.48,9.48,0,0,0,6.22-.49,6.48,6.48,0,0,1,1-.35c1.73-.49,2.79,0,3.39,1.69a10.86,10.86,0,0,1,.54,3.21,17.36,17.36,0,0,0,1,6.63c.54,1.26.36,2.83.54,4.25a12.9,12.9,0,0,0,.51,3,6.39,6.39,0,0,1,.27,4,9.9,9.9,0,0,0,.19,4.65c.61,3.26,1.36,6.5.59,9.94a11.71,11.71,0,0,0,.58,7.85C312,615.68,311.36,617.51,310.3,619.16Zm1.92-61.68a1.73,1.73,0,0,1-1.92,1.91,5.75,5.75,0,0,1-1.22-.16,5.17,5.17,0,0,0-1.4-.3c-3.17.34-6.4-.43-9.54.43a10.27,10.27,0,0,1-6.46.11,5.55,5.55,0,0,0-4.2.49,7.46,7.46,0,0,1-5.59.3,7.55,7.55,0,0,0-2.84-.3c-2.86.22-5.71.62-8.57.81s-5.89.75-9,.19c-2.86-.51-5.87-.24-8.81-.29-1.44,0-2.88,0-4.32.07a10,10,0,0,0-2.64.27,14.66,14.66,0,0,1-6.71.34,12.32,12.32,0,0,0-4.68.25,13.3,13.3,0,0,1-3.46.24c-3.48-.07-7-.2-10.45-.33a3.68,3.68,0,0,1-1.41-.19c-1.84-.81-3.72-.64-5.65-.54s-4-.23-5.94-.29a14.61,14.61,0,0,0-3.44.14,9.87,9.87,0,0,1-4.26,0,18.35,18.35,0,0,0-3.64-.09c-.26,0-.53.18-.79.18-3.27,0-6.53-.05-9.79-.11-1.09,0-2.17-.21-3.25-.18a12,12,0,0,1-5.43-.83,5.27,5.27,0,0,0-1.37-.46c-3.23-.48-6.47-.92-9.71-1.39a3.72,3.72,0,0,1-1.4-.28c-2.81-1.66-6-1.12-9-1.51a19.33,19.33,0,0,1-5.87-1.63,25.73,25.73,0,0,0-3.87-1.26,32.36,32.36,0,0,1-4.32-1.19c-3.37-1.48-7-2-10.52-2.67a12.16,12.16,0,0,1-4.23-1.42,9.46,9.46,0,0,0-2.65-1,24.36,24.36,0,0,1-6.53-2.37,14.45,14.45,0,0,0-3.86-1.33,6.37,6.37,0,0,1-3.33-1.88,12,12,0,0,0-2.5-2.09,4.24,4.24,0,0,1-2.19-4.12c.19-2.66.49-5.32.64-8a35.75,35.75,0,0,0-.13-3.87c0-.75-.23-1.5-.21-2.25a31.67,31.67,0,0,0-.27-6.94,8.38,8.38,0,0,1,.61-4,17.76,17.76,0,0,0,1-7.68,8.7,8.7,0,0,1,.47-3.41c1.13-3.62,2-7.23,1.36-11.1a8.29,8.29,0,0,1,1.28-6.3,4.79,4.79,0,0,0,.57-3.36c-.07-.92-.28-1.93,1-2.82.5.65.93,1.15,1.29,1.71.83,1.25,1.65,2.52,2.43,3.81a6.9,6.9,0,0,1,1,2,21.74,21.74,0,0,0,1.84,4.75c1.45,3.17,2.71,6.42,4,9.66a49,49,0,0,0,2.09,5.54,28.46,28.46,0,0,0,3.76,5.07,3.46,3.46,0,0,0,2.27.73,6,6,0,0,0,5.93-5.86,4,4,0,0,0-2-3.79,6.11,6.11,0,0,1-3-4.83,10.9,10.9,0,0,0-1.54-4.41c-2.06-3-2.88-6.35-4-9.64a28.49,28.49,0,0,0-3.11-6.22,15.77,15.77,0,0,1-1.41-3.13c-.51-1.41-.88-2.87-1.38-4.29-1.11-3.15-2.23-6.3-3.42-9.42a13.44,13.44,0,0,0-1.46-2.69,9.39,9.39,0,0,1-1.82-4.52,18.07,18.07,0,0,0-.52-2c-.27-1.26-.5-2.53-.73-3.79a34.57,34.57,0,0,0-.71-3.81,17,17,0,0,1-.81-5.87,20.47,20.47,0,0,0-1.39-9.47,5.09,5.09,0,0,1-.35-1.6c-.38-4.21-.69-8.42-1.12-12.63-.2-2-.68-4-.94-6.07-.14-1.14-.09-2.3-.15-3.45-.1-2.25-.2-4.5-.33-6.75,0-1-.2-1.91-.22-2.87a7.25,7.25,0,0,0-1.65-4.34,3.44,3.44,0,0,0-1.78-1.29c-2.47-.57-4.82-.62-6.83,1.49A42.05,42.05,0,0,0,89.86,395a16.62,16.62,0,0,1-2.06,2.79,14.67,14.67,0,0,0-3.32,5.38c-1.65,5.06-4.49,9.51-7.22,14A19.18,19.18,0,0,0,76,420.38a14.23,14.23,0,0,1-.75,2.11c-1.15,1.94-2.5,3.76-3.56,5.74-2.24,4.2-5.47,7.9-6.23,12.85-.15,1-1,1.88-1.55,2.82s-1.07,1.72-1.52,2.62c-1.46,2.93-2.68,6-4.38,8.78a21.82,21.82,0,0,0-3.39,7.84,12.85,12.85,0,0,1-1.21,3.48c-.59,1.22-1.36,1.39-2.24.45-2.15-2.28-4.54-4.39-5.13-7.76a4.83,4.83,0,0,0-1.32-2.24,6.25,6.25,0,0,1-1.82-3.79,10.15,10.15,0,0,0-1-2.85c-.55-1.25-1.14-2.47-1.79-3.67a19.91,19.91,0,0,0-2-3.29,9.12,9.12,0,0,1-1.92-3.57c-.26-1-.74-1.9-1.09-2.86a22.11,22.11,0,0,1-1-3.11,11.86,11.86,0,0,0-1.76-4.1,12.21,12.21,0,0,1-1.22-11.37,23.3,23.3,0,0,1,1.72-3.28,10.55,10.55,0,0,0,1.54-5.05,8.14,8.14,0,0,1,.76-2.73q1.6-4,3.33-7.93c1-2.25,2.07-4.46,3.1-6.7.43-.92.84-1.86,1.23-2.8s.76-1.91,1.13-2.86a6.87,6.87,0,0,0,.67-1.92,7.74,7.74,0,0,1,1.88-4.45,58.6,58.6,0,0,0,6.21-10.6c1.26-2.66,2.68-5.24,4-7.85a2.08,2.08,0,0,1,.2-.36C59.83,359,61,355,63,351.6a11.93,11.93,0,0,1,2-2.34,20,20,0,0,0,3.57-5,44,44,0,0,1,3.33-4.66c.32-.44.84-.8,1-1.29,1.12-3.52,4.38-5.14,6.66-7.62,1.06-1.16,2.11-2.33,3.22-3.43,2-1.92,3.85-3.89,5.93-5.66,1.65-1.42,3.53-2.57,5.3-3.85a2.66,2.66,0,0,0,.76-.69c1.94-3,5.09-4.7,7.7-7a18.8,18.8,0,0,0,1.72-2c1-1.24,1.91-1.4,3.17-.4s2.45,2.18,3.67,3.27a15.81,15.81,0,0,0,1.7,1.48,16.32,16.32,0,0,1,3.94,3.53,59.2,59.2,0,0,0,4.6,4.64,4.61,4.61,0,0,0,3.12,1.38,3.74,3.74,0,0,1,3.26,2.11,45.17,45.17,0,0,0,3,4.15,14.56,14.56,0,0,1,1.55,1.91c1.46,2.94,4.21,4.64,6.45,6.81,1.51,1.46,3.36,2.56,5,3.89,2.18,1.76,4.23,3.68,6.47,5.36,2.44,1.83,4.72,3.93,7.69,5a5.47,5.47,0,0,1,1.86,1.24,43,43,0,0,0,8.32,6,22.07,22.07,0,0,1,2.83,2.32,23.32,23.32,0,0,0,3.28,2.72,53.28,53.28,0,0,1,8.86,6.29,13.39,13.39,0,0,0,3.46,2.18c2.31,1,4.72,1.79,7.09,2.67a6.48,6.48,0,0,1,1.33.53c2.89,1.93,6.21,2.82,9.4,4.05a19.38,19.38,0,0,1,3.78,2,25.72,25.72,0,0,0,6.27,3c1.81.6,3.5,1.54,5.25,2.31q4.6,2,9.21,4.06a3.56,3.56,0,0,0,1.4.3c3-.09,5.73,1.05,8.45,2.23a8.59,8.59,0,0,0,3.56.72,20.52,20.52,0,0,1,6.65,1.1,33.51,33.51,0,0,0,5,1c3.31.5,6.63,1,9.95,1.37,2,.22,4.11.1,6.16.27s4.17.57,6.32,0c.74-.2,1.67.39,2.53.55a14.56,14.56,0,0,0,3.18.43c1.78-.09,3.53-.45,5.3-.63a10.37,10.37,0,0,1,2.67,0,25.7,25.7,0,0,0,5.48.6c1.54,0,2.1.83,2.16,2.38.09,2.25.14,4.51.45,6.73.52,3.79,1.26,7.55,1.83,11.34a15.49,15.49,0,0,1,.1,3.47,20.87,20.87,0,0,0,1.18,7.86,44.84,44.84,0,0,1,1.33,7.24c.47,3.31.77,6.65,1.25,10,.44,3,1,5.92,1.52,8.88.47,2.63,1.12,5.23,1.38,7.88s1,5.36.42,8.14a6.53,6.53,0,0,0,.39,3c.71,2.25-.14,4.34-.64,6.43-.24,1-1.33,1-2.24,1.07a55.39,55.39,0,0,1-11.86-.57,14.5,14.5,0,0,0-3.27-.24,30.37,30.37,0,0,1-10.34-1.25,6.24,6.24,0,0,0-2.43-.13,9.36,9.36,0,0,1-4.42-.55c-1.75-.55-3.6-.8-5.4-1.21a18.25,18.25,0,0,1-2.94-.81,27.75,27.75,0,0,0-7.46-2.21,17.63,17.63,0,0,1-2.68-1,8.75,8.75,0,0,0-3.13-.71,9.27,9.27,0,0,1-5.34-1.1,51,51,0,0,0-7.1-3.62,57,57,0,0,1-6-3c-2.46-1.19-5-2.26-7.43-3.47-2.2-1.08-4.35-2.27-6.52-3.42a1.48,1.48,0,0,1-.49-.36c-2.82-3.4-7-4.93-10.31-7.64a38,38,0,0,1-4.11-3.68,17.53,17.53,0,0,0-4.87-3.72,26,26,0,0,1-7.44-6.39c-2.54-2.95-4.88-6.07-7.32-9.11a14.62,14.62,0,0,0-1.31-1.3,6.51,6.51,0,0,1-.9-.83c-1.6-2.37-3.12-4.79-4.74-7.13a70,70,0,0,1-4.88-8c-1.26-2.45-3.55-2.85-6-2.41a4.25,4.25,0,0,0-2.95,6,11.44,11.44,0,0,1,.87,2.08,14.1,14.1,0,0,0,2.45,4.44c1.92,2.73,3.82,5.47,5.84,8.13,1.43,1.88,2.45,4.08,4.37,5.6a2.37,2.37,0,0,1,.62.81c1.5,2.95,4,5,6.44,7.09a9.78,9.78,0,0,1,2,2.3,9.3,9.3,0,0,0,3.63,3.52,7.71,7.71,0,0,1,2.15,1.84c2.07,2.41,4.16,4.71,7.24,5.91a8.63,8.63,0,0,1,2.39,1.87c.51.46.84,1.13,1.39,1.51,2.12,1.46,4.31,2.84,6.46,4.26a13.29,13.29,0,0,1,1.8,1.33c3.23,3.14,7.19,4.94,11.33,6.45a22.72,22.72,0,0,1,3.26,1.66c1,.56,1.95,1.28,3,1.77,2.1,1,4.37,1.62,6.13,3.27a1.72,1.72,0,0,0,.91.46c3.79.4,6.74,3.33,10.6,3.56a7.35,7.35,0,0,1,1.91.73,8.15,8.15,0,0,0,2.12.71,22.59,22.59,0,0,1,7.64,2.28,9.89,9.89,0,0,0,4.38.93,16.1,16.1,0,0,1,7.12,1.72c3.87,1.72,7.84,2.79,12.15,2.07a7.34,7.34,0,0,1,3.21.35,18.59,18.59,0,0,0,6.28.86c.88,0,1.77.12,2.66.12a8.92,8.92,0,0,0,2.43-.14,13.2,13.2,0,0,1,6.31,0c1.34.28,2.67.57,4,.76a2.24,2.24,0,0,1,2,1.75,7.38,7.38,0,0,1,.35,1.6c.15,2.52.21,5.05.4,7.56a22,22,0,0,0,.56,3.19,9.77,9.77,0,0,1,.54,1.75,69.94,69.94,0,0,1,0,8.19,38.9,38.9,0,0,0-.07,7.78c.21,1.9.12,3.82.23,5.73a27.18,27.18,0,0,0,.35,2.84c.35,2.22.73,4.44,1.1,6.67a36.83,36.83,0,0,1,.74,4.86C312.31,549.29,312.26,553.39,312.22,557.48Zm-197-266.24a39.42,39.42,0,0,1,6.21-3.56c2.92-1.3,6-2.33,9-3.42a19.91,19.91,0,0,1,2.64-.54c2.34.45,4.94.77,7.41,1.49a12.38,12.38,0,0,1,6.1,4.33,35.62,35.62,0,0,0,2.68,2.82c1.17,1.15,1.19,1.72-.13,2.56a16.63,16.63,0,0,1-5.52,2.62,16,16,0,0,0-3.51,1.6c-.3.15-.52.46-.82.61-2.84,1.34-5.18,3.47-7.89,5a12.18,12.18,0,0,0-3.72,3.74c-2.13,2.89-2.44,2.93-4.91.34-2.27-2.38-4.6-4.69-6.77-7.15a22.11,22.11,0,0,1-2.84-4.24C112.29,295.83,113.37,292.52,115.25,291.24ZM315.3,418.43a19.39,19.39,0,0,0-.54,7.13,10.82,10.82,0,0,1-.21,3.05c-.29,1.68-.68,3.34-1.07,5a9.72,9.72,0,0,1-.65,1.4c-.45-.54-.76-.76-.82-1-.53-2.12-1.05-4.24-1.47-6.38-.24-1.2-.26-2.44-.4-3.66-.39-3.45-.41-7-1.31-10.33a41.69,41.69,0,0,1-1.08-9.33,27.51,27.51,0,0,1,0-2.87c.09-1.66.58-2.16,2.25-2.31,2-.17,4-.34,5.93-.42,2.41-.09,3.09.87,2.41,3.17a13,13,0,0,0-.67,3c-.12,1.91-.6,3.8-.72,5.64A39.9,39.9,0,0,1,315.3,418.43ZM478.86,572.71a17.27,17.27,0,0,0-3.3,2.37,9.54,9.54,0,0,1-4.37,2.52,13,13,0,0,0-3.24,1.67,14.18,14.18,0,0,0-2.11,1.61c-2.15,1.94-5.1,2.33-7.41,3.89a36.23,36.23,0,0,1-9.2,4.4,13.59,13.59,0,0,0-4.63,2.6c-2.34,2-5.23,2.66-7.91,3.8-2.95,1.25-6,2.22-9,3.33q-3.45,1.29-6.89,2.61c-1.72.67-3.43,1.39-5.15,2-2.8,1.08-5.59,2.17-8.42,3.16a9.47,9.47,0,0,1-2.81.48,6,6,0,0,0-3.66,1.12,5.31,5.31,0,0,1-3.46,1.08,3.52,3.52,0,0,0-1.42.13c-3.82,1.82-8.28,1.09-12.07,3.05a4.39,4.39,0,0,1-1.59.34,46.2,46.2,0,0,0-11.42,2.34c-2.08.73-4.44.62-6.67.92a9.41,9.41,0,0,0-2.79.56,10.15,10.15,0,0,1-4.79.86,9.82,9.82,0,0,0-3.07.2,22.93,22.93,0,0,1-8.12.62,10.59,10.59,0,0,0-3.07.27,21.05,21.05,0,0,1-5.49.45,7.25,7.25,0,0,0-3.12.77c-3.64,1.61-7.15,1-10.45-.74a4.71,4.71,0,0,1-2.22-4.41c.06-2.57-.64-5-.9-7.51-.3-2.81-.38-5.68-.42-8.5,0-1.81.28-3.64.17-5.5a17.34,17.34,0,0,0-1.07-5.62,5.44,5.44,0,0,1-.34-1.6c-.14-1.83.58-2.68,2.43-2.79a19.79,19.79,0,0,1,3.08,0c2.92.28,5.83.77,8.76.91,3.59.16,7.22.82,10.8-.29a8.74,8.74,0,0,1,2.24-.24c2.12-.09,4.24-.17,6.36-.21,1.09,0,2.18.08,3.27.11.75,0,1.5,0,2.24,0a16.78,16.78,0,0,1,2.45-.06,22.65,22.65,0,0,0,8.93-.84,8.39,8.39,0,0,1,2.81-.48c3.06.25,6-.45,9-.82a49.29,49.29,0,0,1,6.55-.31,27.08,27.08,0,0,0,6.26-.82c2.91-.67,5.76-1.64,8.83-1.73,1.87-.05,3.71-.88,5.58-1.27,1.66-.35,3.35-.61,5-.86,1.42-.22,2.89-.21,4.27-.56a22.1,22.1,0,0,1,6.72-.61,40,40,0,0,0,10-.91,6.51,6.51,0,0,0,1.57-.49,11.15,11.15,0,0,1,6.82-.82,11.42,11.42,0,0,0,6-.6,16.84,16.84,0,0,1,4-.87c4.75-.56,9.51-1.06,14.26-1.55,2-.21,4-.34,5.93-.54a15.65,15.65,0,0,0,2-.39c3.17-.78,4-.7,7.3.89A8.3,8.3,0,0,1,478.86,572.71Zm4.58-3.12c-.12,0-.28-.14-.43-.22.12-.14.22-.33.37-.39s.29.09.55.18C483.71,569.36,483.59,569.56,483.44,569.59ZM572.75,447a8.45,8.45,0,0,0-.21,4.24,17.07,17.07,0,0,1,0,3.85c-.1,2.12-.28,4.23-.42,6.34,0,.14,0,.28,0,.41-.48,3.07-.1,6.13,0,9.21a9.94,9.94,0,0,1-.69,3.58,7.65,7.65,0,0,0-.39,4.43,6.64,6.64,0,0,1-1.15,5.65c-1.45,2.07-2.67,4.26-4.62,6a59.66,59.66,0,0,0-5.19,5.79,16.86,16.86,0,0,0-1.09,1.73c-.52.8-1.06,1.58-1.62,2.35a22.89,22.89,0,0,0-1.47,2,51.7,51.7,0,0,1-6.35,8.54,35.59,35.59,0,0,1-5.1,5.24,6,6,0,0,0-1.17,1.42,23.38,23.38,0,0,1-5.16,5.8,8.26,8.26,0,0,0-2.28,2.61c-1.41,2.61-3.72,4.18-6.12,5.63-1.77,1.07-2.53.65-3-1.4a3,3,0,0,1-.15-.81,64.63,64.63,0,0,1,.78-7.9c.61-2.84,1.16-5.58.59-8.51a13.74,13.74,0,0,1,.17-4.28c.34-2.85.79-5.69,1.2-8.53a4.62,4.62,0,0,0,.11-.61c0-3.07-.14-6.13-.11-9.2,0-3.88-.59-7.77.32-11.64.32-1.39.34-2.85.55-4.27.09-.69.3-1.36.57-2.49a10.66,10.66,0,0,1,1.38,1.46,4.66,4.66,0,0,1,.45,1.57c.24,1.9.91,3.53,3,4a5.73,5.73,0,0,0,6.11-1.91,4.35,4.35,0,0,0,.65-5.32c-1.83-3.21-2.55-6.74-3.29-10.29a7.68,7.68,0,0,0-1-2.23c-1.76-3-3.36-6-3.65-9.5a6.29,6.29,0,0,0-.36-1.6c-2-5.42-2-11.15-2.68-16.79a11.3,11.3,0,0,0-.29-2,12.33,12.33,0,0,1,0-7.29,7.69,7.69,0,0,0,0-4.65,16.24,16.24,0,0,1-.39-6.51c.19-2.58.2-5.18.21-7.77,0-1.5-.18-3-.25-4.5-.11-2.43-1.62-4.34-3.64-4.54-2.88-.29-5.56,1.38-6,3.84a4.31,4.31,0,0,0,.25,2,5.72,5.72,0,0,1-.16,4.21,8.51,8.51,0,0,0-.31,4.62c.47,3.78,1.11,7.53.33,11.42a15.8,15.8,0,0,0,.12,8.13,5.63,5.63,0,0,1-.06,3.84,9.42,9.42,0,0,0-.27,4.86,21.92,21.92,0,0,1,.16,7.54c-.31,1.63.09,3.4.12,5.11a22.4,22.4,0,0,1-.08,4.26,25.62,25.62,0,0,0,0,9.6,7.77,7.77,0,0,1,.11,2.45c-.3,2.37-.72,4.73-1,7.1-.29,2.17-.59,4.34-.73,6.53-.33,5.32-.59,10.66.3,16a8.73,8.73,0,0,1,0,2,19,19,0,0,0-.2,2.24,12.1,12.1,0,0,1-.93,6.22,4.26,4.26,0,0,0-.16,2.6c.72,3,.06,6-.41,8.94-.18,1.14-.33,2.28-.48,3.43s-.25,2-.41,3c-.52,3.24-1.19,6.46-.61,9.78a9.79,9.79,0,0,1,0,2.65c-.21,2.1-.56,4.2-.74,6.31a4.74,4.74,0,0,1-1.55,3.25c-2.48,2.23-4.62,4.83-7.72,6.38a17.55,17.55,0,0,0-4,3.2,4.8,4.8,0,0,1-3.27,1.45,7.1,7.1,0,0,0-2.93.75,6.9,6.9,0,0,1-5.36.44,16.26,16.26,0,0,0-3.21-.34c-.2,0-.42.09-.61.06-4.43-.6-8.7.84-13.07,1a12.51,12.51,0,0,0-2.19.49,22.37,22.37,0,0,1-3.4.72c-2.86.21-5.73.23-8.59.42-1.84.13-3.66.43-5.48.65l-5.48.68a29.38,29.38,0,0,0-5.26.76c-5,1.61-10.09,1.75-15.22,2a35.64,35.64,0,0,0-9.12,1.21,2.37,2.37,0,0,1-1,.19c-3.27-.53-6.34.82-9.53,1.1a142.42,142.42,0,0,0-14.15,2.34c-2.2.41-4.51.37-6.59,1.46a3.48,3.48,0,0,1-2,.11,10.88,10.88,0,0,0-4.88.36,4.18,4.18,0,0,1-1.21.23,26.68,26.68,0,0,0-8.51,1.12,2.51,2.51,0,0,1-1.22,0,10,10,0,0,0-5.25.51,5.51,5.51,0,0,1-1.82.21c-3.35.05-6.7,0-10,.13-2.05.05-3.81-.76-5.72-1.41.38-1.34,1.28-1.61,2.2-1.93,5.08-1.78,10.51-2.69,15.21-5.42a45.3,45.3,0,0,1,7.89-3.31c2.43-.86,4.6-2.46,7.25-2.78a.67.67,0,0,0,.38-.14c2.64-2.39,6.29-2.81,9.22-4.75a39.55,39.55,0,0,1,9.26-4.27A12.36,12.36,0,0,0,405,546a10.43,10.43,0,0,0,1.65-2.8,4.19,4.19,0,0,0-3.63-5.81,4.94,4.94,0,0,0-4.63,1.7,8.1,8.1,0,0,1-4.68,2.7,24,24,0,0,0-8.71,4.43,13.3,13.3,0,0,1-5.6,2.46,11.9,11.9,0,0,0-4.14,1.7,20.42,20.42,0,0,1-3.75,1.56c-1.32.51-2.66,1-4,1.5l-.17.11c-2.72,1.08-5.44,2.14-8.15,3.24-.81.34-1.59.76-2.37,1.16a22.07,22.07,0,0,1-3.45,1.7c-2.35.69-4.78,1.11-7.16,1.71-1.33.33-2.62.79-3.92,1.23-2,.69-4,1.41-6,2.12a2.23,2.23,0,0,0-.39.13c-3.06,2-6.62,2.54-10,3.46a21.45,21.45,0,0,1-4.86.64c-1.56.06-2.09-.76-1.61-2.28s1.13-2.81,1.59-4.24a31.66,31.66,0,0,0,.77-3.37,8.1,8.1,0,0,1,.19-1.42,8,8,0,0,0,0-5.82,1.37,1.37,0,0,1-.09-.4c-.12-2.92,0-5.86-1.3-8.61a2,2,0,0,1,0-.82c0-3.28.21-6.56.05-9.83-.18-3.62-.66-7.21-1-10.82a8.14,8.14,0,0,1-.16-1.83,59.84,59.84,0,0,0-.32-14.09c-.24-2.1-.67-4.18-.87-6.29a18.05,18.05,0,0,1,.06-4.09c.27-2,1.3-2.84,3.35-2.91,2.46-.08,4.93,0,7.4-.11.81,0,1.62-.24,2.44-.29,1.21-.08,2.43-.09,3.64-.13a11.75,11.75,0,0,0,3-.17,33,33,0,0,1,8.47-1.43,8.46,8.46,0,0,0,3.14-.83,9.17,9.17,0,0,1,4.94-1.07,6.84,6.84,0,0,0,3.55-.84,26.72,26.72,0,0,1,3.86-1.24,15.4,15.4,0,0,0,2.39-.55c1.8-.82,3.53-1.84,5.61-1.76,2.87-1.74,6.17-2.12,9.3-3.06s6-2.61,9-4a1.15,1.15,0,0,1,.37-.18c2.87-.23,5.09-1.92,7.28-3.49a26.87,26.87,0,0,1,8.8-4.25,1.69,1.69,0,0,0,.72-.39c2.26-2.1,5.19-3,7.79-4.49a50.06,50.06,0,0,0,6.84-5.19,14.18,14.18,0,0,1,3.41-2.22,13,13,0,0,0,3-2,39,39,0,0,1,5.83-4.5,16.58,16.58,0,0,0,4.14-3.62,19.34,19.34,0,0,1,4.18-3.9,4.75,4.75,0,0,0,1.54-1.33c1.15-1.8,2.94-2.79,4.56-4.06a34.54,34.54,0,0,0,7.81-8.36,36.48,36.48,0,0,1,3.49-4,8.92,8.92,0,0,0,1.77-2.21,15.62,15.62,0,0,1,3.86-5.51,15.93,15.93,0,0,0,4.25-6.45,10.17,10.17,0,0,1,1.5-2.43,4.56,4.56,0,0,0-2.79-7.06,3.24,3.24,0,0,0-3.05.84,15,15,0,0,0-2.28,2.87,12.66,12.66,0,0,1-3.37,3.81,5.84,5.84,0,0,0-1.95,2.54,17.09,17.09,0,0,1-4.72,6.61,45.72,45.72,0,0,0-7,7.75,25.4,25.4,0,0,1-3.09,3.23c-2.54,2.48-5.11,4.94-7.67,7.4-.64.61-1.29,1.21-1.95,1.79s-1.49,1.21-2.21,1.83c-2.38,2-5.25,3.45-7.33,5.87a2,2,0,0,1-.9.47,19.27,19.27,0,0,0-6.18,4,35.91,35.91,0,0,1-4.11,3.06,23.87,23.87,0,0,0-5.42,4,5.12,5.12,0,0,1-2.3,1.25,16,16,0,0,0-5.63,2.88,22,22,0,0,1-3.55,2c-4.14,2.1-8.83,3-12.58,5.94a2.76,2.76,0,0,1-.72.38L369,473.73a1,1,0,0,1-.4.1c-2.65-.18-4.87,1.05-7.22,2a46.14,46.14,0,0,1-8.55,2.85c-3.22.62-6.41,1.3-9.58,2.12-1.43.36-3,0-4.5.21-1.9.2-3.78.57-5.66.88a15.21,15.21,0,0,1-1.6.34c-3.07.16-6.14.29-9.21.41a11.19,11.19,0,0,1-1.64,0c-2-.19-2.44-.64-2.71-2.64a12.1,12.1,0,0,1,.3-6.09,5.27,5.27,0,0,0,.15-2,23,23,0,0,1,1.4-9.07,11.45,11.45,0,0,0,.44-3.43c.17-3.35.28-6.7.42-10a1.72,1.72,0,0,1,.1-.6c1.27-2.65,1.2-5.6,1.94-8.37a8.76,8.76,0,0,0,.3-1.82c.15-2.6.22-5.2.42-7.78a25.63,25.63,0,0,1,.63-3.21,23.51,23.51,0,0,0,.83-4,60.43,60.43,0,0,1,2.63-16.57,13.3,13.3,0,0,0,.47-3.84c0-2.67,1.23-4.5,3.83-5.12a18.06,18.06,0,0,1,5.07-.51,19.21,19.21,0,0,0,8.25-1.29,15.22,15.22,0,0,1,3.79-.57,9.49,9.49,0,0,0,2-.13,19.75,19.75,0,0,1,9.7-.87,4.8,4.8,0,0,0,5.07-2.38,6.39,6.39,0,0,0,.45-6.28,2.76,2.76,0,0,0-3.47-1.49,31.87,31.87,0,0,1-9.14.49.46.46,0,0,0-.2,0c-3.79,1.2-7.91.64-11.62,2.24a4.24,4.24,0,0,1-1.54.54c-3.52-.07-7.09.79-10.55-.31a5.58,5.58,0,0,0-4.91.32,6.29,6.29,0,0,1-2.36.55,36.92,36.92,0,0,0-4.24.53,21.62,21.62,0,0,1-9.37,0,9.33,9.33,0,0,0-4.27,0,4.2,4.2,0,0,1-1.82.18c-3.46-.71-6.95-.43-10.43-.34a8.77,8.77,0,0,1-1.85-.1c-3.75-.71-7.48-.22-11.23.12a6.23,6.23,0,0,1-2.79-.44,8.22,8.22,0,0,0-4.21-.58,13.13,13.13,0,0,1-2.26,0c-3.55-.17-7.1-.34-10.65-.56a14.56,14.56,0,0,1-3.24-.47,15.67,15.67,0,0,0-5-.79,5.31,5.31,0,0,1-2.15-.6,21.72,21.72,0,0,0-6.75-1.67,64.08,64.08,0,0,1-6.87-1.07,6.14,6.14,0,0,1-2.2-1.06,15.87,15.87,0,0,0-6.18-2.62,17.76,17.76,0,0,1-4.34-1.81,7.16,7.16,0,0,0-3.72-.94,5,5,0,0,1-3.28-1c-1.57-1.1-3.12-2.22-4.74-3.24a10.74,10.74,0,0,0-2.6-1.19,44.67,44.67,0,0,1-13.4-6.56,6.49,6.49,0,0,0-2.36-1.22,13.15,13.15,0,0,1-5.59-2.87c-1.35-1-3.06-1.67-4.22-2.86a11.72,11.72,0,0,0-6.21-3.67,1.62,1.62,0,0,1-.67-.46c-1.86-1.8-3.66-3.66-5.58-5.41a11.11,11.11,0,0,0-2.71-1.77,45.79,45.79,0,0,1-9.66-5.76,14.91,14.91,0,0,1-2.15-2.2,14.28,14.28,0,0,0-6.23-4.85,1.92,1.92,0,0,1-.56-.26c-2.5-2.11-5.06-4.15-7.46-6.37a32.17,32.17,0,0,1-2.74-3.55,7.45,7.45,0,0,0-1.66-1.51c-2.35-1.51-3.22-4.56-1.14-6.68a2.58,2.58,0,0,0,.46-.67c2.12-4.3,6.09-5.8,10.35-6.92a37.13,37.13,0,0,0,4.47-1.48,4.08,4.08,0,0,1,3.91.1,20.55,20.55,0,0,0,2.5.89c1.76.74,3.53,1.47,5.23,2.32,2.31,1.15,4.57,2.4,6.86,3.6.18.1.42.12.55.26,1.52,1.67,3.67,2.31,5.49,3.48,5.16,3.33,10.5,6.1,16.62,7.28,2.85.55,5.69,1.36,8,3.5,1.44,1.35,3.47,1.63,5.4,1.66a17.36,17.36,0,0,1,7.26,1.86c2.16,1,4.74,1.25,7.16,1.57a18.23,18.23,0,0,1,5.59,1.17,7.39,7.39,0,0,0,2.6.24,27,27,0,0,1,2.85.1c2,.31,4,.79,6,1.11a16.67,16.67,0,0,0,2.45,0c2.11,0,4.23,0,6.34.09,2.94.16,5.87.56,8.77-.28a3.93,3.93,0,0,1,1-.2,22.43,22.43,0,0,0,7.89-.92.81.81,0,0,1,.41,0c3,.85,5.8-.52,8.69-.79,2.39-.22,4.78-.38,7.17-.43a21.2,21.2,0,0,0,5.24-.82,43.65,43.65,0,0,1,6.26-1c2.51-.32,5-.5,7.54-.83a12,12,0,0,0,2.33-.78c3.54-1.31,7.12-2,10.84-.72a4.77,4.77,0,0,0,1.82.3,43.89,43.89,0,0,0,6.51-.61,169.57,169.57,0,0,1,17.05-2.63,19.73,19.73,0,0,0,4.8-.95,4.71,4.71,0,0,1,2.42-.11,7.88,7.88,0,0,0,5.38-.75,7.18,7.18,0,0,1,5.55-.72,6.69,6.69,0,0,0,2.05.1c2.38-.12,4.77-.28,7.15-.43a1.84,1.84,0,0,0,.41,0c3.24-1.29,6.63-.62,10-.72a14.09,14.09,0,0,0,1.84-.06,42.62,42.62,0,0,1,15.11.35,3.27,3.27,0,0,0,.82.09c2.5-.22,5-.4,7.5-.73a5.17,5.17,0,0,1,3.18.41,6,6,0,0,0,3.2.46,14.24,14.24,0,0,1,3.85.29,13.56,13.56,0,0,0,6.11,0,24,24,0,0,1,12.74.76,4.91,4.91,0,0,0,3.6-.16,5.71,5.71,0,0,1,5,.05,12.11,12.11,0,0,0,6,.63c3.18-.24,6.37-.18,9.57-.39s6.25.52,9.38.54c1.84,0,3.67-.22,5.46.39a1.15,1.15,0,0,0,.61,0c2.89-.77,5.71-.17,8.55.3a8.48,8.48,0,0,0,2.25.06,88.28,88.28,0,0,1,14.36-.41,41.16,41.16,0,0,0,5.71-.5,26.05,26.05,0,0,1,3.06-.07c1.91.08,3.81.34,5.72.3a6.79,6.79,0,0,1,3.88,1c1.69,1,3.51,1.83,5.25,2.77,3.3,1.8,6.6,3.63,9.89,5.45.42.23.78.58,1.21.77,3.29,1.5,5.15,4.42,7.17,7.18.32.44.51,1,.93,1.34,3.47,2.57,4.95,6.66,7.53,9.91,1.4,1.76,2.53,3.63,4.41,5a5.22,5.22,0,0,1,1.68,2.94c.7,3.21,2.39,5.95,3.85,8.81a19,19,0,0,1,1.14,2.62,62.23,62.23,0,0,0,3.26,8.16,38.83,38.83,0,0,1,2.34,7.42c.87,3.38,1.54,6.82,2.42,10.2a17.87,17.87,0,0,0,1.58,4,9.61,9.61,0,0,1,1.25,4.28,63.87,63.87,0,0,0,2,13.56c.74,2.86,1.28,5.82,2,8.73a59,59,0,0,1,.79,6.11c0,.4.13.81.21,1.21.56,2.95,1.19,5.89,1.63,8.86A6.55,6.55,0,0,1,572.75,447ZM186.36,291.82c2.75-.34,5.45-.91,8.17-1.24,2.55-.32,5.17-.38,7.73-.8,1.14-.18,2.26-.55,3.39-.8a21.39,21.39,0,0,1,3.4-.7,10.5,10.5,0,0,0,4.88-1.41,9.1,9.1,0,0,1,4.31-1.15A25,25,0,0,0,222,285c3.32-.73,6.63-1.48,9.94-2.2,1.94-.43,3.88-.83,5.82-1.22,1.21-.25,2.41-.47,3.62-.71,1.54-.31,3.07-.71,4.62-.92,3.17-.42,6.12-1.92,9.42-1.82a25.27,25.27,0,0,0,4.24-.68c4.27-.61,8.53-1.17,12.79-1.78,1.63-.24,3.22-.69,4.85-.84,2-.19,4.1-.12,6.14-.26,1.63-.11,3.25-.46,4.88-.55,3-.17,5.88-1,8.94-.76a36.43,36.43,0,0,0,6.14-.42c.27,0,.54-.11.81-.11,4,0,7.91,0,11.86,0,3.42,0,6.85.08,10.26,0,.86,0,1.71-.6,2.58-.65a22.16,22.16,0,0,1,4.68.14,8.65,8.65,0,0,0,5-.35,8.65,8.65,0,0,1,5.44-.54c2.87.67,5.75.16,8.58,0a54.67,54.67,0,0,1,6.31.4l7.38.36c.95.05,1.91.22,2.86.21a12.75,12.75,0,0,0,3.22-.26,5.43,5.43,0,0,1,3.81.08c1.64.75,3.27.52,5,.32,3.57-.42,7.12-1,10.8-.2a17.77,17.77,0,0,0,8.55.09,7.49,7.49,0,0,1,3.8.24,11.89,11.89,0,0,0,4.44.41,22.21,22.21,0,0,1,8,.16,26.39,26.39,0,0,0,4.9.32,21.25,21.25,0,0,1,4.24.42,26.59,26.59,0,0,0,10.36.81,35.11,35.11,0,0,1,7.35.44c3.26.33,6.51.77,9.77,1.13,5.77.64,11.55,1.25,17.33,1.87a10.14,10.14,0,0,0,1.64.12A11.79,11.79,0,0,1,477,279a10.92,10.92,0,0,0,3.2.24c1.15,0,2.3.06,3.45,0,4.18-.19,8.19,1.24,12.39,1.2,2.75,0,5.52.8,8.28,1.27a14.22,14.22,0,0,0,2.61.53c3.27,0,5.69,1.69,8,3.66a5.17,5.17,0,0,0,1.13.87c3.39,1.52,4.6,4.79,6,7.75.59,1.21.35,2.82.48,4.25h-.1c0,.82,0,1.64,0,2.46,0,2.26-.58,4.2-2.81,5.3a2.6,2.6,0,0,0-1.05.95c-1.57,2.59-4.17,3.25-6.85,3.57a46.77,46.77,0,0,0-5.6,1.05,62.1,62.1,0,0,1-9.53,1.33,22.17,22.17,0,0,0-6.05,1,8.49,8.49,0,0,1-2.21.33,23.6,23.6,0,0,1-2.66.17c-1.21-.05-2.41-.2-3.62-.32l-3.83-.4c-.13,0-.27.06-.4.05-3.83-.13-7.67-.1-11.47-.46a20.92,20.92,0,0,0-6.93.13,32.3,32.3,0,0,1-9.61.38c-4-.25-7.9-.73-11.85-1.08a10.36,10.36,0,0,0-1.84.09c-.47,0-1,.26-1.42.1-2.83-1.12-5.88,0-8.72-.89a2.43,2.43,0,0,0-.61-.07c-5.25-.19-10.51-.41-15.77-.53-2.17-.05-4.38-.33-6.53.35a1.66,1.66,0,0,1-1,0c-3.19-1.24-6.55.05-9.77-.7a12.27,12.27,0,0,0-2.25.1c-1.35,0-2.71-.16-4.06-.23s-2.57-.12-3.85-.12a14.63,14.63,0,0,1-2.44.16c-3.38-.64-6.68-.06-10,.38a14,14,0,0,1-3.87-.15,10.52,10.52,0,0,0-4.67.22,10.33,10.33,0,0,1-3,.38,20.92,20.92,0,0,0-9.26,1.41,1.63,1.63,0,0,1-.39.13L339.5,315a6,6,0,0,0-1.61.18c-1.76.79-3.6.68-5.45.79a37.74,37.74,0,0,0-11.83,2.29,3,3,0,0,1-3.12-.26,7.8,7.8,0,0,0-4.63-1.43,11.05,11.05,0,0,1-5.29-1.48,3.44,3.44,0,0,0-1.73-.58c-2.1.12-4-.63-6-1.09a85.37,85.37,0,0,0-9.31-1.43,17.26,17.26,0,0,1-6.33-2.29,11.57,11.57,0,0,0-4.46-1.43,13.1,13.1,0,0,1-6.45-2.48,13.74,13.74,0,0,0-5.41-2.37c-2.42-.49-3.74.24-4.75,2.51-.36.82-.75,1.62-1,2.47a3.66,3.66,0,0,0,2.34,4.78,19.5,19.5,0,0,0,4.2.88,12,12,0,0,1,6,1.94,10.94,10.94,0,0,0,4.33,1.75,7,7,0,0,1,2.9,1.38c1.12.87,1,1.87-.23,2.66a3.09,3.09,0,0,1-1.31.56q-2.85.28-5.7.42c-.88.05-1.8-.22-2.66-.09-4.32.64-8.69,1-12.9,2.22a11.48,11.48,0,0,1-2.6.59c-4.1.15-8.2.35-12.3.26-2.37,0-4.71-.67-7.08-.9a17.94,17.94,0,0,0-4.27,0,12.51,12.51,0,0,1-7.23-.94,12.15,12.15,0,0,0-5.52-1.37,3.9,3.9,0,0,1-2.14-.56,9.64,9.64,0,0,0-5.07-1.42,11.55,11.55,0,0,1-5.68-1.56,15.24,15.24,0,0,0-3.12-.88,13.16,13.16,0,0,1-3.59-1.33,32.33,32.33,0,0,0-10-4.63,35.53,35.53,0,0,1-12.31-6.3,24.57,24.57,0,0,0-7.71-4.18,12.34,12.34,0,0,1-4.91-3.27,2.51,2.51,0,0,1-.71-2.82,2.33,2.33,0,0,1,2.35-1.36c2.38-.12,4.78-.21,7.17-.32a5.77,5.77,0,0,0,1,0C179,293.2,182.65,292.27,186.36,291.82Zm-5.63-15.47a49.84,49.84,0,0,1,.53-5.06c.38-1.81,1.16-2.3,3-1.92,3.58.75,7.24.11,10.8.62,3.84.54,7.59-.05,11.38-.31a12.26,12.26,0,0,0,3-.53c1.81-.6,3.55-1.43,5.53-1.41a1.93,1.93,0,0,0,1.14-.4,9.69,9.69,0,0,1,5.18-1.73,15.29,15.29,0,0,0,2.56-.71c1.72-.47,2.44,0,2.77,1.7.27,1.4.55,2.81.85,4.21.42,1.94-.17,2.78-2.11,3.2-1.26.27-2.49.67-3.74,1a2.57,2.57,0,0,1-.78.23c-2.93-.12-5.62,1.05-8.42,1.62a8.05,8.05,0,0,0-2.8,1.13,7.85,7.85,0,0,1-4.21,1.38,39.26,39.26,0,0,0-9.24,1.61,13.63,13.63,0,0,1-2.21.39c-3.12.43-6.24.75-9.34,1.27-2.48.41-3.28-.07-3.49-2.6-.11-1.22-.12-2.46-.18-3.69ZM620.55,316.1a13.35,13.35,0,0,0-.22,6.7,6.18,6.18,0,0,1,.13,2.63,34.09,34.09,0,0,0-.51,11.83,31.35,31.35,0,0,1-.27,5.71c-.15,1.91-.34,3.81-.61,5.71-.36,2.64-.85,5.24-1,7.93a42.61,42.61,0,0,1-1.28,6.63,6.26,6.26,0,0,0-.15,1.43,14.24,14.24,0,0,1-1.54,6.74,11.74,11.74,0,0,0-1,6,5.31,5.31,0,0,1-.41,2.59c-1.45,3-2,6.26-2.67,9.47-.42,2-.53,4.09-1,6.06a33.71,33.71,0,0,1-2,5.16,15.66,15.66,0,0,0-1.74,7.31,9.44,9.44,0,0,1-.84,2.9c-.35,1.17-.7,2.33-1,3.5s-.48,2.27-.86,3.35a32.86,32.86,0,0,1-3.31,7,8.82,8.82,0,0,0-1,3.53,8.62,8.62,0,0,1-2,4.63,5.89,5.89,0,0,0-1.51,2.61c-.45,2.52-1.86,4.55-3,6.72A40.25,40.25,0,0,0,591,446c-1,2.68-1.82,5.48-3,8.08a39.08,39.08,0,0,1-3.49,5.52c-.38.56-1.07,1.11-1.74.6a2,2,0,0,1-.61-1.59,22.56,22.56,0,0,0-.07-7.15,9.46,9.46,0,0,1,.21-2,5.48,5.48,0,0,0,.13-1.83,12.81,12.81,0,0,1,0-5.68,9.11,9.11,0,0,0-.47-3c-.26-1.34-.66-2.66-.8-4-.33-3.27-.54-6.55-.8-9.83,0-.07,0-.14,0-.2-.81-3.17-1.61-6.34-2.43-9.5a13.56,13.56,0,0,1-.43-1.37c-.41-2.63-.76-5.27-1.17-7.9-.18-1.15-.39-2.29-.65-3.42-.41-1.73-.87-3.44-1.31-5.16a.65.65,0,0,0,0-.2c-1.81-2.81-1.51-6.2-2.57-9.22-.41-1.16-.91-2.28-1.34-3.44a11.7,11.7,0,0,1-.92-2.91,20,20,0,0,0-2.47-7.78,21.71,21.71,0,0,1-2-6,15.07,15.07,0,0,0-2-4.87,79.28,79.28,0,0,1-4.33-7.89c-.91-1.94-2.5-3.56-3.79-5.32-1.08-1.48-2.21-2.94-3.26-4.45-3.21-4.6-5.89-9.57-9.64-13.79a22,22,0,0,0-2.84-2.28,46.62,46.62,0,0,1-4.23-3.54,8.81,8.81,0,0,0-4.68-2.78c-2.8-.55-4.7-2.44-6.54-4.4-.88-.94-.74-1.61.27-2.41a3.51,3.51,0,0,1,.52-.33c3.32-1.82,5.45-4.71,7.28-7.9a6.78,6.78,0,0,0,.8-3.34,13.57,13.57,0,0,1,.58-3.8,5.85,5.85,0,0,0-.08-4.18c-1.34-3.52-2.42-7.14-3.92-10.59a11.71,11.71,0,0,0-5.21-6.12,13.71,13.71,0,0,1-2.5-2c-.66-.58-1.18-1.46-1.94-1.77-3.67-1.51-7.3-3.29-11.13-4.14-3.3-.74-6.72-1.1-10.06-1.83a4.35,4.35,0,0,0-1.44-.07c-3.68.48-7.36,0-11-.11a5.77,5.77,0,0,1-1-.05c-4.09-.95-8.3-.8-12.43-1.36-3.38-.46-6.72-1.26-10.08-1.93-.21-.05-.38-.31-.77-.63a29.67,29.67,0,0,0,3.51-1.43c1.05-.6,1.93-1.51,3-2.17a7.49,7.49,0,0,1,1.75-.58,4.41,4.41,0,0,0,1.54-.55c3.11-2.64,7.57-3.33,10.05-6.91a2.46,2.46,0,0,1,1-.75c2.49-1.17,4.16-3.31,6.12-5.11a3.67,3.67,0,0,0,.9-1.11c1.35-3,3.84-5.14,5.73-7.73a19.22,19.22,0,0,0,1.37-2.72c.54-1.09,1.1-2.17,1.64-3.26.87-1.77,1.77-3.53,2.61-5.31.49-1,.8-2.19,1.35-3.21a17,17,0,0,0,2.21-7.2,26,26,0,0,1,.68-2.77c.18-1.13.57-2.39.24-3.4a12.28,12.28,0,0,1-.11-6.69,16.26,16.26,0,0,0,.36-6.48c-.43-2.56-.58-5.16-.8-7.75-.24-2.79-1.69-5.19-2.46-7.8-1-3.26-3.18-6.06-3.61-9.53a3.13,3.13,0,0,0-.53-1.33q-2.69-3.87-5.42-7.69c-.87-1.23-1.88-2.37-2.63-3.67a14.83,14.83,0,0,0-4.69-4.8c-2.49-1.69-4.92-3.46-7.34-5.25-1.7-1.27-3.24-2.78-5-3.9-2.3-1.45-4.59-3-7.3-3.66a2.24,2.24,0,0,1-1-.33c-2.38-2.1-5.69-1.88-8.3-3.39a.47.47,0,0,0-.2-.06c-3.94-.39-7.66-2.11-11.71-2-1.57.06-3.15-.14-4.72-.19a12.28,12.28,0,0,0-5.06.59,4.33,4.33,0,0,1-2,.16,18.4,18.4,0,0,0-5.67.62c-3,.6-6.05,1.05-8.86,2.41a4.91,4.91,0,0,1-1.81.29,8.28,8.28,0,0,0-3.83,1.34,13.87,13.87,0,0,1-3.35,1.47c-2.58.74-4.57,2.42-6.71,3.9a37,37,0,0,1-4,2.47,9.6,9.6,0,0,0-3,2.39,21.45,21.45,0,0,1-3.12,2.9c-2.29,1.78-4.45,3.6-5.59,6.42a7.82,7.82,0,0,1-2,2.56,9.8,9.8,0,0,0-2.51,3.44,18.41,18.41,0,0,1-1.46,2.45c-.19.29-.53.51-.61.82-.6,2.24-2.28,3.88-3.26,5.9A26,26,0,0,0,374,187.68a18.26,18.26,0,0,1-.56,2.8c-.36,1.66-.78,3.32-1.08,5s-.51,3.51-.76,5.27a3,3,0,0,0-.13.81c.68,3.75-.07,7.57.88,11.37.74,2.91,1.38,5.82,2.37,8.65a13.62,13.62,0,0,1,.6,2.6A14.57,14.57,0,0,0,378,230.5a25,25,0,0,1,2.54,5.8c1.41,3.86,3.27,7.34,6.86,9.67a8.26,8.26,0,0,1,2.28,2.32,20.54,20.54,0,0,0,5,5.07,65,65,0,0,0,6.08,3.75,21.21,21.21,0,0,1,3.8,3.1,1.83,1.83,0,0,1,.38,1.63c-.18.39-1,.63-1.54.65-2.58.07-5.17,0-7.76.05a2.38,2.38,0,0,0-.61.06c-3.74,1.28-7.43.41-11.13-.21a24.39,24.39,0,0,0-4.09-.29c-2.67,0-5.34.09-8,.14a1.82,1.82,0,0,0-.41,0c-3.43,1.1-6.91.75-10.38.42-2.79-.27-5.55-.69-8.33-1.06-.34,0-.69-.24-1-.18-3.35.65-6.78-.46-10.16.79-2.34.87-5,.62-7.51.56-3.73-.09-7.46-.64-11.2-.15-1,.13-2,.35-3,.49a5.24,5.24,0,0,1-1.83.15,11.37,11.37,0,0,0-6.06.41,5.42,5.42,0,0,1-2.42-.13,36.56,36.56,0,0,0-12.26-.14,39.51,39.51,0,0,1-8.15.46,90.19,90.19,0,0,0-10.64.47,20.72,20.72,0,0,0-6.74,1.67,8.7,8.7,0,0,1-3.44.29,11.29,11.29,0,0,0-4.79.91,12.24,12.24,0,0,1-3.38.69c-1.77.22-3.55.27-5.31.52-2.09.3-4.13.83-6.3.51a5.34,5.34,0,0,0-2.92.75,12.21,12.21,0,0,1-5.4,1.06c-1.9.06-3.87-2.26-3.85-4.6a9.87,9.87,0,0,0-.93-5,2.07,2.07,0,0,1,.67-2.6c1.87-1.58,3.16-3.81,5.54-4.83.52-.22.86-.85,1.31-1.28,1.47-1.41,2.95-2.83,4.45-4.22.39-.38,1-.6,1.27-1,1.92-2.65,3.8-5.33,5.68-8,.23-.33.28-.85.57-1.08,2.42-1.94,3.08-4.88,3.8-7.57a45.45,45.45,0,0,1,3.43-8.52,8.1,8.1,0,0,0,.45-1.79c.46-2.13.82-4.29,1.37-6.4a13.3,13.3,0,0,0,.52-4.86c-.25-2.37-.34-4.76-.49-7.14a3,3,0,0,1,0-1c.79-2.34.19-4.57-.35-6.85-.41-1.72-.44-3.53-.83-5.26s-1-3.53-1.58-5.29c-.13-.38-.44-.7-.6-1.07-1.4-3.47-3.05-6.83-4.55-10.26-1.77-4.06-3.89-7.79-7.38-10.67a21.43,21.43,0,0,1-3.11-3.53,10.51,10.51,0,0,0-2.95-2.48,24.91,24.91,0,0,1-4.18-3.27,15.6,15.6,0,0,0-6.64-4.31,8.21,8.21,0,0,1-2.74-1.74,18.83,18.83,0,0,0-9.23-4.19,34.57,34.57,0,0,1-4.05-.68,19.44,19.44,0,0,1-4-1.55,6.25,6.25,0,0,0-3.72-.88,31.18,31.18,0,0,1-8.78-.46,22,22,0,0,0-9.78.38,31.83,31.83,0,0,1-4,.6,5,5,0,0,0-1,.07c-3.37,1.31-7.09,1.33-10.39,3.11-2.55,1.38-5.46,2.1-8.18,3.2a20.55,20.55,0,0,0-2.62,1.56,30.15,30.15,0,0,1-3.52,2,14.14,14.14,0,0,0-4.62,3c-2.2,2.16-4.47,4.25-6.63,6.45a21.37,21.37,0,0,0-1.74,2.5,14.94,14.94,0,0,1-2.28,2.85,13.18,13.18,0,0,0-3.7,4.84c-.72,1.54-1.72,2.94-2.48,4.47-2,4-4.88,7.67-4.87,12.47a2,2,0,0,1-.15.81c-1.84,4-1.46,8.46-2.44,12.6a26.31,26.31,0,0,0-.21,8.71,29.48,29.48,0,0,0,1.49,7.63,6.48,6.48,0,0,1,.48,2.19,13.24,13.24,0,0,0,1.61,6.09,18.61,18.61,0,0,1,1.29,3.88c.76,3.09,1.59,6.11,3.9,8.48a3,3,0,0,1,.75,1.21c1.06,3.69,3.64,6.46,6,9.27,1.78,2.14,3.41,4.68,6.18,5.88a1.09,1.09,0,0,1,.49.37c1.59,2.57,4.31,3.81,6.7,5.29,2.69,1.67,5,4,8.34,4.71a9.25,9.25,0,0,1,2.58,1.23c1.85,1.07,2.51,2.55,1.72,4.51-1.61,4-1.62,8.12-1.24,12.29.24,2.66-.87,4-3.49,3.83a24.22,24.22,0,0,0-6.53.43,6.36,6.36,0,0,1-6.69-2.09c-.87-1.05-1.93-1.94-2.9-2.91a7.8,7.8,0,0,0-4.42-2.42,4.42,4.42,0,0,1-1.89-.76c-3.46-2.6-7.54-3.06-11.65-3.41a8.53,8.53,0,0,0-4.53,1.1,28.57,28.57,0,0,1-3.62,1.35c-3.56,1.21-7.14,2.35-10.68,3.61A11.16,11.16,0,0,0,110,282.9a34.51,34.51,0,0,1-3.74,3.51,5.42,5.42,0,0,0-2,3.46c-.18,1.07-.56,2.11-.84,3.16a16,16,0,0,0-.64,2.76,2.59,2.59,0,0,1-1.82,2.67,7.15,7.15,0,0,0-3.54,2.68,6.1,6.1,0,0,1-1.69,1.47A10.07,10.07,0,0,0,92,306.35a4.74,4.74,0,0,1-1,1.29c-2.14,1.68-4.25,3.42-6.52,4.92A10.85,10.85,0,0,0,81,315.73a10.8,10.8,0,0,1-3.23,3.08c-1.74,1.19-3.3,2.64-4.92,4a1.13,1.13,0,0,0-.38.49c-1.07,3.24-3.91,5-6.11,7.34a9.16,9.16,0,0,0-2.54,3.9,5,5,0,0,1-.9,1.58q-2.73,3.72-5.5,7.41c-1.19,1.58-2.43,3.13-3.63,4.7a19.07,19.07,0,0,0-1.28,1.85q-1.43,2.37-2.77,4.78c-.29.53-.43,1.15-.69,1.7-.5,1-1.08,2-1.56,3.07-1.59,3.49-4.47,6.19-5.9,9.81a62.5,62.5,0,0,1-3.57,6.7c-.16.3-.46.55-.53.87-.56,2.46-2,4.45-3.32,6.55a4.41,4.41,0,0,0-.39.95c-.83,2.59-1.61,5.21-2.5,7.79A13,13,0,0,1,29.9,395a16.18,16.18,0,0,0-2.23,5.68,26.78,26.78,0,0,1-1.84,4.75c-.28.65-.82,1.31-1.55,1A2.33,2.33,0,0,1,23,405c-.47-2.06-.72-4.17-1.11-6.25a13.21,13.21,0,0,0-.81-3.36,38.92,38.92,0,0,1-3.49-14.28A19.94,19.94,0,0,0,16.4,376a30.38,30.38,0,0,1-1.07-5.81c-.34-2.36-1.08-4.65-.84-7.11a4.51,4.51,0,0,0-.94-2.43,6.14,6.14,0,0,1-1-3.69c.11-2.18.27-4.37.19-6.55a12,12,0,0,0-.85-3.77,14.62,14.62,0,0,1-.94-4.8c-.08-2.46-.47-4.91-.56-7.37a32.41,32.41,0,0,1,.33-4.49,15.68,15.68,0,0,0-.59-7.29,6.76,6.76,0,0,1-.4-2.4c0-3.48.18-7,.3-10.44,0-.68.2-1.36.22-2A9.73,9.73,0,0,0,10.1,305a7.83,7.83,0,0,1,0-4.24,36.31,36.31,0,0,0,.95-4.84,37,37,0,0,0,0-4.08c0-1.49,0-3,0-4.48,0-.89.16-1.78.22-2.66a24.48,24.48,0,0,1,1.28-6.63,28,28,0,0,0,.85-5.24c.21-1.41.44-2.83.69-4.24.48-2.76,1-5.51,1.45-8.27.56-3.44,1-6.88,1.58-10.32a.6.6,0,0,1,0-.2c1.93-3.15,1.24-6.95,2.53-10.26a35.49,35.49,0,0,0,1.63-4.64c.65-2.79,1.07-5.64,1.63-8.45s1.14-5.48,2.93-7.81c1.29-1.68,1.55-3.8,1.78-5.83A15.13,15.13,0,0,1,30,206.37a35,35,0,0,0,2.87-7.22,16,16,0,0,1,2.16-5.06,2.1,2.1,0,0,0,.5-1.12c.09-3.14,2.21-5.38,3.49-8,.54-1.1,1-2.24,1.49-3.36s1-2.41,1.63-3.53c1.09-1.9,2.61-3.61,3.4-5.61,1.44-3.64,3.82-6.76,5.3-10.37a4.35,4.35,0,0,1,1-1.77c2-1.62,2.8-4,4.11-6.09A50.47,50.47,0,0,0,58.77,150c1.17-2.4,3.09-4.11,4.76-6.08A22,22,0,0,0,66,139.22a9,9,0,0,1,1.1-2.4A44,44,0,0,0,71,132.1c1.39-1.85,3.11-3.45,4.66-5.18a7.64,7.64,0,0,0,1.2-1.65,27.12,27.12,0,0,1,6-8,28.27,28.27,0,0,0,4.32-4.92,30.89,30.89,0,0,1,3.67-3.85c3-3.1,5.61-6.54,8.9-9.37a23,23,0,0,0,4.77-4.77,4.47,4.47,0,0,1,2-1.36,8.76,8.76,0,0,0,4.09-3.61c.39-.64.81-1.27,1.24-1.89a5.66,5.66,0,0,1,3-2.37,10.1,10.1,0,0,0,4.06-2.7c1.12-1.08,2.42-2,3.61-3a13.79,13.79,0,0,0,2.16-2.16,12,12,0,0,1,3-2.77c2.78-2,5.81-3.6,8.17-6.16a18.25,18.25,0,0,1,3.93-3c2.44-1.51,5-2.89,7.44-4.32a3.12,3.12,0,0,0,.55-.27c2.12-1.69,4.28-3.33,6.31-5.12a7.17,7.17,0,0,1,2.81-1.56,18,18,0,0,0,2.91-1.38,18.85,18.85,0,0,1,2.72-1.39A13.24,13.24,0,0,0,168.07,48c3.05-3.11,6.9-4.6,11-5.54a5.22,5.22,0,0,0,3.1-1.86,6,6,0,0,1,4.62-2.3,10.5,10.5,0,0,0,5.12-2,26.29,26.29,0,0,1,3.28-1.62c.44-.2,1-.2,1.34-.49,2.5-2.21,5.85-2.57,8.68-4a11.91,11.91,0,0,1,2.14-.7c.26-.08.58,0,.81-.14,3-1.54,6.52-1.38,9.38-3.32a9.43,9.43,0,0,1,3.5-1.08,35,35,0,0,0,6.8-2.2,51.46,51.46,0,0,1,11.81-3.41c2.83-.42,5.61-1.21,8.41-1.82a17.74,17.74,0,0,1,2-.41c2-.23,4-.29,5.9-.65a27.88,27.88,0,0,0,4-1.35,10.08,10.08,0,0,1,2.31-.76c2.65-.24,5.33-.21,8-.53,3-.35,5.94-.95,8.91-1.47,1-.17,2-.51,3-.59,3.35-.27,6.7-.36,10-.7,6-.61,12-.29,18-.58a8.19,8.19,0,0,1,1.64.07,8.06,8.06,0,0,0,4.42-.57,6.61,6.61,0,0,1,5-.09,14.56,14.56,0,0,0,5.05.54c3.41,0,6.83.27,10.24.45a13.35,13.35,0,0,0,2.24.21c4.94-.69,9.67.74,14.46,1.45,3,.44,5.87,1.3,8.95.74a7.79,7.79,0,0,1,2.8.46L375.55,16a3.54,3.54,0,0,1,.8.15c3.53,1.67,7.44,1.67,11.14,2.57,2.91.7,5.78,1.6,8.7,2.19A18.36,18.36,0,0,1,402,22.63a1.46,1.46,0,0,0,.8.16,10,10,0,0,1,6,1.86,7,7,0,0,0,2.88.92A13.7,13.7,0,0,1,416,26.78c1.94.83,4,1.48,5.95,2.21a3.65,3.65,0,0,1,.59.16c2.76,1.62,6,2,8.9,3.08A10.6,10.6,0,0,1,434.38,34a8.07,8.07,0,0,0,3.81,1.89,34.86,34.86,0,0,1,10.53,4c2.46,1.32,4.66,3.1,7,4.59,1.32.82,2.75,1.47,4.14,2.19.25.12.54.15.78.27,3.53,1.8,7.23,3.33,10.52,5.5,2.71,1.78,5.86,2.92,8.09,5.51.89,1,2.48,1.41,3.69,2.18,1.43.92,2.78,2,4.2,2.9a39,39,0,0,0,4.16,2.59,10.1,10.1,0,0,1,3.08,2.3,24.54,24.54,0,0,0,3.1,2.64,37.33,37.33,0,0,1,3.58,2.71,59,59,0,0,0,12.14,9.07c2.42,1.43,4.09,3.62,5.81,5.74A17.83,17.83,0,0,0,524.51,93a13.61,13.61,0,0,1,3.83,3.91,18.49,18.49,0,0,0,3.83,3.61c2,1.53,4.18,3.09,5.53,5.41a5.59,5.59,0,0,0,1.59,1.85,12.29,12.29,0,0,1,3.37,3.81,42.37,42.37,0,0,0,7.16,8.43c1.79,1.68,3.31,3.64,4.94,5.48.14.16.22.36.36.5,3.58,3.43,5.74,7.8,8.1,12a13.65,13.65,0,0,0,1.23,1.63c1.44,1.91,2.91,3.79,4.31,5.73,2,2.77,4,5.54,5.86,8.39,1.62,2.44,3.09,5,4.58,7.5a15.58,15.58,0,0,1,.57,1.75,27.82,27.82,0,0,0,1.54,3.32c1.24,2,2.61,4,3.88,6,.33.51.45,1.15.73,1.69.53,1,1.13,2,1.66,3s1,2.07,1.48,3.11a22.64,22.64,0,0,0,1.73,3.65,20.4,20.4,0,0,1,3.76,7.9c.52,2.59,1.19,5.24,3.28,7.17a.87.87,0,0,1,.22.35q1.44,4,2.84,8.11c.4,1.15.62,2.38,1.1,3.5,2,4.58,4.17,9.09,5.19,14,.21,1,.62,2,.9,3,.48,1.7.93,3.41,1.38,5.12.11.4.15.82.28,1.2.83,2.46,1.65,4.92,2.53,7.36a8.24,8.24,0,0,1,.5,4.44,6.34,6.34,0,0,0,.7,4.15,17.79,17.79,0,0,1,1,3.5,15.18,15.18,0,0,0,.29,1.81,11.84,11.84,0,0,1,.61,4.84,6.11,6.11,0,0,0,.71,2.94,12.4,12.4,0,0,1,1.44,7.71c-.22,1.56.37,3.23.55,4.85a21.16,21.16,0,0,1,.24,3.63,17.65,17.65,0,0,0,.74,6.69,18.57,18.57,0,0,1,.88,4.79c.14,2.94,0,5.89.05,8.84,0,.95.28,1.89.34,2.85.07,1.28.06,2.56.09,3.84a13.9,13.9,0,0,0,.15,3.43A10.92,10.92,0,0,1,620.55,316.1Z" fill="#bdfc4c" class="color000 svgShape"></path><path d="M171.5,396.56c-.44.12-.54.49-.87.81-1.06,1-2.41,1.87-3.57,2.77a26.6,26.6,0,0,0-5.38,6.17,19.06,19.06,0,0,1-3.28,3.13,18.48,18.48,0,0,0-3.2,3.58,32.83,32.83,0,0,1-2.66,3.63c-.85.88-1.88,1.61-2.75,2.48-3.18,3.2-6,6.68-9.31,9.73a4.08,4.08,0,0,0-1.56,3.28c.21,1.44,1.92,1.83,3.23,1.72,2-.18,3.56-2,5.1-3.18,1.8-1.36,3.12-3.18,4.88-4.57s3-2.86,4.62-4.1a42.74,42.74,0,0,0,5.82-4.68c2.76-3,6.44-5,9.38-7.75,1.15-1.09,1.93-2.46,3-3.6s2.18-1.79,2.93-3c1.26-2,1.23-4.73-.55-6.22-1.56-1.32-3.79-.61-5.36.21" fill="#bdfc4c" class="color000 svgShape"></path></g></g></svg></g></svg> 