<?xml version="1.0" encoding="UTF-8"?>
<svg width="27px" height="22px" viewBox="0 0 27 22" version="1.1" xmlns="http://www.w3.org/2000/svg" xmlns:xlink="http://www.w3.org/1999/xlink">
    <!-- Generator: sketchtool 56.2 (101010) - https://sketch.com -->
    <title>1ABD9315-3150-4852-A82D-D69BE4780B05</title>
    <desc>Created with sketchtool.</desc>
    <g id="02-Design" stroke="none" stroke-width="1" fill="none" fill-rule="evenodd" opacity="1">
        <g id="3-1-1-Move-Money" transform="translate(-25.000000, -829.000000)">
            <g id="Transfer" transform="translate(0.000000, 485.000000)">
                <g id="Icons-/-Transfer-To-Bank-/-32x32-Transfer-To-Bank" transform="translate(20.000000, 339.000000)">
                    <g id="Icons-/-Transfer-From-Bank-/-32x32-Transfer-From-Bank">
                        <rect id="Container" fill-rule="nonzero" x="0" y="0" width="32" height="32"></rect>
                        <g id="Group" transform="translate(25.500000, 20.500000) scale(-1, 1) translate(-25.500000, -20.500000) translate(20.000000, 18.000000)" stroke="#435CDC" stroke-linecap="round" stroke-linejoin="round" stroke-width="2">
                            <path d="M10,1.00533364 L0,1.00298205" id="Path-2-Copy-3" transform="translate(5.000000, 1.502982) scale(-1, -1) translate(-5.000000, -1.502982) "></path>
                            <polyline id="Path-6-Copy" transform="translate(9.002039, 2.000630) scale(-1, 1) translate(-9.002039, -2.000630) " points="10.0040782 4.00126093 8 2.00298205 10.0040782 3.55271368e-15"></polyline>
                        </g>
                        <path d="M6,26 L26,26" id="Path-2" stroke="#435CDC" stroke-width="2" stroke-linecap="round" stroke-linejoin="round"></path>
                        <circle id="Oval" fill="#435CDC" cx="16" cy="10.5" r="1.5"></circle>
                        <path d="M10,14 L10,25" id="Path" stroke="#435CDC" stroke-width="2" stroke-linecap="round" stroke-linejoin="round"></path>
                        <path d="M16,14 L16,25" id="Path-Copy" stroke="#435CDC" stroke-width="2" stroke-linecap="round" stroke-linejoin="round"></path>
                        <polygon id="Path-3" stroke="#435CDC" stroke-width="2" stroke-linecap="round" stroke-linejoin="round" points="6 14 6 10 16 6 26 10 26 14"></polygon>
                        <path d="M22,14 L22,15" id="Path-Copy-2" stroke="#435CDC" stroke-width="2" stroke-linecap="round" stroke-linejoin="round"></path>
                        <path d="M22,25 L22,26" id="Path-Copy-3" stroke="#435CDC" stroke-width="2" stroke-linecap="round" stroke-linejoin="round"></path>
                    </g>
                </g>
            </g>
        </g>
    </g>
</svg>