<?xml version="1.0" encoding="UTF-8"?>
<svg width="23" height="19" viewBox="0 0 23 19" fill="none" xmlns="http://www.w3.org/2000/svg">
  <path d="M19.8637 0.715144C20.1743 0.755869 20.4814 0.819873 20.7824 0.906618L20.8703 0.93523L20.9582 0.963841C21.3189 1.06631 21.6543 1.24266 21.9434 1.48171C22.2324 1.72077 22.4687 2.01731 22.6374 2.35258C22.8234 2.69071 22.9409 3.0623 22.9832 3.44603C23.0254 3.82976 22.9915 4.21806 22.8835 4.58865C22.7877 4.91781 22.6393 5.22924 22.444 5.51081C22.2583 5.7871 22.0263 6.02911 21.7582 6.22609L21.6989 6.2547L17.8022 8.80329L17.6835 9.35791L17.5385 10.0182C17.1282 11.7965 16.77 13.2314 16.4637 14.323C16.2582 15.1281 15.974 15.911 15.6154 16.6604L15.5868 16.7484L15.5582 16.777C15.1446 17.5246 14.4921 18.1114 13.7055 18.4431C12.9269 18.7881 12.0885 18.9773 11.2374 18.9999H9.63297L10.5121 12.8617L7.87473 14.3517C7.34433 14.6622 6.72516 14.7854 6.11648 14.7016C5.50462 14.6292 4.93178 14.3632 4.48132 13.9423L4.42418 13.9137L4.37802 13.8653C4.14505 13.632 3.92527 13.3987 3.71868 13.1654C3.51429 12.9299 3.32527 12.6966 3.14945 12.4633L2.56703 11.7018L1.80879 10.6982L0 8.33011L2.36484 6.86874C2.78812 6.59637 3.27733 6.44423 3.78022 6.42857C4.28144 6.40595 4.77969 6.51682 5.22418 6.74989L5.27473 6.82252L6.55824 7.5224L8.42637 6.42197C9.67179 5.70009 10.781 5.04716 11.7538 4.4632C12.7267 3.87924 13.578 3.39212 14.3077 3.00183L16.1429 1.95863C16.6278 1.7048 16.9875 1.52946 17.222 1.43262L17.2791 1.40401L18.1275 1.05187L18.2725 0.994653C18.4286 0.93523 18.5692 0.886811 18.6967 0.847195C18.8164 0.810554 18.9383 0.781156 19.0615 0.759161C19.3249 0.702014 19.5957 0.687156 19.8637 0.715144ZM12.1714 1.57788L7.88132 4.06265L3.96923 0.671127L6.1011 0.0592884C6.38869 -0.0207394 6.69263 -0.0207394 6.98022 0.0592884L12.1714 1.57788ZM20.1121 3.53664L20.0242 3.50803C19.9193 3.47541 19.812 3.45112 19.7033 3.4354C19.6447 3.42254 19.5835 3.42713 19.5275 3.44861H19.4989C19.4595 3.44816 19.4203 3.45335 19.3824 3.46401C19.3418 3.47345 19.3026 3.48826 19.2659 3.50803L19.1473 3.56525L18.2154 3.946L18.1275 3.97461C17.9077 4.09126 17.5626 4.27833 17.0769 4.53143C16.5912 4.78453 15.978 5.11466 15.2659 5.52402C14.5538 5.93338 13.7099 6.42197 12.7473 6.98539C11.7846 7.54881 10.7143 8.18485 9.50769 8.88693L8.55165 9.46355L6.62637 10.6322L4.02857 9.17744H3.96923L4.61538 9.99616L5.2 10.7577C5.34191 10.9582 5.49838 11.148 5.66813 11.3255C5.84176 11.5125 6.01758 11.7018 6.19341 11.8955C6.24689 11.9535 6.31946 11.9902 6.3978 11.9989C6.46619 12.01 6.53623 12.0047 6.6022 11.9835L6.63077 11.9549L13.8945 7.86353L12.7275 15.9011L12.7846 15.8724C12.8812 15.815 12.9737 15.751 13.0615 15.681C13.1409 15.6228 13.2062 15.5476 13.2527 15.4609L13.2813 15.4015L13.3099 15.3729C13.4857 15.0794 13.7289 14.3634 14.0396 13.2248C14.3502 12.0862 14.7201 10.561 15.1495 8.64923L15.2659 8.15184L15.4989 7.07122L20.2857 3.946C20.3055 3.946 20.3253 3.9306 20.3451 3.90199C20.3616 3.88114 20.3715 3.85587 20.3736 3.82936C20.3833 3.80814 20.3871 3.78475 20.3848 3.76155C20.3825 3.73836 20.3741 3.71619 20.3604 3.69731C20.336 3.65466 20.3002 3.61962 20.2571 3.59607L20.2198 3.56525L20.1121 3.53664Z" fill="#FFC73D"/>
</svg>
