<?xml version="1.0" encoding="UTF-8"?>
<svg viewBox="0 0 159 186" version="1.1" xmlns="http://www.w3.org/2000/svg" xmlns:xlink="http://www.w3.org/1999/xlink">
    <title>Vector</title>
    <g id="Redesign---Set-#4" stroke="none" stroke-width="1" fill="none" fill-rule="evenodd">
        <g id="1-1-1-Log-In-First-Seen" transform="translate(-14.000000, -513.000000)" fill="#F6F6F1">
            <path d="M35.7276923,617.378404 C34.5589651,619.273588 36.7370508,620.537047 36.3120591,622.326943 C34.9839601,622.695451 33.4964776,623.011318 32.1683786,623.590402 C31.4777671,623.853621 30.7340345,624.537988 30.5746626,625.169716 C30.4684147,625.590868 31.2652694,626.433179 31.849633,626.749043 C32.8589882,627.380771 34.0277219,627.749276 35.0902011,628.223072 C33.4433585,631.908152 33.6027355,632.118723 38.1182722,632.539875 C38.0120242,633.855975 37.7464029,635.224715 37.8526508,636.593459 C37.9057748,637.330475 38.2776363,638.278072 38.8619999,638.699224 C39.7119832,639.330952 40.6150922,638.699231 41.2525798,637.962215 C41.9431912,637.225199 42.6338035,636.488174 43.4837869,635.540583 C44.1743984,636.172311 44.9181356,636.804044 45.8743668,637.646347 C46.830598,636.698756 47.6805859,635.856446 48.7430651,634.856211 C49.2211807,635.224718 49.8055297,635.645869 50.3898933,636.067021 C51.3992485,636.751393 52.5148585,637.646343 53.6835857,636.909327 C54.9585608,636.119667 54.3210751,634.750924 54.0023313,633.6454 C53.7367115,632.803096 53.417965,631.960794 53.5242129,630.802627 C54.4804441,631.434355 55.5429281,631.960793 56.4460355,632.697809 C59.4741011,635.014145 62.4490344,637.330484 65.4239762,639.699464 C66.5395793,640.594411 67.0708253,641.647287 66.5395857,643.331895 C65.8489743,643.173963 65.1583632,643.121318 64.5208757,642.910742 C61.7584299,642.173726 58.9959838,641.331424 56.1272899,640.75234 C54.5335711,640.436476 52.7804876,640.54176 51.133645,640.699692 C49.7524221,640.80498 48.6368153,641.594644 48.4243195,643.068675 C48.2118236,644.542707 49.0617943,645.648236 50.3898933,646.122031 C51.8773642,646.648471 53.4179732,647.06962 54.958568,647.174908 C58.3053776,647.385484 61.6521726,647.438124 64.9989821,647.543412 C65.6364697,647.543412 66.2739573,647.648702 67.1239407,647.701346 C68.027048,652.649881 68.1333035,657.545786 68.4520473,662.862829 C67.1770721,662.336389 66.3802081,661.915234 65.5302247,661.59937 C61.9177954,660.388558 59.3678485,662.441669 59.7928401,666.179392 C60.1115839,668.706304 61.4396802,670.654134 63.5115147,672.075522 C64.2552501,672.601962 65.0521112,673.181039 65.9020946,673.496903 C68.8770363,674.760358 69.40828,677.024051 68.7176686,679.91947 C67.6551894,680.18269 66.9114504,679.340392 66.0083431,679.024528 C64.5208722,678.498088 63.0865237,677.866362 61.5459289,677.550498 C60.9084413,677.44521 59.7928386,677.918994 59.5272188,678.498078 C59.208475,679.077162 59.3147245,680.287992 59.7928401,680.761788 C60.6428235,681.656736 61.758421,682.499033 62.980272,682.867541 C64.7864867,683.446625 66.7520826,683.709848 68.8239171,684.131 C68.8239171,688.500451 68.8239171,692.869904 68.8239171,697.660508 C61.4396871,697.976372 54.2679474,697.660507 47.0430886,697.923727 C47.0430886,698.134303 47.0430886,698.292226 47.0430886,698.502802 C49.380543,698.660734 51.7711255,698.818667 54.1085798,698.923955 C55.8616704,698.976599 57.6147551,698.976603 59.3147218,698.976603 C59.7928374,698.976603 60.2709609,698.976603 60.6959526,698.976603 C74.0831908,698.871315 87.5235488,698.766028 100.910787,698.713384 C109.569992,698.66074 118.229197,698.660736 126.888402,698.660736 C130.34146,698.660736 133.741392,698.871315 137.19445,698.976603 C140.063144,699.029247 142.931839,698.976603 145.853657,698.976603 C146.278648,698.976603 146.70364,698.766024 147.341127,698.660736 C146.278648,697.239348 144.791178,698.186929 143.303707,697.449913 C142.66622,694.343918 141.656865,690.97472 141.338121,687.55286 C140.966254,684.078357 141.338121,680.551212 141.231873,677.076709 C141.178749,675.392101 141.497491,673.970699 143.569325,673.496903 C143.569325,671.022635 143.569325,668.653669 143.569325,666.284689 C145.694284,668.916889 148.297359,668.179863 150.794185,667.811355 C152.547276,667.548136 153.291009,666.49526 152.600398,664.863297 C152.069158,663.652485 152.387904,662.599604 152.387904,661.441436 C152.441028,659.598897 152.281656,657.756351 152.122284,655.913811 C151.909788,654.071271 151.53792,652.281386 151.325425,650.438846 C151.006681,647.701359 150.687937,647.332834 147.819243,646.701106 C146.1724,646.332598 146.119277,646.122027 146.438021,644.43742 C146.597393,643.595116 146.544266,642.647528 146.491142,641.75258 C146.491142,641.22614 146.119276,640.594405 146.278648,640.173253 C147.181755,637.962206 145.21617,636.856688 144.419311,635.330012 C144.259939,635.014148 143.409953,634.75093 142.984962,634.803574 C141.656862,635.066794 140.700633,634.592996 139.58503,633.961268 C139.000666,633.59276 137.831938,633.329536 137.353822,633.6454 C136.875707,633.961264 136.822582,635.014142 136.66321,635.803802 C136.556962,636.17231 136.66321,636.540812 136.66321,636.698744 C136.13197,637.330472 135.228864,637.962212 135.335112,638.33072 C135.70698,639.962683 133.953889,641.752578 135.760104,643.226609 C136.397591,643.753049 136.928833,644.437424 137.300701,645.17444 C137.778817,646.016744 137.88506,646.96433 136.981953,647.701346 C135.813225,648.701582 135.600733,650.017687 135.441361,651.439074 C135.069493,655.387374 134.697622,659.335671 134.325754,663.28397 C134.219506,664.231562 134.21951,665.021228 135.01637,665.810888 C135.441361,666.23204 135.547609,667.126984 135.547609,667.811355 C135.600733,669.074811 135.441358,670.390906 135.388234,671.707005 C135.388234,672.233445 135.281987,673.075756 135.600731,673.286332 C137.141326,674.497144 136.66321,676.12912 136.716334,677.655796 C136.822582,681.446163 136.875707,685.236511 136.928831,689.026878 C136.981955,691.869653 136.769459,692.238174 134.272633,693.133122 C132.200799,693.870138 130.288339,694.659793 129.597728,697.028772 C129.438356,697.502568 128.482121,697.92372 127.844633,697.976363 C124.869691,698.081651 121.89475,698.029 118.601065,698.029 C118.282321,695.080937 117.644833,692.343461 119.504172,689.711262 C122.532237,685.499743 125.188438,681.077643 127.260272,676.287039 C129.119611,671.917588 129.491476,667.390207 130.022716,662.81018 C130.34146,660.283269 130.660202,657.70372 129.810219,654.703013 C129.172731,655.440029 128.588371,655.861165 128.269627,656.440249 C124.763446,663.073392 121.841625,669.917125 120.407278,677.339928 C120.088534,679.024536 119.557298,680.656498 118.972935,682.92019 C118.972935,678.445451 118.760439,674.549794 119.026059,670.759426 C119.610423,660.441204 120.407282,650.122964 121.097893,639.857386 C121.204141,638.383354 121.416634,636.909329 121.522882,635.435297 C121.576006,634.066554 122.266617,633.434818 123.64784,633.434818 C124.125956,633.434818 124.550946,633.329533 125.029062,633.329533 C132.253921,633.329533 137.72569,629.697101 142.666219,624.906497 C142.931839,624.695921 143.038088,624.327419 143.46308,623.748335 C136.450717,622.537524 129.757095,620.53705 123.169725,625.222365 C123.063477,622.748097 123.222847,620.800266 124.497822,618.905082 C128.907111,612.219295 134.21951,606.58639 140.594385,602.006363 C140.966252,601.743143 141.33812,601.532568 142.081855,601.058772 C141.922483,602.269583 141.763112,603.164526 141.60374,604.480626 C143.728698,603.74361 145.481787,603.059246 147.553621,602.32223 C149.41296,607.007545 149.412962,612.271945 152.547275,617.062548 C154.778481,612.377234 155.256597,607.902494 156.478448,603.217179 C158.284663,604.006839 160.037753,604.796497 161.790844,605.586157 C161.897092,605.428225 162.056464,605.270292 162.162712,605.165004 C161.472101,603.427752 160.834614,601.637854 160.090879,599.74267 C162.056465,598.321282 164.393918,598.531866 166.465753,597.847494 C168.431339,597.215766 170.503174,596.636677 173,595.952305 C170.821918,593.846546 168.484463,594.109765 166.465753,593.688613 C164.393918,593.214817 162.268961,592.898956 159.772135,592.42516 C160.462746,590.161468 161.153356,588.055707 162.056464,585.31822 C159.931505,586.423744 158.444035,587.16076 156.744068,588.055708 C155.309721,582.896597 154.77848,577.684838 152.866018,572.736303 C151.059803,573.578607 151.059804,575 150.741061,576.210806 C149.891077,579.68531 149.147342,583.212459 148.350482,586.739607 C148.244234,587.266046 148.031739,587.739842 147.872367,588.37157 C145.800532,587.476622 143.888069,586.634313 141.975606,585.792009 C141.816235,585.949941 141.656863,586.107879 141.497491,586.265811 C142.506846,588.160995 143.463078,590.003534 144.631805,592.267226 C140.488136,593.425394 136.131969,593.530682 131.669556,595.47851 C132.678911,596.057594 133.210154,596.531382 133.847642,596.689314 C136.025724,597.268398 138.203805,597.742195 140.381888,598.268635 C141.231871,598.479211 142.081854,598.742433 143.516201,599.110941 C135.600731,604.006832 129.491474,610.166186 123.966583,617.062548 C124.019707,616.483465 123.966586,615.904372 124.072834,615.325288 C124.922818,610.218821 125.932169,605.165005 126.569657,600.058538 C127.100896,596.110238 129.27898,593.267465 132.09455,590.740554 C133.900765,589.161234 135.919475,587.792487 137.778814,586.265811 C139.797524,584.633847 141.763111,582.949234 143.62245,581.159339 C146.491144,578.316563 147.553622,574.736772 147.234879,570.788472 C147.181755,570.209388 146.916134,569.577664 146.59739,568.577428 C145.906779,569.367088 145.428663,569.893528 145.003672,570.419968 C142.666217,573.262743 140.541261,576.316095 137.938186,578.948295 C135.122616,581.79107 132.785162,585.002351 130.553956,588.266279 C130.182088,588.845363 129.703973,589.424452 129.119609,589.898248 C130.128965,584.739137 130.97895,579.580023 133.103908,574.78942 C134.910123,570.788476 138.25693,567.840414 141.497491,564.839706 C142.081855,564.997638 142.55997,565.208214 143.09121,565.313502 C144.313061,565.629366 145.21617,564.997639 145.375541,563.892115 C145.481789,563.207743 145.10992,562.207505 144.57868,561.786353 C143.675573,561.101981 142.66622,561.470489 141.869361,562.365437 C139.58503,564.997636 137.247574,567.629835 134.750748,570.472611 C134.803872,566.629599 140.381888,553.468602 143.09121,550.520538 C145.959904,554.784701 148.828599,559.048865 151.697293,563.313028 C151.909789,563.260384 152.122282,563.260387 152.334778,563.207743 C152.547274,562.154863 152.759772,561.154627 152.919143,560.101747 C153.503507,555.995516 154.087871,551.889285 154.512862,547.73041 C154.672234,546.519598 155.15035,545.88787 156.265953,545.572006 C159.71901,544.466482 163.172067,543.308316 166.572001,542.150148 C167.315736,541.886928 168.006348,541.518421 169.228199,540.991981 C168.006348,540.307609 167.262612,539.781168 166.465753,539.41266 C163.437687,537.938628 160.462746,536.464598 157.43468,535.095854 C156.212829,534.569414 155.787838,533.832398 155.840962,532.516298 C156.000333,528.357423 156.10658,524.198547 156.212828,520.092315 C156.212828,519.039436 156.000332,517.986556 155.787836,516.45988 C154.725357,517.354828 154.087869,517.828624 153.503506,518.355064 C150.847308,520.934619 148.031737,523.408887 145.534911,526.09373 C143.994316,527.778338 142.400598,527.988913 140.328763,527.567761 C136.238219,526.725457 132.094551,526.09373 127.950882,525.356714 C127.579014,525.30407 127.260271,525.30407 126.463411,525.198782 C126.782155,526.09373 126.888404,526.778102 127.260272,527.304542 C129.278983,530.515826 131.29769,533.72711 133.475772,536.833106 C134.644499,538.465069 134.644499,539.675882 133.528896,541.307845 C131.457062,544.361197 129.544601,547.519833 127.579015,550.678472 C126.994651,551.57342 126.516535,552.521014 125.985296,553.468606 C126.091544,553.626538 126.250915,553.784467 126.357163,553.942398 C131.244567,552.678943 136.185094,551.468133 141.391243,550.152034 C139.21316,555.311145 137.035079,560.15439 135.228864,565.102925 C133.369525,570.104104 131.882055,575.263222 130.022716,581.001417 C129.81022,579.474741 129.597724,578.579785 129.491476,577.632193 C128.800865,567.682479 126.038419,558.206562 122.744734,548.888575 C121.947874,546.730171 121.151012,544.571773 120.194781,542.466013 C119.663541,541.307845 119.982286,540.412898 120.354154,539.307375 C120.832269,537.885987 119.929164,536.25402 118.547941,535.72758 C117.166718,535.201141 115.466754,535.938158 114.829266,537.359545 C113.979283,539.202085 115.041763,541.097269 117.113598,541.571064 C117.644837,541.676352 118.176076,541.676351 118.972935,541.728995 C124.019711,554.152977 127.844633,566.945468 128.375873,580.685549 C125.666551,572.157222 122.904102,563.576246 119.982284,554.468837 C119.185425,555.521717 118.547939,556.100803 118.282319,556.785175 C115.785493,563.155098 115.732367,569.314447 119.982284,575.15793 C121.894746,577.790129 123.488471,580.580263 125.135314,583.370395 C127.154024,586.73961 127.897761,590.108827 126.94153,594.162414 C125.135315,601.953725 124.072832,609.955607 122.638485,617.852206 C122.425989,618.905086 122.266618,620.063255 121.682254,621.010847 C117.219842,628.43365 114.191774,636.435534 111.907444,644.858573 C111.748072,644.332133 111.482456,643.753049 111.482456,643.226609 C111.376208,638.330718 109.357497,634.435066 105.213828,631.802866 C102.982622,630.381479 102.982618,628.696869 103.513858,626.591109 C105.95756,626.169957 108.295013,625.748802 110.685592,625.32765 C115.201128,624.53799 118.49482,619.957964 116.954225,614.009192 C112.385564,616.588748 108.61376,620.168544 103.779479,623.063963 C103.885727,615.957025 104.629464,609.271228 105.10758,601.953714 C108.932505,605.32293 111.376208,609.218591 114.616769,612.324587 C114.829265,612.219299 115.041759,612.114007 115.254254,612.008719 C114.191775,607.53398 113.129295,603.111882 111.960568,598.268635 C115.997989,598.847719 119.610423,599.426813 123.222852,599.953253 C123.3291,599.742677 123.435347,599.584742 123.541595,599.374166 C120.619777,596.952542 117.644834,594.530915 114.457396,591.898715 C117.59171,589.371804 120.51353,587.002828 123.754092,584.370629 C121.469761,583.686257 119.610422,584.423274 117.804207,584.528562 C115.891745,584.63385 113.979283,584.897061 111.641828,585.107637 C112.757431,580.685542 113.819911,576.631957 114.829266,572.578369 C114.669894,572.473081 114.457396,572.367794 114.298024,572.31515 C111.16371,575 109.091875,578.68508 105.745065,581.527855 C104.045098,577.526912 103.354487,573.315388 101.548272,569.472377 C101.335776,569.472377 101.070159,569.525025 100.857663,569.525025 C100.379547,573.736545 99.9014292,577.948057 99.4233135,582.47544 C95.3327688,580.317037 92.4640787,577.000464 88.5860295,574.894705 C89.4891369,579.369444 92.5172018,582.949237 93.6859289,587.529264 C89.701632,588.318924 85.8235798,589.108587 81.6267869,589.95089 C83.3798775,591.79343 85.6110874,591.898722 87.470426,592.583094 C89.4360125,593.320109 91.4547235,593.899193 93.8453017,594.688852 C91.1359798,599.005659 87.4173,602.216939 85.0267218,606.375814 C85.1860937,606.533746 85.345462,606.691678 85.45171,606.84961 C89.4891308,604.691206 93.5265573,602.532807 97.8827218,600.216472 C98.3077135,604.480635 97.0327405,608.376285 97.1921124,612.429872 C100.007682,609.90296 101.176407,606.270527 104.045101,603.111888 C103.460737,612.11401 102.876369,620.537047 102.292006,629.01273 C100.113924,629.486525 98.9983185,627.32813 96.7139881,627.32813 C96.6077401,628.065145 96.3421245,628.907434 96.3952485,629.749738 C96.5546203,632.01343 96.8202384,634.329767 97.1389822,636.593459 C97.4577259,638.541287 98.6795826,639.910028 100.220177,641.068196 C101.070161,641.699924 101.760769,642.331653 101.707645,643.542465 C101.495149,649.54388 101.33578,655.545314 101.176408,661.494085 C101.176408,661.652017 101.017034,661.757298 100.69829,662.231094 C97.776472,656.808763 94.960901,651.491718 92.092207,646.122031 C89.6485049,648.596299 89.4360105,654.860943 91.295349,658.91453 C93.1015637,662.86283 94.9077799,664.494789 101.017035,667.600785 C101.017035,677.445212 101.017035,687.447559 101.017035,697.765781 C98.8920771,697.765781 96.7671185,697.818425 94.695284,697.765781 C93.5796809,697.713137 93.5265555,696.765551 93.4203076,695.923247 C92.835944,691.817016 92.2515822,687.710781 91.6140946,683.60455 C90.1266237,674.128632 88.5329028,664.705369 87.0454319,655.229451 C86.7798121,653.597487 86.4079404,651.965513 86.3548165,650.333549 C86.3016925,648.964805 86.4079428,647.596065 86.7798106,646.279965 C89.064141,637.646351 91.6140977,629.01273 92.1453373,620.010607 C92.2515852,617.852204 91.8265889,615.641158 91.3484733,613.482754 C91.1359775,612.693094 90.1266226,611.692857 89.3297633,611.482281 C88.1079122,611.166417 87.3110574,612.324589 86.9923136,613.377469 C86.461074,615.062077 85.8235855,616.746673 85.7704615,618.431281 C85.4517177,624.064187 85.3454665,629.697101 85.1860946,635.277363 C85.1329707,636.224955 85.0267182,637.17255 84.3892307,638.172786 C83.7517431,635.06679 83.0611393,631.960791 82.5830236,628.854796 C81.6267924,622.484873 80.511186,616.114957 79.9268224,609.692389 C79.183087,601.532571 78.4924739,593.3201 79.6612011,585.107637 C80.4580605,579.580018 82.4767688,574.420911 85.5579585,569.735596 C86.3548179,568.524784 87.2579255,567.998345 88.7453964,568.103633 C91.7203381,568.314209 94.695283,568.419499 97.6702248,568.472143 C98.5733321,568.472143 99.6358148,568.472142 100.37955,568.05099 C101.070162,567.629838 101.920148,566.682246 101.867024,565.997874 C101.8139,565.15557 101.176404,564.102687 100.432669,563.576247 C99.795181,563.102451 98.6264507,562.997164 97.7764673,563.102452 C95.8640049,563.365672 93.9515456,563.892115 92.092207,564.365911 C91.4015956,564.523842 90.7109839,564.787063 89.9672484,564.787063 C93.5265535,560.680832 97.935851,557.785411 102.929503,555.521719 C103.885734,557.995987 101.973262,560.78612 104.416964,562.733947 C106.701295,561.944287 106.754424,559.417375 108.454391,558.048631 C108.773134,558.785647 109.091877,559.470018 109.410621,560.15439 C109.516869,560.15439 109.623119,560.101747 109.729367,560.101747 C109.729367,559.364731 109.729367,558.680361 109.729367,557.732769 C111.216838,558.259209 112.598056,558.785646 114.138651,559.364729 C114.776138,556.574598 112.598056,555.153211 112.119941,552.994807 C112.9168,552.731587 113.713664,552.468368 115.041763,552.047216 C113.766788,551.783996 112.969925,551.626066 112.226189,551.41549 C112.173065,549.362374 114.298026,547.940987 113.660538,545.835228 C111.641828,544.834992 110.154355,546.83546 108.029396,546.782816 C107.976272,545.203496 107.870029,543.676824 107.816905,542.150148 C107.604409,542.150148 107.39191,542.150148 107.232538,542.150148 C107.179414,542.887164 107.12629,543.676822 107.073166,544.413838 C107.020042,545.09821 106.966917,545.782584 106.913793,546.624888 C104.788834,546.045804 103.779482,543.571537 101.176408,543.940045 C101.176408,545.361433 101.176408,546.782818 101.176408,548.309494 C100.007681,547.783054 98.9983256,547.256612 97.9889704,546.782816 C97.8827225,546.940748 97.776473,547.046037 97.7233491,547.203969 C98.7327043,548.046273 99.7420652,548.888574 100.804544,549.730878 C99.2108256,551.20491 96.3421256,550.625831 95.5452662,553.205387 C97.0858611,554.679419 99.1576984,554.258265 101.282657,554.784704 C98.2014671,556.943108 95.1733992,558.68036 92.5172011,560.891407 C89.8610031,563.102455 87.5766713,565.7873 84.9204733,568.472143 C88.4266545,556.94311 91.8797178,545.624651 95.3327751,534.25355 C96.7671221,536.833105 98.0420906,539.149441 99.4233135,541.465776 C99.5826854,541.78164 100.220181,541.834284 100.804544,542.04486 C102.557635,539.517948 101.973267,536.727817 102.132639,533.569177 C103.35449,534.569413 104.310721,535.306429 105.266953,536.043445 C105.373201,535.938157 105.532569,535.832868 105.638816,535.72758 C104.841957,534.779989 104.098226,533.885041 103.195118,532.779517 C105.213829,531.568705 108.029394,532.990094 109.623112,530.621114 C108.295013,527.883627 105.107579,527.620407 102.823248,525.725223 C104.098224,524.724987 105.266947,523.830039 106.435674,522.882447 C106.329427,522.724515 106.276307,522.619226 106.170059,522.461294 C105.532572,522.777158 104.948203,523.040379 104.310716,523.356243 C103.673228,523.672107 103.035747,524.040615 102.238888,524.461767 C101.388904,521.513704 102.929497,518.407708 100.910787,515.512288 C97.7764733,516.98632 96.6608685,520.197603 94.3234141,522.461294 C93.5796787,520.881974 92.9421913,519.407944 92.2515798,517.933912 C92.039084,517.986556 91.8797088,518.091844 91.6672129,518.144488 C92.0922046,519.513232 92.5703222,520.881974 93.0484378,522.40865 C90.5516118,522.777158 88.3735301,520.566111 85.8767041,521.934854 C86.036076,524.567054 88.2672859,525.988442 89.6485088,528.199489 C87.9485421,528.515353 86.5141927,528.778574 85.0267218,529.041794 C85.0267218,529.147082 85.0267218,529.305013 85.0267218,529.410301 C86.3548208,529.410301 87.7360406,529.410301 89.7016271,529.410301 C88.426652,531.042265 87.4172971,532.200435 86.6204378,533.516535 C86.0360742,534.464127 84.8142296,535.622294 85.664213,536.727817 C86.7266922,538.043917 88.0547874,536.938392 89.1703905,536.359308 C90.7641092,535.517005 92.3578289,534.569413 94.5359112,533.358601 C89.9141268,548.362138 85.7173331,562.839235 80.8299289,577.053112 C80.6174331,577.053112 80.4580579,577.053112 80.245562,577.053112 C80.1393141,576.684604 79.9799407,576.316095 79.9799407,575.947587 C79.9799407,572.15722 80.0330709,568.366854 80.0330709,564.576487 C80.0330709,563.049811 80.1393191,561.62842 82.1580295,560.786116 C80.4049389,559.943812 79.8736985,558.785648 79.9268224,557.206328 C79.9799464,554.574128 79.9268224,551.889286 79.9268224,548.993866 C81.5736651,550.152034 83.1142581,551.257559 84.8142248,552.415726 C86.2485718,550.046747 84.44236,548.414782 84.2829881,546.361666 C85.2923433,546.519598 86.1954488,546.677527 87.0985561,546.835459 C87.1516801,546.730171 87.2048109,546.572242 87.2579349,546.466954 C86.9391911,546.256378 86.6735602,545.99316 86.3548165,545.835228 C85.9298248,545.624652 85.5048362,545.466718 84.8142248,545.203498 C85.9298279,544.203263 86.9391834,543.360959 88.0016626,542.413367 C86.8329355,540.412896 84.7079797,541.518419 83.2205088,540.465539 C83.7517484,539.67588 84.2298666,538.938864 84.7079822,538.149204 C84.6017343,538.043916 84.4954786,537.991273 84.3892307,537.885985 C83.4861233,538.570357 82.5830178,539.254728 81.5736626,539.991744 C80.1393156,538.570356 80.2455637,536.201377 78.439349,535.201141 C77.2706219,536.359309 77.2706261,536.359308 76.0487751,539.991744 C75.2519157,539.044152 74.6144283,538.254493 73.9769408,537.464833 C77.1112544,530.305251 77.0581238,523.461531 71.7457277,517.460116 C68.717662,514.038256 64.7864936,512.406293 60.0053372,513.195953 C59.8990893,514.564696 60.9084413,514.88056 61.5459289,515.407 C64.5739945,518.0392 66.7520828,521.092551 66.7520828,525.146138 C66.7520828,534.41148 59.4209785,538.149205 52.4617396,536.622529 C49.9117893,536.096089 48.052451,534.358838 46.1931124,532.200435 C44.7056415,533.621823 43.2712811,534.990565 41.7306862,536.517241 C40.4025872,533.569177 41.3057054,530.252605 39.4463668,527.199254 C37.7464001,530.357893 38.277637,533.72711 36.8964141,536.833106 C34.8777037,534.990566 33.0183662,533.253312 30.8402839,531.252841 C30.2027964,533.463888 31.4777781,534.622057 32.0090177,535.938157 C32.5402573,537.254257 33.2839804,538.517712 34.0277158,540.097032 C31.7433854,540.570828 29.7246731,540.991979 27.3872188,541.518419 C29.2465573,544.04533 32.2746377,543.62418 34.1339763,545.361432 C32.9652491,547.730412 31.7434012,550.099389 30.468426,552.731588 C31.2121615,552.88952 31.6371402,552.942164 32.3808756,553.100096 C31.90276,555.205855 31.4246481,557.311615 30.9465325,559.417375 C30.4684168,561.470491 29.9903043,563.523609 29.4059408,565.892589 C25.7403875,564.102693 22.7123108,561.628423 19.1530057,560.101747 C20.6404766,563.944759 23.668544,566.840176 25.7403785,570.683187 C21.7560816,571.630779 18.0374209,572.578373 14,573.578609 C15.4874709,575.368505 17.5061627,575.105283 19.0998815,575.737011 C20.7467241,576.368739 22.4466854,576.78989 24.412272,577.368974 C22.7654293,581.369917 20.0561112,584.686486 18.8342602,588.792717 C23.0310531,587.371329 26.2184965,584.370625 30.3621656,582.422798 C31.7965125,587.529265 32.3808872,592.741021 34.3995976,597.584269 C36.524556,592.793665 36.3120434,587.581914 37.7463904,582.686023 C42.2088027,584.844426 52.5148586,597.90013 57.8803786,608.323639 C56.3397837,607.797199 55.1179338,607.323405 53.8960828,606.902253 C51.3992568,606.059949 50.0711567,606.375813 49.5399171,607.797201 C49.1149254,608.955369 50.0180353,610.639982 52.0898698,611.27171 C54.5335719,612.06137 57.136644,612.429873 60.1115857,613.061601 C63.6177669,620.747624 65.2114858,629.328599 66.3802129,638.751872 C62.6084119,635.909097 59.208477,633.382182 55.7022958,630.802627 C58.252246,628.065139 54.905438,627.0649 53.8960828,625.169716 C54.7991901,624.274768 55.7554243,623.485112 56.4991597,622.484876 C56.9772753,621.905793 57.3491473,620.958198 57.2428994,620.273826 C56.9772796,619.168303 55.8085392,619.273591 54.9054318,619.326235 C53.7367046,619.378879 52.5679806,619.53682 51.2398815,619.694752 C51.3461295,618.536584 51.4523786,617.58898 51.4523786,616.694032 C51.3992546,614.95678 50.6555178,614.588279 49.114923,615.53587 C48.2649396,616.114954 47.5212138,616.799322 46.6181065,617.536338 C44.7587679,616.220238 44.5462701,613.324822 42.102568,612.587806 C39.605742,614.009193 40.9869629,616.694031 39.6588638,618.589215 C38.2245169,618.115419 37.0026674,617.746912 35.7276923,617.378404 Z M41.1994555,571.262274 C43.1650421,567.945703 44.8118762,564.839703 45.9806034,560.786116 C42.740042,562.891876 40.0307281,564.629132 36.9495384,566.629603 C35.7808112,561.259916 34.7183371,556.258735 33.6558579,551.257556 C34.9308331,550.152032 35.9933088,549.257086 37.2682839,548.204206 C38.1182673,551.310201 37.3745286,554.258265 38.8088756,556.943109 C40.4025944,555.995517 40.1369721,554.416199 40.4557158,553.205387 C40.8807075,551.836643 41.0400845,550.362609 41.3588283,548.78329 C44.0681502,551.310201 48.2118186,558.733 49.6461656,563.365671 C48.5836864,564.050043 47.4680767,564.787062 46.4055975,565.524078 C46.4587214,565.734654 46.5118586,565.945233 46.6181065,566.103165 C48.1055774,566.366385 49.6461634,566.629602 51.3461301,566.892822 C51.8773697,568.735362 52.4086064,570.577901 52.939846,572.473084 C53.8429534,575.05264 54.5335626,577.684844 54.6398105,580.843483 C53.1523396,579.843247 51.983626,578.948294 50.7086509,578.263923 C49.168056,577.421619 48.0524463,577.526909 47.4680827,578.421856 C46.6180994,579.685312 47.2555903,580.738185 48.0524496,581.685777 C48.4774413,582.159573 48.9555535,582.633373 49.5399171,582.896593 C50.92114,583.580965 52.3554876,584.370625 53.8429585,584.739133 C55.0648096,585.054997 55.5429233,585.634087 55.5960472,586.792255 C55.6491712,589.266523 55.808544,591.740783 55.75542,594.215051 C55.75542,596.373454 55.4897981,598.479214 55.3835502,600.900838 C50.6023937,594.952067 46.0868612,589.319156 41.4119526,583.528317 C44.5462662,584.475909 47.0962193,586.423747 50.2836568,586.792255 C48.0524506,583.265108 44.8650034,580.580263 42.3150531,577.158403 C45.5556145,576.05288 48.3180751,575.052639 51.133645,574.105047 C52.0367523,573.894471 52.7804864,573.420677 52.9929822,572.420442 C49.2211812,572.051934 45.5024966,571.683426 41.1994555,571.262274 Z M127.68526,552.099859 C129.385227,549.362371 131.032072,546.624889 132.785163,543.940045 C136.23822,538.517714 136.450716,540.044388 132.838287,534.622057 C131.191444,532.095145 129.650848,529.51559 127.844633,526.672814 C129.01336,526.672814 129.703974,526.567526 130.394586,526.672814 C134.060139,527.304542 137.725689,527.830982 141.391243,528.673286 C142.878713,528.98915 143.888068,528.725929 144.897423,527.725694 C147.712993,525.04085 150.528563,522.356007 153.397257,519.723807 C153.822249,519.355299 154.353489,519.09208 154.990976,518.670928 C155.0441,519.460588 155.150351,519.934383 155.150351,520.355535 C155.044103,524.619699 155.044101,528.831217 154.831605,533.09538 C154.778481,534.306192 155.097225,535.04321 156.159704,535.517005 C156.690944,535.727581 157.169061,535.938158 157.7003,536.201378 C160.675242,537.675409 163.597059,539.202085 166.996993,540.886692 C165.828265,541.360488 165.190778,541.67635 164.500166,541.886926 C161.684597,542.834518 158.869027,543.782111 156.000333,544.624414 C154.35349,545.09821 153.609754,546.045801 153.503506,547.783053 C153.344134,550.099388 152.972267,552.363079 152.653524,554.626771 C152.387904,556.679886 152.069161,558.733002 151.697293,561.312557 C148.084864,557.101038 146.650516,552.099862 142.666219,548.730647 C137.778815,550.046747 132.891413,551.310199 128.004009,552.573654 C127.897761,552.415722 127.791508,552.257791 127.68526,552.099859 Z M66.9645679,596.057591 C65.7958407,595.425863 64.5739928,594.846779 63.2990176,595.583795 C61.8115467,596.478743 61.9178012,598.058061 62.3427928,599.321517 C62.9802804,601.427277 63.8302549,603.480398 64.9989821,605.322938 C66.380205,607.58663 68.2395474,609.587096 69.8332662,611.7455 C70.3113818,612.377228 70.7895035,613.166891 70.8957514,613.903907 C71.3207431,615.957023 71.6394923,618.062782 71.8519882,620.168541 C71.9051121,620.852913 71.7988495,621.800501 71.3738578,622.169009 C69.5676432,623.695685 67.6551835,625.011785 65.583349,626.53846 C65.3708532,625.959376 65.1583662,625.53822 65.0521183,625.117068 C63.3521516,617.588977 60.4303339,610.534689 56.7116568,603.848903 C56.339789,603.164531 56.2335387,602.269584 56.2866627,601.479925 C56.3397866,599.637385 56.6054088,597.794845 56.7116568,595.952305 C56.7647807,594.899426 57.189769,594.320342 58.1991242,593.846546 C59.8459668,593.056887 61.5459374,592.214575 63.0334083,591.161695 C63.8833916,590.582611 64.6271266,589.582387 65.0521183,588.634795 C65.3177381,588.055711 65.0521156,586.897535 64.5739999,586.423739 C64.0958843,586.002587 62.9271564,585.792015 62.3427928,586.055235 C61.1740657,586.581674 60.2178282,587.529264 59.155349,588.213636 C58.4647375,588.687432 58.0928804,589.740312 56.8179053,589.58238 C56.6054095,581.79107 54.7460581,574.315621 52.5148519,566.576955 C54.5335623,566.734887 56.0741632,566.840176 57.7210058,566.998108 C57.5616339,569.840883 55.3304198,572.104579 56.339775,575.579083 C58.6241054,573.368035 60.4303319,571.525495 62.6084141,569.367092 C62.82091,570.314683 62.9271481,570.735831 62.980272,571.156983 C63.7240075,574.368266 64.1490009,577.737483 65.3708519,580.790834 C66.2208353,582.949238 66.9645816,585.002353 67.2833254,587.266045 C67.4958213,590.477328 67.9739319,593.53068 68.5051715,596.952539 C67.7083122,596.531387 67.3364356,596.320811 66.9645679,596.057591 Z M110.685592,586.371102 C114.244897,585.94995 117.432337,585.581442 120.566651,585.212935 C120.619775,585.370867 120.6729,585.581441 120.726024,585.739373 C118.229198,587.739844 115.785493,589.740311 113.076172,591.951358 C115.785493,594.162406 118.2292,596.21552 121.204142,598.689788 C117.379217,598.32128 114.351146,597.268406 110.898089,597.531626 C111.801196,601.479925 112.704307,605.165003 113.55429,608.902726 C110.048109,606.323171 107.976271,602.480161 104.576337,600.058538 C101.548272,602.690737 101.176404,606.744317 98.30771,609.587092 C98.30771,605.744081 99.529559,602.37487 98.9983194,598.795079 C95.1202702,600.321755 91.9859604,602.743374 88.1079112,603.796254 C90.4453655,600.795547 92.8359435,597.742205 95.4390177,594.425633 C91.6672166,593.05689 88.3735314,591.898717 85.0798461,590.687905 C85.13297,590.529973 85.1329707,590.372043 85.1860946,590.161467 C88.426656,589.529739 91.6140972,588.898008 95.2265266,588.213636 C93.5265599,584.528557 92.0390862,581.264632 90.5516153,577.948061 C94.1640447,579.474737 96.6077414,582.317511 100.060799,584.212695 C100.75141,580.31704 100.698291,576.684607 101.973266,573.262748 C103.035745,576.579319 104.098226,579.843239 105.320077,583.686251 C108.082523,580.685543 110.366853,578.158638 112.704308,575.579083 C112.59806,579.36945 110.844964,582.633379 110.685592,586.371102 Z M118.282319,665.49502 C117.697956,676.129106 117.53859,686.763193 117.166722,697.555211 C114.616772,697.555211 112.332441,697.555211 109.729367,697.555211 C109.676243,691.395864 109.569988,685.552378 109.569988,679.656251 C109.569988,678.971879 110.101228,678.076943 110.685592,677.603147 C114.244897,674.86566 115.73237,671.022647 116.263609,666.811128 C116.476105,665.073876 116.901098,663.178689 115.466751,661.178217 C113.713661,663.283977 112.119944,665.179163 110.526225,667.074347 C110.313729,664.389503 110.579345,661.862583 110.844964,659.335671 C111.694948,651.439073 113.182423,643.64776 115.785497,636.119669 C116.794852,633.118962 117.166717,632.961023 120.513527,633.855971 C119.769791,644.384769 118.866683,654.913578 118.282319,665.49502 Z M29.8840591,567.261327 C30.4152987,565.102923 30.8934115,563.049807 31.4777751,561.049335 C32.0621387,559.154152 31.7965063,556.943109 33.4433489,555.100569 C34.4527041,559.522664 35.4089408,563.576248 36.47142,568.156275 C39.1807419,566.419024 41.4650778,564.892346 43.7494082,563.365671 C43.8556561,563.470959 43.9087816,563.57625 44.0150295,563.681538 C42.6869305,566.366382 41.3588321,568.998582 39.9244852,571.946646 C42.0494436,572.157222 43.7494054,572.262508 45.3431242,572.473084 C46.883719,572.68366 48.58369,572.209868 50.2836568,573.473324 C46.9368472,574.578848 43.9087739,575.631721 40.5619644,576.737245 C43.0587904,579.527376 45.2900008,582.054295 47.521207,584.528562 C43.6962821,583.791547 40.6150912,581.475207 36.8964141,580.527615 C35.4089432,585.265574 35.8870559,590.003529 34.2933371,594.320336 C33.8683455,593.688608 33.7089813,593.109524 33.5496094,592.477796 C32.8589979,589.213869 32.2215105,586.002587 31.4777751,582.738659 C31.0527834,580.685544 30.3090318,580.422331 28.6621891,581.527855 C28.2903214,581.791075 27.9715952,582.106935 27.5466035,582.370155 C25.3153973,583.896831 23.0841883,585.423501 20.8529822,586.950177 C20.7467342,586.844889 20.6404842,586.686961 20.4811123,586.581673 C22.181079,583.423033 23.9341639,580.21175 25.7403785,576.895178 C22.6060649,575.894943 19.8967538,575 17.1874319,574.15769 C17.1874319,573.999758 17.1874319,573.841831 17.1874319,573.736543 C20.4279933,572.946883 23.7216655,572.104579 27.3872188,571.209631 C25.3153843,568.314212 23.5623075,565.787299 21.4373491,562.733947 C24.7841586,563.839471 26.8028694,566.103159 29.8840591,567.261327 Z M79.5549586,618.694512 C79.3424627,618.326004 79.1299635,617.957495 78.9705917,617.588987 C76.3675175,612.271944 73.9769426,606.90225 71.1613727,601.690495 C70.0457697,599.584735 69.3551463,597.531626 69.0895265,595.215291 C68.6645348,592.004007 68.3989188,588.792715 67.6551833,585.634076 C66.5927041,580.843472 67.1239431,576.105518 67.5489348,571.367559 C67.6020587,570.788475 67.7614331,570.156747 67.9739289,569.314443 C70.4707549,570.893763 71.9051061,573.473316 74.9862958,574.473552 C74.3488082,571.051693 72.2769758,568.577426 71.1613727,565.418787 C73.711323,564.471195 76.1550223,563.523606 79.0768402,562.418083 C79.0237162,571.314917 79.3424593,579.685314 77.9081124,588.055708 C77.3237488,587.476624 77.058128,586.792252 76.6862603,586.213168 C75.5175331,584.317985 74.4019339,582.422798 73.1800828,580.580258 C72.5957192,579.737954 71.6926087,579.106224 70.5238816,579.737952 C69.4614024,580.317036 69.2489014,581.369919 69.6207691,582.370155 C69.9926368,583.475679 70.4707613,584.633847 71.1613727,585.581439 C72.8082154,587.687199 74.6144243,589.687667 76.420639,591.688139 C77.4831182,592.898951 78.1206097,594.109768 78.1737337,595.84702 C78.2799816,600.374403 78.6518479,604.849139 78.9705917,609.376522 C79.1830875,612.429873 79.5549544,615.483219 79.8736982,618.589215 C79.7674502,618.641859 79.6612065,618.641868 79.5549586,618.694512 Z M72.8613372,615.851738 C75.1987915,618.799802 77.4831255,621.8005 79.8205799,624.748563 C80.6705632,625.801443 81.2018,626.854324 81.4142958,628.170424 C83.1673864,638.120138 84.9736017,648.12251 86.7266923,658.072224 C87.5235517,662.704896 88.2141577,667.337561 88.9047691,671.917588 C88.2672816,671.180572 87.7891698,670.390908 87.470426,669.548604 C84.9204757,663.283969 81.6799119,657.440487 77.642491,651.965512 C76.8987556,650.965277 76.5268863,649.649186 76.3143904,648.38573 C75.4644071,642.542247 74.7206705,636.698758 74.0300591,630.855275 C73.8175632,628.80216 73.0738341,626.696389 74.0831893,624.590629 C74.2956851,624.116833 74.0831872,623.221896 73.7113195,622.800744 C72.0644768,620.800273 72.4894659,618.326 72.2238461,616.062309 C72.4363419,616.009665 72.6488414,615.904382 72.8613372,615.851738 Z M72.011349,518.934148 C78.4393483,527.725694 74.720676,540.886693 62.4490414,543.413604 C57.0303975,544.519128 52.8336023,542.308079 49.4867928,538.149204 C49.1149251,537.728052 49.008684,537.096325 48.5836923,536.201378 C49.4336756,536.517242 49.8586651,536.675172 50.2836568,536.885748 C55.4898051,539.044152 61.2271919,537.728053 64.786497,533.72711 C67.5489428,530.621114 69.1426541,523.830039 65.5302247,518.776216 C64.4677455,517.24954 63.2458983,515.775508 62.0240473,514.248832 C65.5302285,513.985612 69.7801428,515.880796 72.011349,518.934148 Z M67.0708284,567.682486 C66.9114565,569.630313 66.8052062,571.367562 66.6458343,573.104814 C66.4864624,574.894709 66.2739632,576.684603 66.0614674,578.474499 C65.8489715,578.527143 65.6896083,578.52714 65.4771124,578.579784 C64.6271291,575.105281 63.7240182,571.578136 62.7677869,567.629837 C60.6959524,569.840885 58.99599,571.630784 57.2428994,573.473324 C57.0835275,573.368036 56.924141,573.262744 56.7647691,573.157456 C57.4553805,570.946409 58.1991284,568.735359 58.9428639,566.313736 C55.3835588,566.050516 52.1961202,565.839941 48.318071,565.576721 C51.7180044,563.313029 55.1710571,562.628659 57.9335029,560.417612 C57.4022633,559.522664 56.977264,558.838289 56.6053963,558.101274 C56.2335286,557.364258 55.5429251,556.627241 55.9147928,555.469074 C57.5616355,556.469309 59.102235,557.36426 60.9084497,558.469784 C61.1740695,556.153448 61.3865576,554.363551 61.6521774,552.521012 C61.8646732,550.78376 62.130297,549.046508 62.3427928,547.3619 C62.5021647,547.3619 62.6615277,547.3619 62.8740235,547.3619 C63.8833787,550.678471 64.8396154,553.942398 65.9020946,557.52219 C68.027053,556.153446 69.78014,555.047922 71.5332306,553.942398 C71.6926025,554.047686 71.7988529,554.152978 71.9582247,554.258266 C71.1082414,556.206094 70.2582661,558.153921 69.195787,560.628188 C72.7550921,560.628188 75.7300286,560.628188 78.7049703,560.628188 C76.2612682,563.207744 72.8613326,563.470957 69.9395147,565.260853 C70.9488699,567.366613 71.9582254,569.525021 73.1269526,571.999289 C70.5770023,570.999053 69.6207786,568.52479 67.0708284,567.682486 Z M40.0838579,628.538928 C37.215164,627.275472 33.8152163,627.48605 31.3183903,625.011782 C34.1870843,623.011311 37.4807737,623.590399 40.4025916,622.748096 C41.4650708,619.90532 40.2432294,616.641388 42.102568,613.693325 C44.758766,615.957016 45.5556199,619.220947 47.4149585,621.642571 C50.4430241,621.642571 53.152349,619.694739 56.2866627,620.642331 C55.9147949,622.590158 54.267946,623.169248 53.0992188,624.11684 C51.9304916,625.117076 50.6555196,625.95938 49.4336685,626.854328 C50.2836519,628.59158 51.0805127,630.065608 51.7711242,631.592284 C52.4086117,633.013672 53.8960773,634.224478 52.939846,636.172306 C49.4867887,635.382646 48.2649435,632.01344 45.6087455,630.276188 C43.4837871,632.908388 42.4213065,636.172311 39.0744969,638.278071 C38.1182657,634.487704 40.030734,631.644923 40.0838579,628.538928 Z M50.921136,562.944524 C49.8586568,560.838764 48.9555566,558.943578 47.9993254,557.048394 C46.9899702,555.15321 45.927485,553.258026 44.8650058,551.310198 C46.2462287,551.152266 46.8837124,552.889519 48.3711833,551.731351 C47.0962081,549.415016 45.8212469,547.098684 44.4931479,544.67706 C47.0430982,543.676824 49.4867952,542.781875 52.0367455,541.834284 C54.7991913,543.887399 57.9335003,544.729702 61.6521774,544.519126 C61.1740618,548.730645 60.8021984,552.573658 60.3240828,556.943109 C58.0397523,555.521721 56.1804143,554.363551 54.1085798,553.100096 C53.5242162,556.311379 56.2866642,557.838055 56.552284,560.470255 C54.7460693,561.259914 52.9398464,562.049576 50.921136,562.944524 Z M110.685592,648.596301 C111.482451,649.175385 111.323082,649.96504 111.216834,650.859987 C110.526223,655.808522 109.676241,660.704419 109.357497,665.652954 C109.198125,668.179866 108.507512,670.232979 106.913793,672.180807 C105.373198,674.075991 103.938847,676.023829 102.026385,678.445453 C101.920137,666.337335 102.132637,655.018859 102.770124,643.173961 C105.691942,645.174432 108.188766,646.859049 110.685592,648.596301 Z M87.1516804,522.356007 C87.5235481,522.356007 87.8954159,522.303363 88.2141597,522.356007 C89.3828869,522.671871 90.5516098,522.987735 91.6672129,523.408887 C94.3765348,524.356479 94.3765409,524.356478 95.8640118,522.040143 C96.820243,520.566111 97.8827163,519.197368 98.9983194,517.828624 C99.3170632,517.407472 99.954561,517.196896 100.804544,516.617812 C100.804544,519.987028 100.804544,522.93509 100.804544,525.619933 C103.195123,527.567761 106.276308,527.988915 108.401266,530.779047 C105.63882,531.042267 103.301365,531.305487 100.857663,531.568707 C100.698291,534.674702 101.707642,537.780697 100.167047,540.991981 C97.5108492,538.096561 97.1389906,534.51677 95.4921479,531.568707 C92.3047104,532.884807 89.9672529,535.674938 86.5673195,536.201378 C86.4079476,536.043446 86.248573,535.83287 86.0892011,535.674938 C87.8422917,533.358602 89.5953823,531.042265 91.295349,528.778573 C89.7547542,526.725457 88.2141632,524.830275 86.7266923,522.882447 C86.8860642,522.724515 87.0454325,522.513939 87.1516804,522.356007 Z M78.7049703,682.130532 C79.2362099,682.551684 79.5018289,683.551906 79.6080768,684.288922 C79.9799446,687.552849 80.2986878,690.869427 80.5643076,694.185999 C80.6705555,695.238879 80.5643076,696.344403 80.5643076,697.607859 C76.9518782,697.607859 73.4988198,697.607859 69.9395147,697.607859 C69.9395147,690.395632 69.9395147,683.44662 69.9395147,676.129106 C73.1269522,678.287509 75.9956484,680.130061 78.7049703,682.130532 Z M90.7641064,687.02641 C87.2579252,682.920179 83.6455011,678.813951 80.1924437,674.655076 C79.6080802,673.91806 79.2893307,672.812543 79.1830827,671.864951 C78.5455952,667.126992 78.0143579,662.389026 77.4831183,657.598423 C77.3237464,656.387611 77.3237511,655.176799 77.2706272,653.913343 C84.920477,663.75777 89.5953823,674.655073 91.295349,686.763191 C91.1359772,686.868479 90.9766023,686.921122 90.7641064,687.02641 Z M81.8392839,684.131 C84.9204737,686.23676 87.9485438,688.289867 90.9766094,690.448271 C91.4016011,690.764135 91.773468,691.237934 91.8797159,691.71173 C92.2515837,693.554269 92.4640787,695.449451 92.7828224,697.555211 C88.9578975,697.555211 85.4517182,697.555211 81.6799171,697.555211 C81.3611734,693.080471 80.9893056,688.60574 80.6174378,683.867781 C81.3611733,684.025713 81.6799121,684.025712 81.8392839,684.131 Z M102.504509,681.077656 C104.416971,680.498572 106.382552,679.919475 108.720006,679.287747 C108.720006,685.552382 108.720006,691.501156 108.720006,697.607859 C106.754419,697.607859 104.841959,697.607859 102.770124,697.607859 C101.973265,694.186 101.760773,683.446635 102.504509,681.077656 Z M112.81055,546.888107 C112.226187,548.098919 111.748073,549.309728 111.057461,550.467895 C110.36685,551.626063 110.207478,552.573657 111.110586,553.731825 C112.013693,554.837349 112.598057,556.206091 113.288669,557.469547 C113.129297,557.627479 113.023052,557.785414 112.86368,557.943346 C111.37621,557.20633 109.835613,556.46931 108.295018,555.67965 C106.648175,557.206326 106.913795,560.049102 104.204473,561.312557 C104.204473,558.627714 104.204473,556.311379 104.204473,553.889756 C101.654523,553.521248 99.2639426,553.889757 96.4483727,552.678946 C98.8389509,551.67871 100.698295,550.889048 102.663882,550.099388 C102.398262,548.41478 102.185762,546.782821 101.973266,545.098213 C102.132638,544.992925 102.345137,544.887635 102.504509,544.834991 C104.151352,545.993159 105.745069,547.151325 107.445035,548.362137 C108.98563,547.677765 110.579346,546.993394 112.173065,546.361666 C112.385561,546.519598 112.598054,546.730175 112.81055,546.888107 Z M74.9862958,648.069862 C72.6488415,645.648239 70.258259,643.226608 67.9208046,640.75234 C67.495813,640.331188 67.3364371,639.594171 67.2301892,638.962443 C67.0176934,637.593699 66.8583304,636.224954 66.6989585,634.856211 C66.5395866,633.434823 66.3270878,632.013441 66.1677159,630.697341 C68.4520463,629.591818 70.417634,628.644229 72.7019644,627.591349 C73.6581957,634.435067 74.5613009,641.173505 75.4644082,647.859292 C75.3050363,647.911936 75.1456677,648.017218 74.9862958,648.069862 Z M70.6832544,546.94075 C70.7363783,547.046038 70.7895032,547.203969 70.8426272,547.309257 C71.8519824,547.098681 72.8613328,546.888108 74.1894319,546.624888 C73.5519443,548.678004 73.4988219,550.836404 72.3832188,552.047216 C70.842624,553.67918 68.5051706,554.626771 66.2739644,555.995515 C65.1052373,551.889283 64.0427512,548.204206 62.980272,544.519126 C65.2114782,543.676822 67.2302004,542.939808 69.195787,542.150148 C70.6832578,543.255672 72.064477,544.15062 73.7644437,545.361432 C72.4894686,545.99316 71.5863617,546.466954 70.6832544,546.94075 Z M86.2485739,542.097506 C86.3016979,542.308082 86.3016925,542.518656 86.3548165,542.729232 C85.0267174,543.518892 83.7517435,544.255909 82.3705206,545.098213 C83.16738,547.046041 83.9642468,548.835934 84.7079822,550.625829 C84.4954864,550.783761 84.3361112,550.889047 84.1236153,551.046979 C82.4767727,549.572948 80.7768054,548.098919 78.8112189,546.414312 C77.270624,548.151563 75.8894063,549.730879 74.5081834,551.310198 C74.2956876,551.20491 74.0831884,551.046979 73.9238165,550.941691 C74.5081801,549.046507 75.14566,547.098684 75.7300235,545.256144 C74.1363048,544.255908 72.7550931,543.413603 71.4269941,542.518656 C71.480118,542.30808 71.5332429,542.150148 71.5863669,541.939572 C73.3394575,541.939572 75.1456669,541.939572 76.9518816,541.939572 C77.3768733,540.044388 77.748742,538.412424 78.1737337,536.78046 C78.3862295,536.78046 78.5987233,536.727817 78.8643431,536.727817 C79.4487067,538.201849 80.1393127,539.623236 81.04242,541.465776 C82.7423867,541.676352 84.4954833,541.88693 86.2485739,542.097506 Z M152.175407,590.635257 C154.831605,590.635257 157.16906,592.951597 157.275308,595.531152 C157.328432,598.26864 154.990977,600.742903 152.281655,600.795547 C149.678581,600.848191 147.128633,598.479221 147.075509,596.004954 C147.022385,592.951602 149.200465,590.635257 152.175407,590.635257 Z M152.547275,574.842062 C153.82225,578.105989 155.894084,588.213639 155.787836,590.161467 C153.450381,590.161467 151.112929,590.161467 148.456731,590.161467 C149.625458,584.897068 150.794184,579.895885 151.909787,574.842062 C152.122283,574.842062 152.334779,574.842062 152.547275,574.842062 Z M78.6518461,559.470018 C76.0487719,559.470018 73.4457006,559.470018 70.7363786,559.470018 C72.1176015,554.942635 74.6675491,551.73135 78.6518461,548.677998 C78.6518461,552.573654 78.6518461,555.995514 78.6518461,559.470018 Z M69.5145206,662.915478 C71.8519749,661.652022 74.2425589,660.441191 76.8456331,659.019804 C77.3237487,663.389255 77.8549852,667.442849 78.3862248,671.917588 C75.9425226,670.390912 70.205132,664.494797 69.5145206,662.915478 Z M69.1426627,658.282795 C68.9301668,654.492428 68.345799,651.070558 68.398923,647.385478 C70.3113855,647.80663 72.1175995,646.701123 73.4988224,648.122511 C74.9862933,649.649187 76.4206428,651.228506 76.0487751,653.439554 C73.6581969,655.124162 71.5863648,656.598187 69.1426627,658.282795 Z M135.069491,662.546961 C135.441359,658.598662 135.760104,654.650369 136.291343,650.754714 C136.397591,649.859766 136.928833,648.648956 137.672568,648.17516 C139.478783,647.069636 141.497493,646.279956 143.46308,645.490296 C143.888072,645.332364 144.578682,645.648236 145.375541,645.858812 C143.888071,647.701352 142.081854,647.754008 140.435012,648.17516 C137.72569,648.806888 136.397594,651.01792 137.300701,653.597476 C137.725693,654.808288 138.469427,655.861168 139.106914,657.019336 C139.425658,657.59842 139.744401,658.230145 140.063145,658.756585 C138.363178,660.072684 138.681919,657.651073 137.513192,657.809005 C137.778812,659.809477 138.097561,661.757297 138.36318,663.863057 C140.541263,663.652481 142.400597,663.494546 144.366183,663.28397 C144.313059,663.915698 144.259938,664.389495 144.206814,664.389495 C141.391244,664.547427 138.522551,664.652721 135.441361,664.863297 C135.281989,663.757773 135.016367,663.126045 135.069491,662.546961 Z M152.069158,614.904135 C150.369192,610.324108 150.05045,605.744089 148.775475,601.216705 C151.272301,601.216705 153.344135,601.216705 155.469093,601.216705 C155.840961,603.111889 153.716001,612.535156 152.069158,614.904135 Z M140.806882,649.701826 C141.284997,649.543894 141.975607,650.017693 142.506846,650.280913 C142.719342,650.3862 142.931838,650.649416 143.038086,650.912636 C143.941193,654.018631 144.8443,657.071987 145.64116,660.230626 C145.747408,660.651778 145.375543,661.546726 145.056799,661.59937 C143.356832,662.073166 141.656863,662.389034 139.903772,662.59961 C139.638152,662.652254 139.05379,662.125812 139.000666,661.757304 C138.947542,661.283508 139.160037,660.757063 139.425657,660.335911 C139.585029,660.072691 140.063144,660.020042 140.381888,659.86211 C142.29435,658.756586 142.294351,658.651311 141.656864,656.598195 C141.019376,654.860943 140.488135,653.071034 139.850648,651.123207 C140.169392,650.649411 140.38189,649.807114 140.806882,649.701826 Z M170.078182,595.899657 C166.093885,597.057824 162.056464,598.16335 157.806547,598.847722 C157.965919,596.794606 158.072168,595.109996 158.178416,593.162168 C162.215837,593.84654 166.040761,594.47827 169.91881,595.162642 C169.971934,595.425862 170.025058,595.636437 170.078182,595.899657 Z M39.286994,538.465069 C40.9869607,538.412425 42.89942,540.254964 42.89942,541.939572 C42.952544,543.887399 41.146332,545.62465 39.1807455,545.572006 C37.268283,545.572006 35.8339288,544.045332 35.8339288,542.04486 C35.8339288,540.044388 37.3214075,538.517713 39.286994,538.465069 Z M146.172399,598.373932 C142.188102,597.531628 138.363177,596.741961 134.591376,595.899657 C134.591376,595.689081 134.591376,595.425867 134.591376,595.215291 C138.310053,594.215055 142.134979,593.583326 146.172399,592.951598 C146.172399,594.952069 146.172399,596.478748 146.172399,598.373932 Z M140.222518,683.288694 C139.31941,683.288694 138.628797,683.288694 137.778814,683.288694 C137.778814,680.024767 137.778814,676.971415 137.778814,673.6022 C138.788169,673.760132 139.531906,673.918053 140.222518,674.023341 C140.222518,677.287268 140.222518,680.235343 140.222518,683.288694 Z M148.775475,651.017933 C151.059805,652.702541 150.794186,654.913577 151.166053,656.756117 C151.537921,658.703945 152.228531,660.862348 149.891077,662.757532 C149.519209,659.019809 149.200467,655.229452 148.775475,651.017933 Z M148.775475,661.862589 C148.775475,662.599605 148.509854,663.599841 148.031738,663.915705 C147.234879,664.442145 146.119276,664.442145 145.747408,663.915705 C146.066152,661.809946 146.278649,660.28326 146.544269,658.756585 C146.650517,657.914281 146.491144,656.808762 148.350482,657.17727 C148.509854,658.651302 148.775475,660.28327 148.775475,661.862589 Z M49.7524141,540.20232 C47.8399517,540.20232 46.1931128,540.20232 44.1744023,540.20232 C44.8650138,538.359781 45.4493775,536.885749 46.2993609,534.727345 C47.6805838,536.938393 48.6899349,538.517713 49.7524141,540.20232 Z M138.416302,645.542945 C137.672566,644.542709 137.088203,643.384539 136.344467,642.384303 C135.228864,640.804984 135.494486,640.015323 137.672568,638.962443 C138.310056,641.17349 138.947543,643.384545 139.691278,645.858812 C139.213162,645.753524 138.628798,645.806165 138.416302,645.542945 Z M119.344799,538.465069 C119.397923,539.570593 118.388568,540.623472 117.272964,540.570828 C116.263609,540.518184 115.360503,539.623235 115.360503,538.623 C115.307379,537.464832 116.210486,536.569885 117.432337,536.569885 C118.494816,536.569885 119.291675,537.359545 119.344799,538.465069 Z M149.731706,649.59654 C149.306714,649.280676 148.881722,648.912174 148.403606,648.701598 C146.491144,647.964582 145.216169,648.964818 145.322417,651.017933 C145.322417,651.544373 145.269292,652.123441 145.163044,653.018389 C143.409954,649.701817 143.463079,648.122501 145.322417,647.596061 C146.43802,647.280197 147.712995,647.385478 148.828598,647.648698 C149.412961,647.753986 149.784829,648.596294 150.209821,649.07009 C150.050449,649.228022 149.891077,649.438608 149.731706,649.59654 Z M143.62245,640.489121 C142.772466,639.173021 141.922482,637.909564 140.913127,636.382889 C141.922482,635.961737 142.559972,635.751161 143.356831,635.435297 C145.534914,639.225665 145.534912,639.225665 143.62245,640.489121 Z M150.103574,666.758479 C148.934847,666.916411 147.712993,666.863767 146.491142,666.758479 C146.06615,666.705835 145.74741,666.232038 144.95055,665.652954 C147.234881,665.126514 149.041094,664.65272 151.059805,664.178925 C151.750416,666.23204 151.697293,666.547903 150.103574,666.758479 Z M39.8713489,531.200198 C40.0838448,533.253314 40.2963446,535.30643 40.5619644,537.622766 C39.6057331,537.570122 38.9682555,537.57012 38.1182722,537.517476 C38.4370159,535.253785 38.7557535,533.20067 39.1276212,531.200198 C39.393241,531.200198 39.6057291,531.200198 39.8713489,531.200198 Z M143.99432,587.529264 C145.003675,588.108348 146.119274,588.582147 147.022382,589.266518 C147.925489,589.95089 147.712996,591.003767 147.075509,591.688139 C146.278649,592.530443 145.534912,591.846074 145.10992,591.109058 C144.525557,590.108822 144.047441,589.003295 143.516201,588.00306 C143.675573,587.845128 143.834948,587.687196 143.99432,587.529264 Z M32.5402484,550.309965 C33.4964796,548.572713 34.5058283,546.888109 35.5683075,544.992925 C36.258919,545.572009 36.7901698,545.993159 37.5339053,546.572242 C35.8870626,548.046274 34.4527138,549.362372 33.0183668,550.678472 C32.8589949,550.573184 32.6996203,550.415253 32.5402484,550.309965 Z M50.5492781,616.588747 C50.2836583,617.694271 50.2305297,618.852438 49.7524141,619.852673 C49.5399183,620.273825 48.4243167,620.642341 47.9462011,620.484409 C47.1493417,620.168545 46.724347,619.220945 47.4149585,618.483929 C48.1586939,617.641625 49.1149278,616.957258 49.9649112,616.220243 C50.177407,616.325531 50.3367822,616.483459 50.5492781,616.588747 Z M147.65987,656.071757 C147.288002,655.755893 146.597393,655.492666 146.544269,655.176802 C146.331773,653.650127 146.225524,652.123451 146.225524,650.544132 C146.225524,650.228268 146.756766,649.912403 147.181757,649.438607 C147.447377,649.965046 147.606746,650.175622 147.65987,650.386198 C147.872366,652.123449 148.084863,653.860711 148.244235,655.545319 C148.031739,655.703251 147.872366,655.913825 147.65987,656.071757 Z M51.133645,627.117547 C52.8867356,625.538227 54.0554506,626.117303 55.2773017,629.065366 C52.4086077,629.539162 52.1961242,629.433883 51.133645,627.117547 Z M44.8650058,541.202557 C46.2993528,540.991981 47.8399488,540.939334 49.2742958,541.886926 C47.574329,542.571298 45.8743677,543.150382 43.9619053,543.834754 C43.7494094,542.413366 43.6431547,541.413133 44.8650058,541.202557 Z M137.831941,687.921365 C137.672569,684.604793 137.672566,684.604799 140.010021,684.710087 C140.594384,688.500454 140.381891,688.763669 137.831941,687.921365 Z M144.153689,600.005889 C144.525557,599.532093 145.375542,599.268873 146.01303,599.321517 C146.438021,599.374161 147.128633,600.058539 147.181757,600.479691 C147.181757,600.900843 146.597394,601.532572 146.119278,601.795792 C145.322419,602.269588 144.419311,602.427515 142.93184,602.901311 C143.516204,601.479924 143.675574,600.584973 144.153689,600.005889 Z M38.5963786,553.573891 C38.5963786,551.678707 38.5963786,549.783523 38.5963786,547.835695 C38.5963786,546.466952 39.3401139,546.414309 40.6682129,546.993392 C40.2432212,549.257084 39.8713588,551.415486 39.499491,553.626534 C39.1807473,553.626534 38.9151224,553.626535 38.5963786,553.573891 Z M45.9274911,632.013437 C47.9993256,633.803333 47.9993244,634.119192 45.7681183,636.33024 C44.0150277,633.908616 44.0150286,633.908621 45.9274911,632.013437 Z M160.037754,603.848903 C159.081523,603.375107 158.072167,602.953958 157.275308,602.32223 C156.478448,601.690503 156.690945,600.742907 157.43468,600.163823 C158.125292,599.584739 158.869028,599.742668 159.294019,600.532327 C159.719011,601.427275 160.144001,602.374868 160.515869,603.269816 C160.356497,603.480392 160.197126,603.638327 160.037754,603.848903 Z M145.322417,643.700399 C144.738054,644.016263 143.728698,643.910973 143.09121,643.542465 C142.241227,643.121313 141.550617,642.279018 140.753757,641.594646 C142.4006,641.64729 143.7287,641.647295 145.588038,641.647295 C145.534914,642.384311 145.694285,643.542467 145.322417,643.700399 Z M29.7246744,541.886926 C30.7340296,541.67635 31.4246428,541.518422 32.1152543,541.413134 C32.9121137,541.307846 33.7089758,541.307844 34.665207,541.2552 C34.7183309,542.255435 34.7714558,543.045097 34.8245798,544.203265 C33.0183651,543.308317 31.2121453,543.413602 29.7246744,541.886926 Z M35.1964496,630.74999 C36.4183007,628.433654 36.5245452,628.381001 38.8088756,629.275949 C38.4370079,631.697572 37.7995238,631.960802 35.1964496,630.74999 Z M46.1399762,549.57295 C44.2275137,548.835934 42.5806806,547.940988 41.5713254,546.151092 C42.102565,545.729941 42.4744295,545.361431 43.1119171,544.834991 C44.1743963,546.519599 45.1837449,548.046274 46.1399762,549.57295 Z M35.9933136,537.622766 C36.9495448,538.570358 36.0995555,539.202086 34.9308283,539.570594 C33.9214731,537.728054 32.9652383,535.990801 32.2215028,534.622057 C33.3371059,535.517005 34.8245864,536.411954 35.9933136,537.622766 Z M157.487803,592.319874 C157.275307,591.109063 157.115937,590.214106 156.903441,589.21387 C157.912796,588.634786 158.762778,588.160989 159.612762,587.634549 C159.612762,589.477089 159.559638,591.214351 157.487803,592.319874 Z M138.788169,650.228264 C139.319408,652.228735 139.850649,654.22921 140.54126,656.808766 C137.619442,653.650126 137.353822,652.491956 138.788169,650.228264 Z M36.9495384,618.536578 C37.6932738,618.905086 38.4901336,619.168307 39.1276212,619.642103 C39.5526129,619.957967 39.7119887,620.694978 39.8182366,621.221418 C39.8713606,621.431994 39.3932413,622.01107 39.1807455,621.958426 C38.5963819,621.853138 37.852649,621.695211 37.5339053,621.326703 C37.0557896,620.642331 36.7901634,619.800027 36.4182957,619.010368 C36.5776676,618.852436 36.7901665,618.69451 36.9495384,618.536578 Z M139.744402,634.908859 C139.478783,636.435535 139.31941,637.646345 139.05379,639.120377 C138.363178,637.435769 136.875708,636.330247 137.619444,633.961268 C138.575675,634.38242 139.266287,634.698283 139.744402,634.908859 Z M75.1987869,540.728759 C73.711316,540.728759 72.7019683,540.728759 71.2676213,540.728759 C72.0644806,539.781167 72.5957142,539.202084 73.3394496,538.359781 C73.9769372,539.14944 74.4550514,539.781167 75.1987869,540.728759 Z M45.1306271,535.095854 C44.4400157,536.780462 43.8556534,538.096562 43.2712898,539.570594 C41.8369429,537.67541 42.0494374,537.254258 45.1306271,535.095854 Z M119.238556,627.801919 C119.982292,626.2226 120.566654,625.064432 121.151018,623.853621 C122.054125,625.801448 121.310391,626.906971 119.238556,627.801919 Z M143.675574,562.576013 C143.941194,562.576013 144.525559,563.260383 144.419311,563.365671 C144.206815,563.734179 143.834944,564.155337 143.409953,564.260625 C143.250581,564.365913 142.825592,563.892109 142.294352,563.418313 C142.878716,562.997161 143.250582,562.628657 143.675574,562.576013 Z M69.6207691,644.64799 C68.8239097,644.279482 67.7083094,644.226843 68.0270532,642.384303 C68.8770365,643.016031 69.5145245,643.542463 70.205136,644.068903 C69.9926402,644.279479 69.8332649,644.437414 69.6207691,644.64799 Z" id="Vector"></path>
        </g>
    </g>
</svg>
